<svg width="317" height="45" viewBox="0 0 317 45" fill="none" xmlns="http://www.w3.org/2000/svg">
<rect x="0.25" y="0.25" width="316.5" height="44.5" rx="22.25" fill="white" stroke="#E8E8E8" stroke-width="0.5"/>
<path d="M54.379 24.295H51.035L50.419 26H49.363L52.135 18.377H53.29L56.051 26H54.995L54.379 24.295ZM54.093 23.481L52.707 19.609L51.321 23.481H54.093ZM56.8851 22.964C56.8851 22.348 57.0098 21.809 57.2591 21.347C57.5084 20.8777 57.8494 20.5147 58.2821 20.258C58.7221 20.0013 59.2134 19.873 59.7561 19.873C60.2254 19.873 60.6618 19.983 61.0651 20.203C61.4684 20.4157 61.7764 20.698 61.9891 21.05V17.86H63.0011V26H61.9891V24.867C61.7911 25.2263 61.4978 25.5233 61.1091 25.758C60.7204 25.9853 60.2658 26.099 59.7451 26.099C59.2098 26.099 58.7221 25.967 58.2821 25.703C57.8494 25.439 57.5084 25.0687 57.2591 24.592C57.0098 24.1153 56.8851 23.5727 56.8851 22.964ZM61.9891 22.975C61.9891 22.5203 61.8974 22.1243 61.7141 21.787C61.5308 21.4497 61.2814 21.193 60.9661 21.017C60.6581 20.8337 60.3171 20.742 59.9431 20.742C59.5691 20.742 59.2281 20.83 58.9201 21.006C58.6121 21.182 58.3664 21.4387 58.1831 21.776C57.9998 22.1133 57.9081 22.5093 57.9081 22.964C57.9081 23.426 57.9998 23.8293 58.1831 24.174C58.3664 24.5113 58.6121 24.7717 58.9201 24.955C59.2281 25.131 59.5691 25.219 59.9431 25.219C60.3171 25.219 60.6581 25.131 60.9661 24.955C61.2814 24.7717 61.5308 24.5113 61.7141 24.174C61.8974 23.8293 61.9891 23.4297 61.9891 22.975ZM64.3187 22.964C64.3187 22.348 64.4434 21.809 64.6927 21.347C64.942 20.8777 65.283 20.5147 65.7157 20.258C66.1557 20.0013 66.647 19.873 67.1897 19.873C67.659 19.873 68.0954 19.983 68.4987 20.203C68.902 20.4157 69.21 20.698 69.4227 21.05V17.86H70.4347V26H69.4227V24.867C69.2247 25.2263 68.9314 25.5233 68.5427 25.758C68.154 25.9853 67.6994 26.099 67.1787 26.099C66.6434 26.099 66.1557 25.967 65.7157 25.703C65.283 25.439 64.942 25.0687 64.6927 24.592C64.4434 24.1153 64.3187 23.5727 64.3187 22.964ZM69.4227 22.975C69.4227 22.5203 69.331 22.1243 69.1477 21.787C68.9644 21.4497 68.715 21.193 68.3997 21.017C68.0917 20.8337 67.7507 20.742 67.3767 20.742C67.0027 20.742 66.6617 20.83 66.3537 21.006C66.0457 21.182 65.8 21.4387 65.6167 21.776C65.4334 22.1133 65.3417 22.5093 65.3417 22.964C65.3417 23.426 65.4334 23.8293 65.6167 24.174C65.8 24.5113 66.0457 24.7717 66.3537 24.955C66.6617 25.131 67.0027 25.219 67.3767 25.219C67.7507 25.219 68.0917 25.131 68.3997 24.955C68.715 24.7717 68.9644 24.5113 69.1477 24.174C69.331 23.8293 69.4227 23.4297 69.4227 22.975ZM74.6849 22.964C74.6849 22.348 74.8096 21.809 75.0589 21.347C75.3082 20.8777 75.6492 20.5147 76.0819 20.258C76.5219 20.0013 77.0096 19.873 77.5449 19.873C78.0729 19.873 78.5312 19.9867 78.9199 20.214C79.3086 20.4413 79.5982 20.7273 79.7889 21.072V19.972H80.8009V26H79.7889V24.878C79.5909 25.23 79.2939 25.5233 78.8979 25.758C78.5092 25.9853 78.0546 26.099 77.5339 26.099C76.9986 26.099 76.5146 25.967 76.0819 25.703C75.6492 25.439 75.3082 25.0687 75.0589 24.592C74.8096 24.1153 74.6849 23.5727 74.6849 22.964ZM79.7889 22.975C79.7889 22.5203 79.6972 22.1243 79.5139 21.787C79.3306 21.4497 79.0812 21.193 78.7659 21.017C78.4579 20.8337 78.1169 20.742 77.7429 20.742C77.3689 20.742 77.0279 20.83 76.7199 21.006C76.4119 21.182 76.1662 21.4387 75.9829 21.776C75.7996 22.1133 75.7079 22.5093 75.7079 22.964C75.7079 23.426 75.7996 23.8293 75.9829 24.174C76.1662 24.5113 76.4119 24.7717 76.7199 24.955C77.0279 25.131 77.3689 25.219 77.7429 25.219C78.1169 25.219 78.4579 25.131 78.7659 24.955C79.0812 24.7717 79.3306 24.5113 79.5139 24.174C79.6972 23.8293 79.7889 23.4297 79.7889 22.975ZM86.4261 21.083C86.6241 20.7383 86.9175 20.4523 87.3061 20.225C87.7021 19.9903 88.1605 19.873 88.6811 19.873C89.2165 19.873 89.7005 20.0013 90.1331 20.258C90.5731 20.5147 90.9178 20.8777 91.1671 21.347C91.4165 21.809 91.5411 22.348 91.5411 22.964C91.5411 23.5727 91.4165 24.1153 91.1671 24.592C90.9178 25.0687 90.5731 25.439 90.1331 25.703C89.7005 25.967 89.2165 26.099 88.6811 26.099C88.1678 26.099 87.7131 25.9853 87.3171 25.758C86.9285 25.5233 86.6315 25.2337 86.4261 24.889V28.86H85.4251V19.972H86.4261V21.083ZM90.5181 22.964C90.5181 22.5093 90.4265 22.1133 90.2431 21.776C90.0598 21.4387 89.8105 21.182 89.4951 21.006C89.1871 20.83 88.8461 20.742 88.4721 20.742C88.1055 20.742 87.7645 20.8337 87.4491 21.017C87.1411 21.193 86.8918 21.4533 86.7011 21.798C86.5178 22.1353 86.4261 22.5277 86.4261 22.975C86.4261 23.4297 86.5178 23.8293 86.7011 24.174C86.8918 24.5113 87.1411 24.7717 87.4491 24.955C87.7645 25.131 88.1055 25.219 88.4721 25.219C88.8461 25.219 89.1871 25.131 89.4951 24.955C89.8105 24.7717 90.0598 24.5113 90.2431 24.174C90.4265 23.8293 90.5181 23.426 90.5181 22.964ZM95.8507 19.862C96.3054 19.862 96.7161 19.961 97.0827 20.159C97.4494 20.3497 97.7354 20.6393 97.9407 21.028C98.1534 21.4167 98.2597 21.8897 98.2597 22.447V26H97.2697V22.59C97.2697 21.9887 97.1194 21.5303 96.8187 21.215C96.5181 20.8923 96.1074 20.731 95.5867 20.731C95.0587 20.731 94.6371 20.896 94.3217 21.226C94.0137 21.556 93.8597 22.0363 93.8597 22.667V26H92.8587V17.86H93.8597V20.83C94.0577 20.522 94.3291 20.2837 94.6737 20.115C95.0257 19.9463 95.4181 19.862 95.8507 19.862ZM102.524 26.099C101.959 26.099 101.446 25.9707 100.984 25.714C100.529 25.4573 100.17 25.0943 99.9059 24.625C99.6492 24.1483 99.5209 23.5983 99.5209 22.975C99.5209 22.359 99.6529 21.8163 99.9169 21.347C100.188 20.8703 100.555 20.5073 101.017 20.258C101.479 20.0013 101.996 19.873 102.568 19.873C103.14 19.873 103.657 20.0013 104.119 20.258C104.581 20.5073 104.944 20.8667 105.208 21.336C105.479 21.8053 105.615 22.3517 105.615 22.975C105.615 23.5983 105.476 24.1483 105.197 24.625C104.926 25.0943 104.555 25.4573 104.086 25.714C103.617 25.9707 103.096 26.099 102.524 26.099ZM102.524 25.219C102.883 25.219 103.221 25.1347 103.536 24.966C103.851 24.7973 104.104 24.5443 104.295 24.207C104.493 23.8697 104.592 23.459 104.592 22.975C104.592 22.491 104.497 22.0803 104.306 21.743C104.115 21.4057 103.866 21.1563 103.558 20.995C103.25 20.8263 102.916 20.742 102.557 20.742C102.19 20.742 101.853 20.8263 101.545 20.995C101.244 21.1563 101.002 21.4057 100.819 21.743C100.636 22.0803 100.544 22.491 100.544 22.975C100.544 23.4663 100.632 23.8807 100.808 24.218C100.991 24.5553 101.233 24.8083 101.534 24.977C101.835 25.1383 102.165 25.219 102.524 25.219ZM108.152 20.797V24.35C108.152 24.6433 108.214 24.8523 108.339 24.977C108.464 25.0943 108.68 25.153 108.988 25.153H109.725V26H108.823C108.266 26 107.848 25.8717 107.569 25.615C107.29 25.3583 107.151 24.9367 107.151 24.35V20.797H106.37V19.972H107.151V18.454H108.152V19.972H109.725V20.797H108.152ZM113.567 26.099C113.002 26.099 112.489 25.9707 112.027 25.714C111.572 25.4573 111.213 25.0943 110.949 24.625C110.692 24.1483 110.564 23.5983 110.564 22.975C110.564 22.359 110.696 21.8163 110.96 21.347C111.231 20.8703 111.598 20.5073 112.06 20.258C112.522 20.0013 113.039 19.873 113.611 19.873C114.183 19.873 114.7 20.0013 115.162 20.258C115.624 20.5073 115.987 20.8667 116.251 21.336C116.522 21.8053 116.658 22.3517 116.658 22.975C116.658 23.5983 116.518 24.1483 116.24 24.625C115.968 25.0943 115.598 25.4573 115.129 25.714C114.659 25.9707 114.139 26.099 113.567 26.099ZM113.567 25.219C113.926 25.219 114.263 25.1347 114.579 24.966C114.894 24.7973 115.147 24.5443 115.338 24.207C115.536 23.8697 115.635 23.459 115.635 22.975C115.635 22.491 115.539 22.0803 115.349 21.743C115.158 21.4057 114.909 21.1563 114.601 20.995C114.293 20.8263 113.959 20.742 113.6 20.742C113.233 20.742 112.896 20.8263 112.588 20.995C112.287 21.1563 112.045 21.4057 111.862 21.743C111.678 22.0803 111.587 22.491 111.587 22.975C111.587 23.4663 111.675 23.8807 111.851 24.218C112.034 24.5553 112.276 24.8083 112.577 24.977C112.877 25.1383 113.207 25.219 113.567 25.219Z" fill="black"/>
<path d="M40.5217 18.5714H38.1787L36.8261 17.1429H32.3913V18.5714H36.1757L37.5283 20H40.5217V28.5714H28.6957V22.1429H27.2174V28.5714C27.2174 29.3571 27.8826 30 28.6957 30H40.5217C41.3348 30 42 29.3571 42 28.5714V20C42 19.2143 41.3348 18.5714 40.5217 18.5714ZM30.913 24.2857C30.913 26.2571 32.5687 27.8571 34.6087 27.8571C36.6487 27.8571 38.3043 26.2571 38.3043 24.2857C38.3043 22.3143 36.6487 20.7143 34.6087 20.7143C32.5687 20.7143 30.913 22.3143 30.913 24.2857ZM34.6087 22.1429C35.8283 22.1429 36.8261 23.1071 36.8261 24.2857C36.8261 25.4643 35.8283 26.4286 34.6087 26.4286C33.3891 26.4286 32.3913 25.4643 32.3913 24.2857C32.3913 23.1071 33.3891 22.1429 34.6087 22.1429ZM28.6957 18.5714H30.913V17.1429H28.6957V15H27.2174V17.1429H25V18.5714H27.2174V20.7143H28.6957V18.5714Z" fill="#0BBE22"/>
</svg>
