<svg width="117" height="29" viewBox="0 0 117 29" fill="none" xmlns="http://www.w3.org/2000/svg">
<rect x="0.5" y="0.5" width="116" height="28" rx="14" stroke="#E8E8E8"/>
<path d="M41.379 16.295H38.035L37.419 18H36.363L39.135 10.377H40.29L43.051 18H41.995L41.379 16.295ZM41.093 15.481L39.707 11.609L38.321 15.481H41.093ZM43.8851 14.964C43.8851 14.348 44.0098 13.809 44.2591 13.347C44.5084 12.8777 44.8494 12.5147 45.2821 12.258C45.7221 12.0013 46.2134 11.873 46.7561 11.873C47.2254 11.873 47.6618 11.983 48.0651 12.203C48.4684 12.4157 48.7764 12.698 48.9891 13.05V9.86H50.0011V18H48.9891V16.867C48.7911 17.2263 48.4978 17.5233 48.1091 17.758C47.7204 17.9853 47.2658 18.099 46.7451 18.099C46.2098 18.099 45.7221 17.967 45.2821 17.703C44.8494 17.439 44.5084 17.0687 44.2591 16.592C44.0098 16.1153 43.8851 15.5727 43.8851 14.964ZM48.9891 14.975C48.9891 14.5203 48.8974 14.1243 48.7141 13.787C48.5308 13.4497 48.2814 13.193 47.9661 13.017C47.6581 12.8337 47.3171 12.742 46.9431 12.742C46.5691 12.742 46.2281 12.83 45.9201 13.006C45.6121 13.182 45.3664 13.4387 45.1831 13.776C44.9998 14.1133 44.9081 14.5093 44.9081 14.964C44.9081 15.426 44.9998 15.8293 45.1831 16.174C45.3664 16.5113 45.6121 16.7717 45.9201 16.955C46.2281 17.131 46.5691 17.219 46.9431 17.219C47.3171 17.219 47.6581 17.131 47.9661 16.955C48.2814 16.7717 48.5308 16.5113 48.7141 16.174C48.8974 15.8293 48.9891 15.4297 48.9891 14.975ZM51.3187 14.964C51.3187 14.348 51.4434 13.809 51.6927 13.347C51.942 12.8777 52.283 12.5147 52.7157 12.258C53.1557 12.0013 53.647 11.873 54.1897 11.873C54.659 11.873 55.0954 11.983 55.4987 12.203C55.902 12.4157 56.21 12.698 56.4227 13.05V9.86H57.4347V18H56.4227V16.867C56.2247 17.2263 55.9314 17.5233 55.5427 17.758C55.154 17.9853 54.6994 18.099 54.1787 18.099C53.6434 18.099 53.1557 17.967 52.7157 17.703C52.283 17.439 51.942 17.0687 51.6927 16.592C51.4434 16.1153 51.3187 15.5727 51.3187 14.964ZM56.4227 14.975C56.4227 14.5203 56.331 14.1243 56.1477 13.787C55.9644 13.4497 55.715 13.193 55.3997 13.017C55.0917 12.8337 54.7507 12.742 54.3767 12.742C54.0027 12.742 53.6617 12.83 53.3537 13.006C53.0457 13.182 52.8 13.4387 52.6167 13.776C52.4334 14.1133 52.3417 14.5093 52.3417 14.964C52.3417 15.426 52.4334 15.8293 52.6167 16.174C52.8 16.5113 53.0457 16.7717 53.3537 16.955C53.6617 17.131 54.0027 17.219 54.3767 17.219C54.7507 17.219 55.0917 17.131 55.3997 16.955C55.715 16.7717 55.9644 16.5113 56.1477 16.174C56.331 15.8293 56.4227 15.4297 56.4227 14.975ZM61.6849 14.964C61.6849 14.348 61.8096 13.809 62.0589 13.347C62.3082 12.8777 62.6492 12.5147 63.0819 12.258C63.5219 12.0013 64.0096 11.873 64.5449 11.873C65.0729 11.873 65.5312 11.9867 65.9199 12.214C66.3086 12.4413 66.5982 12.7273 66.7889 13.072V11.972H67.8009V18H66.7889V16.878C66.5909 17.23 66.2939 17.5233 65.8979 17.758C65.5092 17.9853 65.0546 18.099 64.5339 18.099C63.9986 18.099 63.5146 17.967 63.0819 17.703C62.6492 17.439 62.3082 17.0687 62.0589 16.592C61.8096 16.1153 61.6849 15.5727 61.6849 14.964ZM66.7889 14.975C66.7889 14.5203 66.6972 14.1243 66.5139 13.787C66.3306 13.4497 66.0812 13.193 65.7659 13.017C65.4579 12.8337 65.1169 12.742 64.7429 12.742C64.3689 12.742 64.0279 12.83 63.7199 13.006C63.4119 13.182 63.1662 13.4387 62.9829 13.776C62.7996 14.1133 62.7079 14.5093 62.7079 14.964C62.7079 15.426 62.7996 15.8293 62.9829 16.174C63.1662 16.5113 63.4119 16.7717 63.7199 16.955C64.0279 17.131 64.3689 17.219 64.7429 17.219C65.1169 17.219 65.4579 17.131 65.7659 16.955C66.0812 16.7717 66.3306 16.5113 66.5139 16.174C66.6972 15.8293 66.7889 15.4297 66.7889 14.975ZM73.4261 13.083C73.6241 12.7383 73.9175 12.4523 74.3061 12.225C74.7021 11.9903 75.1605 11.873 75.6811 11.873C76.2165 11.873 76.7005 12.0013 77.1331 12.258C77.5731 12.5147 77.9178 12.8777 78.1671 13.347C78.4165 13.809 78.5411 14.348 78.5411 14.964C78.5411 15.5727 78.4165 16.1153 78.1671 16.592C77.9178 17.0687 77.5731 17.439 77.1331 17.703C76.7005 17.967 76.2165 18.099 75.6811 18.099C75.1678 18.099 74.7131 17.9853 74.3171 17.758C73.9285 17.5233 73.6315 17.2337 73.4261 16.889V20.86H72.4251V11.972H73.4261V13.083ZM77.5181 14.964C77.5181 14.5093 77.4265 14.1133 77.2431 13.776C77.0598 13.4387 76.8105 13.182 76.4951 13.006C76.1871 12.83 75.8461 12.742 75.4721 12.742C75.1055 12.742 74.7645 12.8337 74.4491 13.017C74.1411 13.193 73.8918 13.4533 73.7011 13.798C73.5178 14.1353 73.4261 14.5277 73.4261 14.975C73.4261 15.4297 73.5178 15.8293 73.7011 16.174C73.8918 16.5113 74.1411 16.7717 74.4491 16.955C74.7645 17.131 75.1055 17.219 75.4721 17.219C75.8461 17.219 76.1871 17.131 76.4951 16.955C76.8105 16.7717 77.0598 16.5113 77.2431 16.174C77.4265 15.8293 77.5181 15.426 77.5181 14.964ZM82.8507 11.862C83.3054 11.862 83.7161 11.961 84.0827 12.159C84.4494 12.3497 84.7354 12.6393 84.9407 13.028C85.1534 13.4167 85.2597 13.8897 85.2597 14.447V18H84.2697V14.59C84.2697 13.9887 84.1194 13.5303 83.8187 13.215C83.5181 12.8923 83.1074 12.731 82.5867 12.731C82.0587 12.731 81.6371 12.896 81.3217 13.226C81.0137 13.556 80.8597 14.0363 80.8597 14.667V18H79.8587V9.86H80.8597V12.83C81.0577 12.522 81.3291 12.2837 81.6737 12.115C82.0257 11.9463 82.4181 11.862 82.8507 11.862ZM89.5239 18.099C88.9592 18.099 88.4459 17.9707 87.9839 17.714C87.5292 17.4573 87.1699 17.0943 86.9059 16.625C86.6492 16.1483 86.5209 15.5983 86.5209 14.975C86.5209 14.359 86.6529 13.8163 86.9169 13.347C87.1882 12.8703 87.5549 12.5073 88.0169 12.258C88.4789 12.0013 88.9959 11.873 89.5679 11.873C90.1399 11.873 90.6569 12.0013 91.1189 12.258C91.5809 12.5073 91.9439 12.8667 92.2079 13.336C92.4792 13.8053 92.6149 14.3517 92.6149 14.975C92.6149 15.5983 92.4755 16.1483 92.1969 16.625C91.9255 17.0943 91.5552 17.4573 91.0859 17.714C90.6165 17.9707 90.0959 18.099 89.5239 18.099ZM89.5239 17.219C89.8832 17.219 90.2205 17.1347 90.5359 16.966C90.8512 16.7973 91.1042 16.5443 91.2949 16.207C91.4929 15.8697 91.5919 15.459 91.5919 14.975C91.5919 14.491 91.4965 14.0803 91.3059 13.743C91.1152 13.4057 90.8659 13.1563 90.5579 12.995C90.2499 12.8263 89.9162 12.742 89.5569 12.742C89.1902 12.742 88.8529 12.8263 88.5449 12.995C88.2442 13.1563 88.0022 13.4057 87.8189 13.743C87.6355 14.0803 87.5439 14.491 87.5439 14.975C87.5439 15.4663 87.6319 15.8807 87.8079 16.218C87.9912 16.5553 88.2332 16.8083 88.5339 16.977C88.8345 17.1383 89.1645 17.219 89.5239 17.219ZM95.152 12.797V16.35C95.152 16.6433 95.2143 16.8523 95.339 16.977C95.4637 17.0943 95.68 17.153 95.988 17.153H96.725V18H95.823C95.2657 18 94.8477 17.8717 94.569 17.615C94.2903 17.3583 94.151 16.9367 94.151 16.35V12.797H93.37V11.972H94.151V10.454H95.152V11.972H96.725V12.797H95.152ZM100.567 18.099C100.002 18.099 99.4888 17.9707 99.0268 17.714C98.5722 17.4573 98.2128 17.0943 97.9488 16.625C97.6922 16.1483 97.5638 15.5983 97.5638 14.975C97.5638 14.359 97.6958 13.8163 97.9598 13.347C98.2312 12.8703 98.5978 12.5073 99.0598 12.258C99.5218 12.0013 100.039 11.873 100.611 11.873C101.183 11.873 101.7 12.0013 102.162 12.258C102.624 12.5073 102.987 12.8667 103.251 13.336C103.522 13.8053 103.658 14.3517 103.658 14.975C103.658 15.5983 103.518 16.1483 103.24 16.625C102.968 17.0943 102.598 17.4573 102.129 17.714C101.659 17.9707 101.139 18.099 100.567 18.099ZM100.567 17.219C100.926 17.219 101.263 17.1347 101.579 16.966C101.894 16.7973 102.147 16.5443 102.338 16.207C102.536 15.8697 102.635 15.459 102.635 14.975C102.635 14.491 102.539 14.0803 102.349 13.743C102.158 13.4057 101.909 13.1563 101.601 12.995C101.293 12.8263 100.959 12.742 100.6 12.742C100.233 12.742 99.8958 12.8263 99.5878 12.995C99.2872 13.1563 99.0452 13.4057 98.8618 13.743C98.6785 14.0803 98.5868 14.491 98.5868 14.975C98.5868 15.4663 98.6748 15.8807 98.8508 16.218C99.0342 16.5553 99.2762 16.8083 99.5768 16.977C99.8775 17.1383 100.207 17.219 100.567 17.219Z" fill="black"/>
<path d="M27.5217 10.5714H25.1787L23.8261 9.14286H19.3913V10.5714H23.1757L24.5283 12H27.5217V20.5714H15.6957V14.1429H14.2174V20.5714C14.2174 21.3571 14.8826 22 15.6957 22H27.5217C28.3348 22 29 21.3571 29 20.5714V12C29 11.2143 28.3348 10.5714 27.5217 10.5714ZM17.913 16.2857C17.913 18.2571 19.5687 19.8571 21.6087 19.8571C23.6487 19.8571 25.3043 18.2571 25.3043 16.2857C25.3043 14.3143 23.6487 12.7143 21.6087 12.7143C19.5687 12.7143 17.913 14.3143 17.913 16.2857ZM21.6087 14.1429C22.8283 14.1429 23.8261 15.1071 23.8261 16.2857C23.8261 17.4643 22.8283 18.4286 21.6087 18.4286C20.3891 18.4286 19.3913 17.4643 19.3913 16.2857C19.3913 15.1071 20.3891 14.1429 21.6087 14.1429ZM15.6957 10.5714H17.913V9.14286H15.6957V7H14.2174V9.14286H12V10.5714H14.2174V12.7143H15.6957V10.5714Z" fill="#0BBE22"/>
</svg>
