<svg width="53" height="80" viewBox="0 0 53 80" fill="none" xmlns="http://www.w3.org/2000/svg">
<path d="M11.0645 63.6855C10.9928 64.444 10.7129 65.0365 10.2246 65.4629C9.73633 65.8861 9.08691 66.0977 8.27637 66.0977C7.70996 66.0977 7.21029 65.9642 6.77734 65.6973C6.34766 65.4271 6.01562 65.0446 5.78125 64.5498C5.54688 64.055 5.4248 63.4805 5.41504 62.8262V62.1621C5.41504 61.4915 5.53385 60.9007 5.77148 60.3896C6.00911 59.8786 6.34928 59.4847 6.79199 59.208C7.23796 58.9313 7.75228 58.793 8.33496 58.793C9.11947 58.793 9.75098 59.0062 10.2295 59.4326C10.708 59.859 10.9863 60.4613 11.0645 61.2393H9.83398C9.77539 60.7282 9.62565 60.3604 9.38477 60.1357C9.14714 59.9079 8.7972 59.7939 8.33496 59.7939C7.79785 59.7939 7.38444 59.9909 7.09473 60.3848C6.80827 60.7754 6.66178 61.3499 6.65527 62.1084V62.7383C6.65527 63.5065 6.79199 64.0924 7.06543 64.4961C7.34212 64.8997 7.74577 65.1016 8.27637 65.1016C8.76139 65.1016 9.12598 64.9925 9.37012 64.7744C9.61426 64.5563 9.76888 64.1934 9.83398 63.6855H11.0645Z" fill="#575757"/>
<path d="M11.8359 63.3096C11.8359 62.792 11.9385 62.3265 12.1436 61.9131C12.3486 61.4964 12.6367 61.1774 13.0078 60.9561C13.3789 60.7314 13.8053 60.6191 14.2871 60.6191C15 60.6191 15.5778 60.8486 16.0205 61.3076C16.4665 61.7666 16.7074 62.3753 16.7432 63.1338L16.748 63.4121C16.748 63.9329 16.6471 64.3984 16.4453 64.8086C16.2467 65.2188 15.9603 65.5361 15.5859 65.7607C15.2148 65.9854 14.7852 66.0977 14.2969 66.0977C13.5514 66.0977 12.9541 65.8503 12.5049 65.3555C12.0589 64.8574 11.8359 64.195 11.8359 63.3682V63.3096ZM13.0225 63.4121C13.0225 63.9557 13.1348 64.3822 13.3594 64.6914C13.584 64.9974 13.8965 65.1504 14.2969 65.1504C14.6973 65.1504 15.0081 64.9941 15.2295 64.6816C15.4541 64.3691 15.5664 63.9118 15.5664 63.3096C15.5664 62.7757 15.4508 62.3525 15.2197 62.04C14.9919 61.7275 14.681 61.5713 14.2871 61.5713C13.8997 61.5713 13.5921 61.7259 13.3643 62.0352C13.1364 62.3411 13.0225 62.8001 13.0225 63.4121Z" fill="#575757"/>
<path d="M18.8672 60.7168L18.9014 61.2686C19.2725 60.8356 19.7803 60.6191 20.4248 60.6191C21.1312 60.6191 21.6146 60.8893 21.875 61.4297C22.2591 60.8893 22.7995 60.6191 23.4961 60.6191C24.0788 60.6191 24.5117 60.7803 24.7949 61.1025C25.0814 61.4248 25.2279 61.9001 25.2344 62.5283V66H24.0479V62.5625C24.0479 62.2272 23.9746 61.9814 23.8281 61.8252C23.6816 61.6689 23.4391 61.5908 23.1006 61.5908C22.8304 61.5908 22.609 61.6641 22.4365 61.8105C22.2673 61.9538 22.1484 62.1426 22.0801 62.377L22.085 66H20.8984V62.5234C20.8822 61.9017 20.5648 61.5908 19.9463 61.5908C19.471 61.5908 19.1341 61.7845 18.9355 62.1719V66H17.749V60.7168H18.8672Z" fill="#575757"/>
<path d="M31.0791 63.4121C31.0791 64.2292 30.8936 64.8818 30.5225 65.3701C30.1514 65.8551 29.6533 66.0977 29.0283 66.0977C28.4489 66.0977 27.985 65.9072 27.6367 65.5264V68.0312H26.4502V60.7168H27.5439L27.5928 61.2539C27.9411 60.8307 28.4147 60.6191 29.0137 60.6191C29.6582 60.6191 30.1628 60.86 30.5273 61.3418C30.8952 61.8203 31.0791 62.486 31.0791 63.3389V63.4121ZM29.8975 63.3096C29.8975 62.7822 29.7917 62.3639 29.5801 62.0547C29.3717 61.7454 29.0723 61.5908 28.6816 61.5908C28.1966 61.5908 27.8483 61.791 27.6367 62.1914V64.5352C27.8516 64.9453 28.2031 65.1504 28.6914 65.1504C29.069 65.1504 29.3636 64.999 29.5752 64.6963C29.79 64.3903 29.8975 63.9281 29.8975 63.3096Z" fill="#575757"/>
<path d="M33.3496 66H32.1631V58.5H33.3496V66Z" fill="#575757"/>
<path d="M36.9727 66.0977C36.2207 66.0977 35.6104 65.8617 35.1416 65.3896C34.6761 64.9144 34.4434 64.2829 34.4434 63.4951V63.3486C34.4434 62.8213 34.5443 62.3509 34.7461 61.9375C34.9512 61.5208 35.2376 61.1969 35.6055 60.9658C35.9733 60.7347 36.3835 60.6191 36.8359 60.6191C37.5553 60.6191 38.1104 60.8486 38.501 61.3076C38.8949 61.7666 39.0918 62.416 39.0918 63.2559V63.7344H35.6396C35.6755 64.1706 35.8203 64.5156 36.0742 64.7695C36.3314 65.0234 36.6536 65.1504 37.041 65.1504C37.5846 65.1504 38.0273 64.9307 38.3691 64.4912L39.0088 65.1016C38.7972 65.4173 38.514 65.6631 38.1592 65.8389C37.8076 66.0114 37.4121 66.0977 36.9727 66.0977ZM36.8311 61.5713C36.5055 61.5713 36.2419 61.6852 36.04 61.9131C35.8415 62.141 35.7145 62.4583 35.6592 62.8652H37.9199V62.7773C37.8939 62.3802 37.7881 62.0807 37.6025 61.8789C37.417 61.6738 37.1598 61.5713 36.8311 61.5713Z" fill="#575757"/>
<path d="M41.5039 59.4326V60.7168H42.4365V61.5957H41.5039V64.5449C41.5039 64.7467 41.543 64.8932 41.6211 64.9844C41.7025 65.0723 41.8457 65.1162 42.0508 65.1162C42.1875 65.1162 42.3258 65.0999 42.4658 65.0674V65.9854C42.1956 66.0602 41.9352 66.0977 41.6846 66.0977C40.7731 66.0977 40.3174 65.5947 40.3174 64.5889V61.5957H39.4482V60.7168H40.3174V59.4326H41.5039Z" fill="#575757"/>
<path d="M45.6738 66.0977C44.9219 66.0977 44.3115 65.8617 43.8428 65.3896C43.3773 64.9144 43.1445 64.2829 43.1445 63.4951V63.3486C43.1445 62.8213 43.2454 62.3509 43.4473 61.9375C43.6523 61.5208 43.9388 61.1969 44.3066 60.9658C44.6745 60.7347 45.0846 60.6191 45.5371 60.6191C46.2565 60.6191 46.8115 60.8486 47.2021 61.3076C47.596 61.7666 47.793 62.416 47.793 63.2559V63.7344H44.3408C44.3766 64.1706 44.5215 64.5156 44.7754 64.7695C45.0326 65.0234 45.3548 65.1504 45.7422 65.1504C46.2858 65.1504 46.7285 64.9307 47.0703 64.4912L47.71 65.1016C47.4984 65.4173 47.2152 65.6631 46.8604 65.8389C46.5088 66.0114 46.1133 66.0977 45.6738 66.0977ZM45.5322 61.5713C45.2067 61.5713 44.943 61.6852 44.7412 61.9131C44.5426 62.141 44.4157 62.4583 44.3604 62.8652H46.6211V62.7773C46.5951 62.3802 46.4893 62.0807 46.3037 61.8789C46.1182 61.6738 45.861 61.5713 45.5322 61.5713Z" fill="#575757"/>
<path d="M3.73535 75.3008L4.80957 71.7168H6.07422L3.97461 77.8008C3.65234 78.6895 3.10547 79.1338 2.33398 79.1338C2.16146 79.1338 1.97103 79.1045 1.7627 79.0459V78.1279L1.9873 78.1426C2.28678 78.1426 2.51139 78.0872 2.66113 77.9766C2.81413 77.8691 2.93457 77.6868 3.02246 77.4297L3.19336 76.9756L1.33789 71.7168H2.61719L3.73535 75.3008Z" fill="#575757"/>
<path d="M6.45996 74.3096C6.45996 73.792 6.5625 73.3265 6.76758 72.9131C6.97266 72.4964 7.26074 72.1774 7.63184 71.9561C8.00293 71.7314 8.42936 71.6191 8.91113 71.6191C9.62402 71.6191 10.2018 71.8486 10.6445 72.3076C11.0905 72.7666 11.3314 73.3753 11.3672 74.1338L11.3721 74.4121C11.3721 74.9329 11.2712 75.3984 11.0693 75.8086C10.8708 76.2188 10.5843 76.5361 10.21 76.7607C9.83887 76.9854 9.40918 77.0977 8.9209 77.0977C8.17546 77.0977 7.57812 76.8503 7.12891 76.3555C6.68294 75.8574 6.45996 75.195 6.45996 74.3682V74.3096ZM7.64648 74.4121C7.64648 74.9557 7.75879 75.3822 7.9834 75.6914C8.20801 75.9974 8.52051 76.1504 8.9209 76.1504C9.32129 76.1504 9.63216 75.9941 9.85352 75.6816C10.0781 75.3691 10.1904 74.9118 10.1904 74.3096C10.1904 73.7757 10.0749 73.3525 9.84375 73.04C9.61589 72.7275 9.30501 72.5713 8.91113 72.5713C8.52376 72.5713 8.21615 72.7259 7.98828 73.0352C7.76042 73.3411 7.64648 73.8001 7.64648 74.4121Z" fill="#575757"/>
<path d="M15.5762 76.4824C15.2279 76.8926 14.7331 77.0977 14.0918 77.0977C13.5189 77.0977 13.0843 76.93 12.7881 76.5947C12.4951 76.2594 12.3486 75.7744 12.3486 75.1396V71.7168H13.5352V75.125C13.5352 75.7956 13.8135 76.1309 14.3701 76.1309C14.9463 76.1309 15.3353 75.9242 15.5371 75.5107V71.7168H16.7236V77H15.6055L15.5762 76.4824Z" fill="#575757"/>
<path d="M20.6982 72.8008C20.542 72.7747 20.3809 72.7617 20.2148 72.7617C19.6712 72.7617 19.305 72.9701 19.1162 73.3867V77H17.9297V71.7168H19.0625L19.0918 72.3076C19.3783 71.8486 19.7754 71.6191 20.2832 71.6191C20.4525 71.6191 20.5924 71.6419 20.7031 71.6875L20.6982 72.8008Z" fill="#575757"/>
<path d="M28.5645 74.4121C28.5645 75.2292 28.3789 75.8818 28.0078 76.3701C27.6367 76.8551 27.1387 77.0977 26.5137 77.0977C25.9342 77.0977 25.4704 76.9072 25.1221 76.5264V79.0312H23.9355V71.7168H25.0293L25.0781 72.2539C25.4264 71.8307 25.9001 71.6191 26.499 71.6191C27.1436 71.6191 27.6481 71.86 28.0127 72.3418C28.3805 72.8203 28.5645 73.486 28.5645 74.3389V74.4121ZM27.3828 74.3096C27.3828 73.7822 27.277 73.3639 27.0654 73.0547C26.8571 72.7454 26.5576 72.5908 26.167 72.5908C25.682 72.5908 25.3337 72.791 25.1221 73.1914V75.5352C25.3369 75.9453 25.6885 76.1504 26.1768 76.1504C26.5544 76.1504 26.849 75.999 27.0605 75.6963C27.2754 75.3903 27.3828 74.9281 27.3828 74.3096Z" fill="#575757"/>
<path d="M32.3389 72.8008C32.1826 72.7747 32.0215 72.7617 31.8555 72.7617C31.3118 72.7617 30.9456 72.9701 30.7568 73.3867V77H29.5703V71.7168H30.7031L30.7324 72.3076C31.0189 71.8486 31.416 71.6191 31.9238 71.6191C32.0931 71.6191 32.2331 71.6419 32.3438 71.6875L32.3389 72.8008Z" fill="#575757"/>
<path d="M32.6904 74.3096C32.6904 73.792 32.793 73.3265 32.998 72.9131C33.2031 72.4964 33.4912 72.1774 33.8623 71.9561C34.2334 71.7314 34.6598 71.6191 35.1416 71.6191C35.8545 71.6191 36.4323 71.8486 36.875 72.3076C37.321 72.7666 37.5618 73.3753 37.5977 74.1338L37.6025 74.4121C37.6025 74.9329 37.5016 75.3984 37.2998 75.8086C37.1012 76.2188 36.8148 76.5361 36.4404 76.7607C36.0693 76.9854 35.6396 77.0977 35.1514 77.0977C34.4059 77.0977 33.8086 76.8503 33.3594 76.3555C32.9134 75.8574 32.6904 75.195 32.6904 74.3682V74.3096ZM33.877 74.4121C33.877 74.9557 33.9893 75.3822 34.2139 75.6914C34.4385 75.9974 34.751 76.1504 35.1514 76.1504C35.5518 76.1504 35.8626 75.9941 36.084 75.6816C36.3086 75.3691 36.4209 74.9118 36.4209 74.3096C36.4209 73.7757 36.3053 73.3525 36.0742 73.04C35.8464 72.7275 35.5355 72.5713 35.1416 72.5713C34.7542 72.5713 34.4466 72.7259 34.2188 73.0352C33.9909 73.3411 33.877 73.8001 33.877 74.4121Z" fill="#575757"/>
<path d="M38.9209 77V72.5957H38.1152V71.7168H38.9209V71.3555C38.9242 70.9421 39.012 70.5872 39.1846 70.291C39.3571 69.9948 39.6012 69.7718 39.917 69.6221C40.2327 69.4723 40.612 69.3975 41.0547 69.3975C41.3151 69.3975 41.5641 69.4251 41.8018 69.4805C42.0426 69.5358 42.2917 69.6058 42.5488 69.6904L42.3682 70.6719C41.9189 70.5156 41.5088 70.4375 41.1377 70.4375C40.7764 70.4375 40.5143 70.5173 40.3516 70.6768C40.1888 70.833 40.1074 71.069 40.1074 71.3848V71.7168H41.1475V72.5957H40.1074V77H38.9209ZM43.1104 77H41.9238V71.7168H43.1104V77Z" fill="#575757"/>
<path d="M45.6885 77H44.502V69.5H45.6885V77Z" fill="#575757"/>
<path d="M49.3115 77.0977C48.5596 77.0977 47.9492 76.8617 47.4805 76.3896C47.015 75.9144 46.7822 75.2829 46.7822 74.4951V74.3486C46.7822 73.8213 46.8831 73.3509 47.085 72.9375C47.29 72.5208 47.5765 72.1969 47.9443 71.9658C48.3122 71.7347 48.7223 71.6191 49.1748 71.6191C49.8942 71.6191 50.4492 71.8486 50.8398 72.3076C51.2337 72.7666 51.4307 73.416 51.4307 74.2559V74.7344H47.9785C48.0143 75.1706 48.1592 75.5156 48.4131 75.7695C48.6702 76.0234 48.9925 76.1504 49.3799 76.1504C49.9235 76.1504 50.3662 75.9307 50.708 75.4912L51.3477 76.1016C51.1361 76.4173 50.8529 76.6631 50.498 76.8389C50.1465 77.0114 49.751 77.0977 49.3115 77.0977ZM49.1699 72.5713C48.8444 72.5713 48.5807 72.6852 48.3789 72.9131C48.1803 73.141 48.0534 73.4583 47.998 73.8652H50.2588V73.7773C50.2327 73.3802 50.127 73.0807 49.9414 72.8789C49.7559 72.6738 49.4987 72.5713 49.1699 72.5713Z" fill="#575757"/>
<rect x="0.0136719" width="52" height="52" rx="15" fill="#8D05F8"/>
<path d="M34.9644 29.8946C34.3272 28.2925 33.2137 26.8645 31.7787 25.8255C31.0731 25.3145 30.3101 24.9058 29.5059 24.6035C30.8017 23.6159 31.6341 22.0926 31.6341 20.3862C31.6341 17.4163 29.1127 15 26.0137 15C22.9146 15 20.3932 17.4163 20.3932 20.3862C20.3932 22.0926 21.2256 23.6159 22.5217 24.6035C21.7175 24.9058 20.9543 25.3147 20.2486 25.8255C18.803 26.8722 17.6835 28.3137 17.0488 29.9304L14.0137 28.9954V38H15.8887V31.4605L19.5918 32.6013V38H21.4668V32.5629L25.123 31.3454V38H26.998V31.3567L30.6074 32.5243V38H32.4824V32.5546L36.1387 31.4188V38H38.0137V28.9474L34.9644 29.8946ZM22.2682 20.3862C22.2682 18.407 23.9484 16.7969 26.0137 16.7969C28.0789 16.7969 29.7591 18.407 29.7591 20.3862C29.7591 22.3654 28.0789 23.9756 26.0137 23.9756C23.9484 23.9756 22.2682 22.3654 22.2682 20.3862ZM26.0137 25.7725C29.1733 25.7725 32.0334 27.6676 33.1786 30.4494L31.5859 30.9443L26.0212 29.1441L20.4828 30.9883L18.8359 30.481C19.9725 27.682 22.8421 25.7725 26.0137 25.7725Z" fill="white"/>
</svg>
