<svg width="150" height="29" viewBox="0 0 150 29" fill="none" xmlns="http://www.w3.org/2000/svg">
<rect width="150" height="29" rx="14.5" fill="white"/>
<path d="M23.2861 10.5742H22.5558L18.5343 18.0619L17.4187 16.0527H16.7074L14 21.0891V22H29V20.8817L23.2861 10.5742ZM22.9314 12.3516L24.8707 15.8499L24.3263 16.8568L23.1492 15.0157L21.8732 17.7126L20.9077 16.1195L22.9314 12.3516ZM15.4707 20.8281L17.074 17.8459L17.8752 19.289L17.0486 20.8281H15.4707ZM18.3787 20.8281L20.2639 17.3182L22.0006 20.1836L23.3028 17.4313L24.4108 19.1644L25.5451 17.0666L27.6305 20.8281H18.3787ZM24.2246 8.72852C24.2246 8.40488 24.4869 8.14258 24.8105 8.14258C25.1342 8.14258 25.3965 8.40488 25.3965 8.72852C25.3965 9.05215 25.1342 9.31445 24.8105 9.31445C24.4869 9.31445 24.2246 9.05215 24.2246 8.72852ZM26.3926 11.6582C26.3926 11.3346 26.6549 11.0723 26.9785 11.0723C27.3022 11.0723 27.5645 11.3346 27.5645 11.6582C27.5645 11.9818 27.3022 12.2441 26.9785 12.2441C26.6549 12.2441 26.3926 11.9818 26.3926 11.6582ZM19.8301 10.4277C19.8301 10.1041 20.0924 9.8418 20.416 9.8418C20.7397 9.8418 21.002 10.1041 21.002 10.4277C21.002 10.7514 20.7397 11.0137 20.416 11.0137C20.0924 11.0137 19.8301 10.7514 19.8301 10.4277ZM17.5463 14.0926C18.2665 14.0926 18.9577 13.8804 19.5452 13.4792L19.8008 13.3047V12.3825H19.1611C18.5113 12.3825 17.5156 11.5599 17.5156 10.5463C17.5156 9.53269 18.5113 8.71009 19.1611 8.71009H19.8008V7.78804L19.5455 7.61352C18.9584 7.21217 18.267 7 17.5463 7C15.5908 7 14 8.59084 14 10.5463C14 12.5017 15.5908 14.0926 17.5463 14.0926ZM17.5418 8.17188C17.4464 8.24866 17.354 8.33152 17.2658 8.42021C16.6712 9.01736 16.3438 9.77245 16.3438 10.5463C16.3438 11.3201 16.6712 12.0751 17.2658 12.6724C17.354 12.7611 17.4464 12.8439 17.5419 12.9207C16.2346 12.9183 15.1719 11.8541 15.1719 10.5463C15.1719 9.23846 16.2346 8.17416 17.5418 8.17188Z" fill="#0BBE22"/>
<path d="M41.995 19H43.051L40.29 11.377H39.135L36.363 19H37.419L38.035 17.295H41.379L41.995 19ZM41.093 16.481H38.321L39.707 12.609L41.093 16.481ZM43.8851 15.964C43.8851 17.834 45.1281 19.099 46.7451 19.099C47.8451 19.099 48.6261 18.538 48.9891 17.867V19H50.0011V10.86H48.9891V14.05C48.5711 13.357 47.7021 12.873 46.7561 12.873C45.1281 12.873 43.8851 14.083 43.8851 15.964ZM48.9891 15.975C48.9891 17.394 48.0431 18.219 46.9431 18.219C45.8431 18.219 44.9081 17.383 44.9081 15.964C44.9081 14.545 45.8431 13.742 46.9431 13.742C48.0431 13.742 48.9891 14.578 48.9891 15.975ZM51.3187 15.964C51.3187 17.834 52.5617 19.099 54.1787 19.099C55.2787 19.099 56.0597 18.538 56.4227 17.867V19H57.4347V10.86H56.4227V14.05C56.0047 13.357 55.1357 12.873 54.1897 12.873C52.5617 12.873 51.3187 14.083 51.3187 15.964ZM56.4227 15.975C56.4227 17.394 55.4767 18.219 54.3767 18.219C53.2767 18.219 52.3417 17.383 52.3417 15.964C52.3417 14.545 53.2767 13.742 54.3767 13.742C55.4767 13.742 56.4227 14.578 56.4227 15.975ZM61.6849 15.964C61.6849 17.834 62.9279 19.099 64.5339 19.099C65.6449 19.099 66.4259 18.527 66.7889 17.878V19H67.8009V12.972H66.7889V14.072C66.4369 13.445 65.6669 12.873 64.5449 12.873C62.9279 12.873 61.6849 14.083 61.6849 15.964ZM66.7889 15.975C66.7889 17.394 65.8429 18.219 64.7429 18.219C63.6429 18.219 62.7079 17.383 62.7079 15.964C62.7079 14.545 63.6429 13.742 64.7429 13.742C65.8429 13.742 66.7889 14.578 66.7889 15.975ZM73.9035 19H74.8935V15.447C74.8935 13.72 73.8265 12.862 72.4295 12.862C71.6155 12.862 70.8895 13.203 70.4935 13.83V12.972H69.4925V19H70.4935V15.667C70.4935 14.369 71.1975 13.731 72.2205 13.731C73.2325 13.731 73.9035 14.358 73.9035 15.59V19ZM82.0243 13.72C83.0583 13.72 83.9383 14.369 83.9273 15.546H80.1213C80.2313 14.369 81.0453 13.72 82.0243 13.72ZM84.8403 17.141H83.7623C83.5423 17.79 82.9703 18.252 82.0683 18.252C81.0453 18.252 80.1873 17.581 80.1103 16.36H84.9283C84.9503 16.151 84.9613 15.975 84.9613 15.755C84.9613 14.105 83.8173 12.873 82.0683 12.873C80.3083 12.873 79.0873 14.072 79.0873 15.975C79.0873 17.889 80.3523 19.099 82.0683 19.099C83.5643 19.099 84.5323 18.241 84.8403 17.141ZM89.4285 19H90.5615L88.6145 15.953L90.5505 12.972H89.5055L88.1415 15.205L86.7115 12.972H85.5785L87.5255 16.008L85.5785 19H86.6235L87.9985 16.756L89.4285 19ZM92.5472 14.083V12.972H91.5462V21.86H92.5472V17.889C92.9212 18.505 93.7022 19.099 94.8022 19.099C96.4192 19.099 97.6622 17.834 97.6622 15.964C97.6622 14.083 96.4192 12.873 94.8022 12.873C93.7022 12.873 92.9102 13.445 92.5472 14.083ZM96.6392 15.964C96.6392 17.383 95.7042 18.219 94.5932 18.219C93.5042 18.219 92.5472 17.394 92.5472 15.975C92.5472 14.578 93.5042 13.742 94.5932 13.742C95.7042 13.742 96.6392 14.545 96.6392 15.964ZM101.543 13.72C102.577 13.72 103.457 14.369 103.446 15.546H99.6398C99.7498 14.369 100.564 13.72 101.543 13.72ZM104.359 17.141H103.281C103.061 17.79 102.489 18.252 101.587 18.252C100.564 18.252 99.7058 17.581 99.6288 16.36H104.447C104.469 16.151 104.48 15.975 104.48 15.755C104.48 14.105 103.336 12.873 101.587 12.873C99.8268 12.873 98.6058 14.072 98.6058 15.975C98.6058 17.889 99.8708 19.099 101.587 19.099C103.083 19.099 104.051 18.241 104.359 17.141ZM106.802 15.722C106.802 14.325 107.528 13.896 108.485 13.896H108.749V12.862C107.792 12.862 107.143 13.28 106.802 13.951V12.972H105.801V19H106.802V15.722ZM109.905 19H110.906V12.972H109.905V19ZM110.422 11.993C110.785 11.993 111.082 11.696 111.082 11.311C111.082 10.926 110.785 10.629 110.422 10.629C110.037 10.629 109.74 10.926 109.74 11.311C109.74 11.696 110.037 11.993 110.422 11.993ZM115.175 13.72C116.209 13.72 117.089 14.369 117.078 15.546H113.272C113.382 14.369 114.196 13.72 115.175 13.72ZM117.991 17.141H116.913C116.693 17.79 116.121 18.252 115.219 18.252C114.196 18.252 113.338 17.581 113.261 16.36H118.079C118.101 16.151 118.112 15.975 118.112 15.755C118.112 14.105 116.968 12.873 115.219 12.873C113.459 12.873 112.238 14.072 112.238 15.975C112.238 17.889 113.503 19.099 115.219 19.099C116.715 19.099 117.683 18.241 117.991 17.141ZM123.844 19H124.834V15.447C124.834 13.72 123.767 12.862 122.37 12.862C121.556 12.862 120.83 13.203 120.434 13.83V12.972H119.433V19H120.434V15.667C120.434 14.369 121.138 13.731 122.161 13.731C123.173 13.731 123.844 14.358 123.844 15.59V19ZM126.095 15.975C126.095 17.889 127.316 19.099 129.032 19.099C130.528 19.099 131.507 18.263 131.815 17.064H130.737C130.517 17.823 129.923 18.252 129.032 18.252C127.932 18.252 127.118 17.471 127.118 15.975C127.118 14.501 127.932 13.72 129.032 13.72C129.923 13.72 130.528 14.182 130.737 14.908H131.815C131.507 13.643 130.528 12.873 129.032 12.873C127.316 12.873 126.095 14.083 126.095 15.975ZM135.714 13.72C136.748 13.72 137.628 14.369 137.617 15.546H133.811C133.921 14.369 134.735 13.72 135.714 13.72ZM138.53 17.141H137.452C137.232 17.79 136.66 18.252 135.758 18.252C134.735 18.252 133.877 17.581 133.8 16.36H138.618C138.64 16.151 138.651 15.975 138.651 15.755C138.651 14.105 137.507 12.873 135.758 12.873C133.998 12.873 132.777 14.072 132.777 15.975C132.777 17.889 134.042 19.099 135.758 19.099C137.254 19.099 138.222 18.241 138.53 17.141Z" fill="#0BBE22"/>
</svg>
