<svg width="143" height="29" viewBox="0 0 143 29" fill="none" xmlns="http://www.w3.org/2000/svg">
<rect x="0.5" y="0.5" width="142" height="28" rx="14" fill="white" stroke="white"/>
<path d="M30.473 15.161C30.473 17.46 32.156 19.066 34.301 19.066C35.962 19.066 37.282 18.241 37.854 16.767H36.655C36.237 17.68 35.423 18.197 34.301 18.197C32.695 18.197 31.496 17.031 31.496 15.161C31.496 13.28 32.695 12.114 34.301 12.114C35.423 12.114 36.237 12.631 36.655 13.555H37.854C37.282 12.07 35.962 11.234 34.301 11.234C32.156 11.234 30.473 12.862 30.473 15.161ZM40.3451 15.722C40.3451 14.325 41.0711 13.896 42.0281 13.896H42.2921V12.862C41.3351 12.862 40.6861 13.28 40.3451 13.951V12.972H39.3441V19H40.3451V15.722ZM46.0106 13.72C47.0446 13.72 47.9246 14.369 47.9136 15.546H44.1076C44.2176 14.369 45.0316 13.72 46.0106 13.72ZM48.8266 17.141H47.7486C47.5286 17.79 46.9566 18.252 46.0546 18.252C45.0316 18.252 44.1736 17.581 44.0966 16.36H48.9146C48.9366 16.151 48.9476 15.975 48.9476 15.755C48.9476 14.105 47.8036 12.873 46.0546 12.873C44.2946 12.873 43.0736 14.072 43.0736 15.975C43.0736 17.889 44.3386 19.099 46.0546 19.099C47.5506 19.099 48.5186 18.241 48.8266 17.141ZM49.8949 15.964C49.8949 17.834 51.1379 19.099 52.7439 19.099C53.8549 19.099 54.6359 18.527 54.9989 17.878V19H56.0109V12.972H54.9989V14.072C54.6469 13.445 53.8769 12.873 52.7549 12.873C51.1379 12.873 49.8949 14.083 49.8949 15.964ZM54.9989 15.975C54.9989 17.394 54.0529 18.219 52.9529 18.219C51.8529 18.219 50.9179 17.383 50.9179 15.964C50.9179 14.545 51.8529 13.742 52.9529 13.742C54.0529 13.742 54.9989 14.578 54.9989 15.975ZM57.9225 17.35C57.9225 18.56 58.5275 19 59.5945 19H60.4965V18.153H59.7595C59.1435 18.153 58.9235 17.944 58.9235 17.35V13.797H60.4965V12.972H58.9235V11.454H57.9225V12.972H57.1415V13.797H57.9225V17.35ZM64.2723 13.72C65.3063 13.72 66.1863 14.369 66.1753 15.546H62.3693C62.4793 14.369 63.2933 13.72 64.2723 13.72ZM67.0883 17.141H66.0103C65.7903 17.79 65.2183 18.252 64.3163 18.252C63.2933 18.252 62.4353 17.581 62.3583 16.36H67.1763C67.1983 16.151 67.2093 15.975 67.2093 15.755C67.2093 14.105 66.0653 12.873 64.3163 12.873C62.5563 12.873 61.3353 14.072 61.3353 15.975C61.3353 17.889 62.6003 19.099 64.3163 19.099C65.8123 19.099 66.7803 18.241 67.0883 17.141ZM71.0892 15.964C71.0892 17.834 72.3322 19.099 73.9382 19.099C75.0492 19.099 75.8302 18.527 76.1932 17.878V19H77.2052V12.972H76.1932V14.072C75.8412 13.445 75.0712 12.873 73.9492 12.873C72.3322 12.873 71.0892 14.083 71.0892 15.964ZM76.1932 15.975C76.1932 17.394 75.2472 18.219 74.1472 18.219C73.0472 18.219 72.1122 17.383 72.1122 15.964C72.1122 14.545 73.0472 13.742 74.1472 13.742C75.2472 13.742 76.1932 14.578 76.1932 15.975ZM82.8304 14.083V12.972H81.8294V21.86H82.8304V17.889C83.2044 18.505 83.9854 19.099 85.0854 19.099C86.7024 19.099 87.9454 17.834 87.9454 15.964C87.9454 14.083 86.7024 12.873 85.0854 12.873C83.9854 12.873 83.1934 13.445 82.8304 14.083ZM86.9224 15.964C86.9224 17.383 85.9874 18.219 84.8764 18.219C83.7874 18.219 82.8304 17.394 82.8304 15.975C82.8304 14.578 83.7874 13.742 84.8764 13.742C85.9874 13.742 86.9224 14.545 86.9224 15.964ZM88.889 15.964C88.889 17.834 90.132 19.099 91.738 19.099C92.849 19.099 93.63 18.527 93.993 17.878V19H95.005V12.972H93.993V14.072C93.641 13.445 92.871 12.873 91.749 12.873C90.132 12.873 88.889 14.083 88.889 15.964ZM93.993 15.975C93.993 17.394 93.047 18.219 91.947 18.219C90.847 18.219 89.912 17.383 89.912 15.964C89.912 14.545 90.847 13.742 91.947 13.742C93.047 13.742 93.993 14.578 93.993 15.975ZM96.3226 15.975C96.3226 17.889 97.5436 19.099 99.2596 19.099C100.756 19.099 101.735 18.263 102.043 17.064H100.965C100.745 17.823 100.151 18.252 99.2596 18.252C98.1596 18.252 97.3456 17.471 97.3456 15.975C97.3456 14.501 98.1596 13.72 99.2596 13.72C100.151 13.72 100.756 14.182 100.965 14.908H102.043C101.735 13.643 100.756 12.873 99.2596 12.873C97.5436 12.873 96.3226 14.083 96.3226 15.975ZM103.378 19H104.379V16.338L106.744 19H108.108L105.259 15.975L108.097 12.972H106.7L104.379 15.645V10.86H103.378V19ZM108.665 15.964C108.665 17.834 109.908 19.099 111.514 19.099C112.625 19.099 113.406 18.527 113.769 17.878V19H114.781V12.972H113.769V14.072C113.417 13.445 112.647 12.873 111.525 12.873C109.908 12.873 108.665 14.083 108.665 15.964ZM113.769 15.975C113.769 17.394 112.823 18.219 111.723 18.219C110.623 18.219 109.688 17.383 109.688 15.964C109.688 14.545 110.623 13.742 111.723 13.742C112.823 13.742 113.769 14.578 113.769 15.975ZM116.099 15.964C116.099 17.834 117.342 19.099 118.959 19.099C120.059 19.099 120.84 18.516 121.203 17.867V19.132C121.203 20.419 120.4 21.101 119.333 21.101C118.343 21.101 117.628 20.606 117.408 19.88H116.418C116.616 21.167 117.749 21.97 119.333 21.97C121.104 21.97 122.215 20.793 122.215 19.132V12.972H121.203V14.072C120.851 13.423 120.059 12.873 118.959 12.873C117.342 12.873 116.099 14.083 116.099 15.964ZM121.203 15.975C121.203 17.394 120.257 18.219 119.157 18.219C118.057 18.219 117.122 17.383 117.122 15.964C117.122 14.545 118.057 13.742 119.157 13.742C120.257 13.742 121.203 14.578 121.203 15.975ZM126.47 13.72C127.504 13.72 128.384 14.369 128.373 15.546H124.567C124.677 14.369 125.491 13.72 126.47 13.72ZM129.286 17.141H128.208C127.988 17.79 127.416 18.252 126.514 18.252C125.491 18.252 124.633 17.581 124.556 16.36H129.374C129.396 16.151 129.407 15.975 129.407 15.755C129.407 14.105 128.263 12.873 126.514 12.873C124.754 12.873 123.533 14.072 123.533 15.975C123.533 17.889 124.798 19.099 126.514 19.099C128.01 19.099 128.978 18.241 129.286 17.141Z" fill="#0BBE22"/>
<path d="M23.9878 17.5688L23.6288 12.9379C23.6147 12.7559 23.5832 12.5761 23.5349 12.4013C23.6722 11.9553 23.7422 11.4709 23.7422 10.9531V10.3242H22.3478V8H21.254V10.3242H20.1603V10.1875C20.1603 8.98128 19.1789 8 17.9728 8C16.7665 8 15.7852 8.98128 15.7852 10.1875V10.3242H14.6915V8H13.5977V10.3242H12.2577V10.9531C12.2577 11.4709 12.3278 11.9553 12.4651 12.4013C12.4168 12.5761 12.3853 12.7559 12.3712 12.9379L12.0122 17.5688C11.9239 18.7079 12.3183 19.8421 13.0943 20.6806C13.8704 21.519 14.9708 22 16.1132 22H19.8867C21.0292 22 22.1296 21.519 22.9056 20.6806C23.6817 19.8421 24.0761 18.7079 23.9878 17.5688ZM16.879 10.1875C16.879 9.58444 17.3696 9.09375 17.9728 9.09375C18.5758 9.09375 19.0665 9.58444 19.0665 10.1875V10.3242H16.879V10.1875ZM22.6242 11.418C22.3608 13.8598 20.0126 14.3962 18.547 14.4902V13.6602H17.4532V14.4903C15.9876 14.3963 13.6391 13.8599 13.3757 11.418H22.6242ZM16.1132 20.9062C15.8043 20.9062 15.5039 20.8607 15.2188 20.7731L15.3476 19.2056V19.1834C15.3477 18.882 15.5931 18.6367 15.8945 18.6367H20.1328C20.4344 18.6367 20.6797 18.8821 20.6797 19.1836V19.206L20.8078 20.765C20.5149 20.8581 20.2052 20.9062 19.8867 20.9062H16.1132ZM22.1029 19.9377C22.0246 20.0223 21.9424 20.1014 21.8569 20.1756L21.7733 19.1589C21.7601 18.2657 21.0292 17.543 20.1328 17.543H15.8945C14.9984 17.543 14.2676 18.2653 14.2541 19.1583L14.1686 20.1974C14.0739 20.1171 13.9831 20.0306 13.8971 19.9377C13.319 19.313 13.0368 18.5018 13.1026 17.6533L13.3869 13.9872C13.5727 14.183 13.7802 14.3631 14.0099 14.526C14.8884 15.149 16.0707 15.5117 17.4532 15.5867V16.4492H18.547V15.5867C19.9292 15.5116 21.1115 15.1489 21.99 14.526C22.2197 14.3631 22.4273 14.183 22.6131 13.9872L22.8973 17.6533C22.963 18.5018 22.6809 19.313 22.1029 19.9377Z" fill="#0BBE22"/>
</svg>
