<svg xmlns="http://www.w3.org/2000/svg" xmlns:xlink="http://www.w3.org/1999/xlink" width="317" height="45" viewBox="0 0 317 45">
  <defs>
    <linearGradient id="linear-gradient" y1="0.5" x2="1" y2="0.5" gradientUnits="objectBoundingBox">
      <stop offset="0" stop-color="#fff"/>
      <stop offset="0.001" stop-color="#287ffc"/>
      <stop offset="1" stop-color="#6efc06"/>
    </linearGradient>
  </defs>
  <g id="Group_8" data-name="Group 8" transform="translate(-244 -332)">
    <rect id="Rectangle_6" data-name="Rectangle 6" width="317" height="45" rx="6" transform="translate(244 332)" fill="url(#linear-gradient)"/>
    <path id="Path_6" data-name="Path 6" d="M.891,10V.758H3.62A4.264,4.264,0,0,1,5.791,1.3,3.716,3.716,0,0,1,7.264,2.853a4.916,4.916,0,0,1,.521,2.3v.463a4.872,4.872,0,0,1-.527,2.311A3.653,3.653,0,0,1,5.766,9.46,4.462,4.462,0,0,1,3.55,10ZM2.5,2.053V8.718H3.544A2.407,2.407,0,0,0,5.48,7.931a3.444,3.444,0,0,0,.692-2.272V5.144a3.532,3.532,0,0,0-.654-2.3,2.318,2.318,0,0,0-1.9-.793ZM16.76,5.62a5.693,5.693,0,0,1-.47,2.387,3.569,3.569,0,0,1-1.346,1.574,3.693,3.693,0,0,1-2.006.546,3.734,3.734,0,0,1-2.006-.546A3.655,3.655,0,0,1,9.574,8.013a5.525,5.525,0,0,1-.482-2.342V5.15a5.654,5.654,0,0,1,.476-2.387A3.609,3.609,0,0,1,10.92,1.183,3.681,3.681,0,0,1,12.926.631a3.681,3.681,0,0,1,2,.546,3.527,3.527,0,0,1,1.352,1.562,5.589,5.589,0,0,1,.482,2.368Zm-1.606-.482a4.023,4.023,0,0,0-.584-2.355,1.892,1.892,0,0,0-1.644-.819,1.9,1.9,0,0,0-1.631.819,3.962,3.962,0,0,0-.6,2.3V5.62a4.026,4.026,0,0,0,.59,2.355,1.919,1.919,0,0,0,1.65.832,1.881,1.881,0,0,0,1.638-.812,4.078,4.078,0,0,0,.578-2.374ZM25.691,10H24.085l-4.12-6.557V10H18.359V.758h1.606L24.1,7.34V.758h1.593Zm7.3-4.126h-3.8V8.718h4.437V10H27.589V.758h6V2.053H29.195V4.6h3.8Z" transform="translate(385.109 349.369)" fill="#fff"/>
  </g>
</svg>
