<svg width="120" height="29" viewBox="0 0 120 29" fill="none" xmlns="http://www.w3.org/2000/svg">
<rect width="120" height="29" rx="14.5" fill="white"/>
<path d="M39.972 10.322H35.847V18H39.972V17.175H36.848V14.535H39.642V13.71H36.848V11.147H39.972V10.322ZM41.1126 14.964C41.1126 16.834 42.3556 18.099 43.9726 18.099C45.0726 18.099 45.8536 17.538 46.2166 16.867V18H47.2286V9.86H46.2166V13.05C45.7986 12.357 44.9296 11.873 43.9836 11.873C42.3556 11.873 41.1126 13.083 41.1126 14.964ZM46.2166 14.975C46.2166 16.394 45.2706 17.219 44.1706 17.219C43.0706 17.219 42.1356 16.383 42.1356 14.964C42.1356 13.545 43.0706 12.742 44.1706 12.742C45.2706 12.742 46.2166 13.578 46.2166 14.975ZM48.9202 18H49.9212V11.972H48.9202V18ZM49.4372 10.993C49.8002 10.993 50.0972 10.696 50.0972 10.311C50.0972 9.926 49.8002 9.629 49.4372 9.629C49.0522 9.629 48.7552 9.926 48.7552 10.311C48.7552 10.696 49.0522 10.993 49.4372 10.993ZM51.8473 16.35C51.8473 17.56 52.4523 18 53.5193 18H54.4213V17.153H53.6843C53.0683 17.153 52.8483 16.944 52.8483 16.35V12.797H54.4213V11.972H52.8483V10.454H51.8473V11.972H51.0663V12.797H51.8473V16.35ZM59.5677 13.083V11.972H58.5667V20.86H59.5677V16.889C59.9417 17.505 60.7227 18.099 61.8227 18.099C63.4397 18.099 64.6827 16.834 64.6827 14.964C64.6827 13.083 63.4397 11.873 61.8227 11.873C60.7227 11.873 59.9307 12.445 59.5677 13.083ZM63.6597 14.964C63.6597 16.383 62.7247 17.219 61.6137 17.219C60.5247 17.219 59.5677 16.394 59.5677 14.975C59.5677 13.578 60.5247 12.742 61.6137 12.742C62.7247 12.742 63.6597 13.545 63.6597 14.964ZM65.6263 14.964C65.6263 16.834 66.8693 18.099 68.4753 18.099C69.5863 18.099 70.3673 17.527 70.7303 16.878V18H71.7423V11.972H70.7303V13.072C70.3783 12.445 69.6083 11.873 68.4863 11.873C66.8693 11.873 65.6263 13.083 65.6263 14.964ZM70.7303 14.975C70.7303 16.394 69.7843 17.219 68.6843 17.219C67.5843 17.219 66.6493 16.383 66.6493 14.964C66.6493 13.545 67.5843 12.742 68.6843 12.742C69.7843 12.742 70.7303 13.578 70.7303 14.975ZM73.0599 14.975C73.0599 16.889 74.2809 18.099 75.9969 18.099C77.4929 18.099 78.4719 17.263 78.7799 16.064H77.7019C77.4819 16.823 76.8879 17.252 75.9969 17.252C74.8969 17.252 74.0829 16.471 74.0829 14.975C74.0829 13.501 74.8969 12.72 75.9969 12.72C76.8879 12.72 77.4929 13.182 77.7019 13.908H78.7799C78.4719 12.643 77.4929 11.873 75.9969 11.873C74.2809 11.873 73.0599 13.083 73.0599 14.975ZM80.1156 18H81.1166V15.338L83.4816 18H84.8456L81.9966 14.975L84.8346 11.972H83.4376L81.1166 14.645V9.86H80.1156V18ZM85.4027 14.964C85.4027 16.834 86.6457 18.099 88.2517 18.099C89.3627 18.099 90.1437 17.527 90.5067 16.878V18H91.5187V11.972H90.5067V13.072C90.1547 12.445 89.3847 11.873 88.2627 11.873C86.6457 11.873 85.4027 13.083 85.4027 14.964ZM90.5067 14.975C90.5067 16.394 89.5607 17.219 88.4607 17.219C87.3607 17.219 86.4257 16.383 86.4257 14.964C86.4257 13.545 87.3607 12.742 88.4607 12.742C89.5607 12.742 90.5067 13.578 90.5067 14.975ZM92.8363 14.964C92.8363 16.834 94.0793 18.099 95.6963 18.099C96.7963 18.099 97.5773 17.516 97.9403 16.867V18.132C97.9403 19.419 97.1373 20.101 96.0703 20.101C95.0803 20.101 94.3653 19.606 94.1453 18.88H93.1553C93.3533 20.167 94.4863 20.97 96.0703 20.97C97.8413 20.97 98.9523 19.793 98.9523 18.132V11.972H97.9403V13.072C97.5883 12.423 96.7963 11.873 95.6963 11.873C94.0793 11.873 92.8363 13.083 92.8363 14.964ZM97.9403 14.975C97.9403 16.394 96.9943 17.219 95.8943 17.219C94.7943 17.219 93.8593 16.383 93.8593 14.964C93.8593 13.545 94.7943 12.742 95.8943 12.742C96.9943 12.742 97.9403 13.578 97.9403 14.975ZM103.207 12.72C104.241 12.72 105.121 13.369 105.11 14.546H101.304C101.414 13.369 102.228 12.72 103.207 12.72ZM106.023 16.141H104.945C104.725 16.79 104.153 17.252 103.251 17.252C102.228 17.252 101.37 16.581 101.293 15.36H106.111C106.133 15.151 106.144 14.975 106.144 14.755C106.144 13.105 105 11.873 103.251 11.873C101.491 11.873 100.27 13.072 100.27 14.975C100.27 16.889 101.535 18.099 103.251 18.099C104.747 18.099 105.715 17.241 106.023 16.141Z" fill="#0BBE22"/>
<path d="M26.6 8H15.4C14.63 8 14.007 8.63 14.007 9.4L14 22L16.8 19.2H26.6C27.37 19.2 28 18.57 28 17.8V9.4C28 8.63 27.37 8 26.6 8ZM26.6 17.8H16.219L15.806 18.213L15.4 18.619V9.4H26.6V17.8ZM19.95 16.4H25.2V15H21.35L19.95 16.4ZM22.652 12.291C22.792 12.151 22.792 11.934 22.652 11.794L21.413 10.555C21.273 10.415 21.056 10.415 20.916 10.555L16.8 14.671V16.4H18.529L22.652 12.291Z" fill="#0BBE22"/>
</svg>
