<svg width="108" height="29" viewBox="0 0 108 29" fill="none" xmlns="http://www.w3.org/2000/svg">
<rect x="0.5" y="0.5" width="107" height="28" rx="14" stroke="#E8E8E8"/>
<path d="M36.848 11.147V13.71H39.642V14.535H36.848V17.175H39.972V18H35.847V10.322H39.972V11.147H36.848ZM41.1126 14.964C41.1126 14.348 41.2373 13.809 41.4866 13.347C41.736 12.8777 42.077 12.5147 42.5096 12.258C42.9496 12.0013 43.441 11.873 43.9836 11.873C44.453 11.873 44.8893 11.983 45.2926 12.203C45.696 12.4157 46.004 12.698 46.2166 13.05V9.86H47.2286V18H46.2166V16.867C46.0186 17.2263 45.7253 17.5233 45.3366 17.758C44.948 17.9853 44.4933 18.099 43.9726 18.099C43.4373 18.099 42.9496 17.967 42.5096 17.703C42.077 17.439 41.736 17.0687 41.4866 16.592C41.2373 16.1153 41.1126 15.5727 41.1126 14.964ZM46.2166 14.975C46.2166 14.5203 46.125 14.1243 45.9416 13.787C45.7583 13.4497 45.509 13.193 45.1936 13.017C44.8856 12.8337 44.5446 12.742 44.1706 12.742C43.7966 12.742 43.4556 12.83 43.1476 13.006C42.8396 13.182 42.594 13.4387 42.4106 13.776C42.2273 14.1133 42.1356 14.5093 42.1356 14.964C42.1356 15.426 42.2273 15.8293 42.4106 16.174C42.594 16.5113 42.8396 16.7717 43.1476 16.955C43.4556 17.131 43.7966 17.219 44.1706 17.219C44.5446 17.219 44.8856 17.131 45.1936 16.955C45.509 16.7717 45.7583 16.5113 45.9416 16.174C46.125 15.8293 46.2166 15.4297 46.2166 14.975ZM49.4372 10.993C49.2466 10.993 49.0852 10.927 48.9532 10.795C48.8212 10.663 48.7552 10.5017 48.7552 10.311C48.7552 10.1203 48.8212 9.959 48.9532 9.827C49.0852 9.695 49.2466 9.629 49.4372 9.629C49.6206 9.629 49.7746 9.695 49.8992 9.827C50.0312 9.959 50.0972 10.1203 50.0972 10.311C50.0972 10.5017 50.0312 10.663 49.8992 10.795C49.7746 10.927 49.6206 10.993 49.4372 10.993ZM49.9212 11.972V18H48.9202V11.972H49.9212ZM52.8483 12.797V16.35C52.8483 16.6433 52.9106 16.8523 53.0353 16.977C53.1599 17.0943 53.3763 17.153 53.6843 17.153H54.4213V18H53.5193C52.9619 18 52.5439 17.8717 52.2653 17.615C51.9866 17.3583 51.8473 16.9367 51.8473 16.35V12.797H51.0663V11.972H51.8473V10.454H52.8483V11.972H54.4213V12.797H52.8483ZM58.1927 14.964C58.1927 14.348 58.3174 13.809 58.5667 13.347C58.8161 12.8777 59.1571 12.5147 59.5897 12.258C60.0297 12.0013 60.5211 11.873 61.0637 11.873C61.5331 11.873 61.9694 11.983 62.3727 12.203C62.7761 12.4157 63.0841 12.698 63.2967 13.05V9.86H64.3087V18H63.2967V16.867C63.0987 17.2263 62.8054 17.5233 62.4167 17.758C62.0281 17.9853 61.5734 18.099 61.0527 18.099C60.5174 18.099 60.0297 17.967 59.5897 17.703C59.1571 17.439 58.8161 17.0687 58.5667 16.592C58.3174 16.1153 58.1927 15.5727 58.1927 14.964ZM63.2967 14.975C63.2967 14.5203 63.2051 14.1243 63.0217 13.787C62.8384 13.4497 62.5891 13.193 62.2737 13.017C61.9657 12.8337 61.6247 12.742 61.2507 12.742C60.8767 12.742 60.5357 12.83 60.2277 13.006C59.9197 13.182 59.6741 13.4387 59.4907 13.776C59.3074 14.1133 59.2157 14.5093 59.2157 14.964C59.2157 15.426 59.3074 15.8293 59.4907 16.174C59.6741 16.5113 59.9197 16.7717 60.2277 16.955C60.5357 17.131 60.8767 17.219 61.2507 17.219C61.6247 17.219 61.9657 17.131 62.2737 16.955C62.5891 16.7717 62.8384 16.5113 63.0217 16.174C63.2051 15.8293 63.2967 15.4297 63.2967 14.975ZM71.5003 14.755C71.5003 14.9457 71.4893 15.1473 71.4673 15.36H66.6493C66.686 15.954 66.8877 16.4197 67.2543 16.757C67.6283 17.087 68.0793 17.252 68.6073 17.252C69.04 17.252 69.3993 17.153 69.6853 16.955C69.9787 16.7497 70.184 16.4783 70.3013 16.141H71.3793C71.218 16.7203 70.8953 17.1933 70.4113 17.56C69.9273 17.9193 69.326 18.099 68.6073 18.099C68.0353 18.099 67.522 17.9707 67.0673 17.714C66.62 17.4573 66.268 17.0943 66.0113 16.625C65.7547 16.1483 65.6263 15.5983 65.6263 14.975C65.6263 14.3517 65.751 13.8053 66.0003 13.336C66.2497 12.8667 66.598 12.5073 67.0453 12.258C67.5 12.0013 68.0207 11.873 68.6073 11.873C69.1793 11.873 69.6853 11.9977 70.1253 12.247C70.5653 12.4963 70.9027 12.841 71.1373 13.281C71.3793 13.7137 71.5003 14.205 71.5003 14.755ZM70.4663 14.546C70.4663 14.1647 70.382 13.8383 70.2133 13.567C70.0447 13.2883 69.8137 13.0793 69.5203 12.94C69.2343 12.7933 68.9153 12.72 68.5633 12.72C68.0573 12.72 67.6247 12.8813 67.2653 13.204C66.9133 13.5267 66.7117 13.974 66.6603 14.546H70.4663ZM74.0426 12.797V16.35C74.0426 16.6433 74.1049 16.8523 74.2296 16.977C74.3543 17.0943 74.5706 17.153 74.8786 17.153H75.6156V18H74.7136C74.1563 18 73.7383 17.8717 73.4596 17.615C73.1809 17.3583 73.0416 16.9367 73.0416 16.35V12.797H72.2606V11.972H73.0416V10.454H74.0426V11.972H75.6156V12.797H74.0426ZM76.4544 14.964C76.4544 14.348 76.5791 13.809 76.8284 13.347C77.0778 12.8777 77.4188 12.5147 77.8514 12.258C78.2914 12.0013 78.7791 11.873 79.3144 11.873C79.8424 11.873 80.3008 11.9867 80.6894 12.214C81.0781 12.4413 81.3678 12.7273 81.5584 13.072V11.972H82.5704V18H81.5584V16.878C81.3604 17.23 81.0634 17.5233 80.6674 17.758C80.2788 17.9853 79.8241 18.099 79.3034 18.099C78.7681 18.099 78.2841 17.967 77.8514 17.703C77.4188 17.439 77.0778 17.0687 76.8284 16.592C76.5791 16.1153 76.4544 15.5727 76.4544 14.964ZM81.5584 14.975C81.5584 14.5203 81.4668 14.1243 81.2834 13.787C81.1001 13.4497 80.8508 13.193 80.5354 13.017C80.2274 12.8337 79.8864 12.742 79.5124 12.742C79.1384 12.742 78.7974 12.83 78.4894 13.006C78.1814 13.182 77.9358 13.4387 77.7524 13.776C77.5691 14.1133 77.4774 14.5093 77.4774 14.964C77.4774 15.426 77.5691 15.8293 77.7524 16.174C77.9358 16.5113 78.1814 16.7717 78.4894 16.955C78.7974 17.131 79.1384 17.219 79.5124 17.219C79.8864 17.219 80.2274 17.131 80.5354 16.955C80.8508 16.7717 81.1001 16.5113 81.2834 16.174C81.4668 15.8293 81.5584 15.4297 81.5584 14.975ZM84.779 10.993C84.5884 10.993 84.427 10.927 84.295 10.795C84.163 10.663 84.097 10.5017 84.097 10.311C84.097 10.1203 84.163 9.959 84.295 9.827C84.427 9.695 84.5884 9.629 84.779 9.629C84.9624 9.629 85.1164 9.695 85.241 9.827C85.373 9.959 85.439 10.1203 85.439 10.311C85.439 10.5017 85.373 10.663 85.241 10.795C85.1164 10.927 84.9624 10.993 84.779 10.993ZM85.263 11.972V18H84.262V11.972H85.263ZM87.9701 9.86V18H86.9691V9.86H87.9701ZM91.8101 18.099C91.3481 18.099 90.9338 18.022 90.5671 17.868C90.2004 17.7067 89.9108 17.4867 89.6981 17.208C89.4854 16.922 89.3681 16.5957 89.3461 16.229H90.3801C90.4094 16.5297 90.5488 16.7753 90.7981 16.966C91.0548 17.1567 91.3884 17.252 91.7991 17.252C92.1804 17.252 92.4811 17.1677 92.7011 16.999C92.9211 16.8303 93.0311 16.6177 93.0311 16.361C93.0311 16.097 92.9138 15.9027 92.6791 15.778C92.4444 15.646 92.0814 15.5177 91.5901 15.393C91.1428 15.2757 90.7761 15.1583 90.4901 15.041C90.2114 14.9163 89.9694 14.7367 89.7641 14.502C89.5661 14.26 89.4671 13.9447 89.4671 13.556C89.4671 13.248 89.5588 12.9657 89.7421 12.709C89.9254 12.4523 90.1858 12.2507 90.5231 12.104C90.8604 11.95 91.2454 11.873 91.6781 11.873C92.3454 11.873 92.8844 12.0417 93.2951 12.379C93.7058 12.7163 93.9258 13.1783 93.9551 13.765H92.9541C92.9321 13.4497 92.8038 13.1967 92.5691 13.006C92.3418 12.8153 92.0338 12.72 91.6451 12.72C91.2858 12.72 90.9998 12.797 90.7871 12.951C90.5744 13.105 90.4681 13.3067 90.4681 13.556C90.4681 13.754 90.5304 13.919 90.6551 14.051C90.7871 14.1757 90.9484 14.2783 91.1391 14.359C91.3371 14.4323 91.6084 14.5167 91.9531 14.612C92.3858 14.7293 92.7378 14.8467 93.0091 14.964C93.2804 15.074 93.5114 15.2427 93.7021 15.47C93.9001 15.6973 94.0028 15.9943 94.0101 16.361C94.0101 16.691 93.9184 16.988 93.7351 17.252C93.5518 17.516 93.2914 17.725 92.9541 17.879C92.6241 18.0257 92.2428 18.099 91.8101 18.099Z" fill="black"/>
<path d="M26.6 8H15.4C14.63 8 14.007 8.63 14.007 9.4L14 22L16.8 19.2H26.6C27.37 19.2 28 18.57 28 17.8V9.4C28 8.63 27.37 8 26.6 8ZM26.6 17.8H16.219L15.806 18.213L15.4 18.619V9.4H26.6V17.8ZM19.95 16.4H25.2V15H21.35L19.95 16.4ZM22.652 12.291C22.792 12.151 22.792 11.934 22.652 11.794L21.413 10.555C21.273 10.415 21.056 10.415 20.916 10.555L16.8 14.671V16.4H18.529L22.652 12.291Z" fill="#0BBE22"/>
</svg>
