<svg width="54" height="78" viewBox="0 0 54 78" fill="none" xmlns="http://www.w3.org/2000/svg">
<path d="M4.15527 62.8262H1.23535V65.0137H4.64844V66H0V58.8906H4.61426V59.8867H1.23535V61.8496H4.15527V62.8262Z" fill="#575757"/>
<path d="M7.43652 62.4551L8.44238 60.7168H9.76074L8.14453 63.3193L9.81445 66H8.50586L7.45117 64.1934L6.40137 66H5.08301L6.75293 63.3193L5.1416 60.7168H6.4502L7.43652 62.4551Z" fill="#575757"/>
<path d="M15.1953 63.4121C15.1953 64.2292 15.0098 64.8818 14.6387 65.3701C14.2676 65.8551 13.7695 66.0977 13.1445 66.0977C12.5651 66.0977 12.1012 65.9072 11.7529 65.5264V68.0312H10.5664V60.7168H11.6602L11.709 61.2539C12.0573 60.8307 12.5309 60.6191 13.1299 60.6191C13.7744 60.6191 14.279 60.86 14.6436 61.3418C15.0114 61.8203 15.1953 62.486 15.1953 63.3389V63.4121ZM14.0137 63.3096C14.0137 62.7822 13.9079 62.3639 13.6963 62.0547C13.488 61.7454 13.1885 61.5908 12.7979 61.5908C12.3128 61.5908 11.9645 61.791 11.7529 62.1914V64.5352C11.9678 64.9453 12.3193 65.1504 12.8076 65.1504C13.1852 65.1504 13.4798 64.999 13.6914 64.6963C13.9062 64.3903 14.0137 63.9281 14.0137 63.3096Z" fill="#575757"/>
<path d="M18.5303 66.0977C17.7783 66.0977 17.168 65.8617 16.6992 65.3896C16.2337 64.9144 16.001 64.2829 16.001 63.4951V63.3486C16.001 62.8213 16.1019 62.3509 16.3037 61.9375C16.5088 61.5208 16.7952 61.1969 17.1631 60.9658C17.5309 60.7347 17.9411 60.6191 18.3936 60.6191C19.113 60.6191 19.668 60.8486 20.0586 61.3076C20.4525 61.7666 20.6494 62.416 20.6494 63.2559V63.7344H17.1973C17.2331 64.1706 17.3779 64.5156 17.6318 64.7695C17.889 65.0234 18.2113 65.1504 18.5986 65.1504C19.1423 65.1504 19.585 64.9307 19.9268 64.4912L20.5664 65.1016C20.3548 65.4173 20.0716 65.6631 19.7168 65.8389C19.3652 66.0114 18.9697 66.0977 18.5303 66.0977ZM18.3887 61.5713C18.0632 61.5713 17.7995 61.6852 17.5977 61.9131C17.3991 62.141 17.2721 62.4583 17.2168 62.8652H19.4775V62.7773C19.4515 62.3802 19.3457 62.0807 19.1602 61.8789C18.9746 61.6738 18.7174 61.5713 18.3887 61.5713Z" fill="#575757"/>
<path d="M24.3408 61.8008C24.1846 61.7747 24.0234 61.7617 23.8574 61.7617C23.3138 61.7617 22.9476 61.9701 22.7588 62.3867V66H21.5723V60.7168H22.7051L22.7344 61.3076C23.0208 60.8486 23.418 60.6191 23.9258 60.6191C24.0951 60.6191 24.235 60.6419 24.3457 60.6875L24.3408 61.8008Z" fill="#575757"/>
<path d="M26.3525 66H25.166V60.7168H26.3525V66ZM25.0928 59.3447C25.0928 59.1624 25.1497 59.0111 25.2637 58.8906C25.3809 58.7702 25.5469 58.71 25.7617 58.71C25.9766 58.71 26.1426 58.7702 26.2598 58.8906C26.377 59.0111 26.4355 59.1624 26.4355 59.3447C26.4355 59.5238 26.377 59.6735 26.2598 59.7939C26.1426 59.9111 25.9766 59.9697 25.7617 59.9697C25.5469 59.9697 25.3809 59.9111 25.2637 59.7939C25.1497 59.6735 25.0928 59.5238 25.0928 59.3447Z" fill="#575757"/>
<path d="M29.9756 66.0977C29.2236 66.0977 28.6133 65.8617 28.1445 65.3896C27.679 64.9144 27.4463 64.2829 27.4463 63.4951V63.3486C27.4463 62.8213 27.5472 62.3509 27.749 61.9375C27.9541 61.5208 28.2406 61.1969 28.6084 60.9658C28.9762 60.7347 29.3864 60.6191 29.8389 60.6191C30.5583 60.6191 31.1133 60.8486 31.5039 61.3076C31.8978 61.7666 32.0947 62.416 32.0947 63.2559V63.7344H28.6426C28.6784 64.1706 28.8232 64.5156 29.0771 64.7695C29.3343 65.0234 29.6566 65.1504 30.0439 65.1504C30.5876 65.1504 31.0303 64.9307 31.3721 64.4912L32.0117 65.1016C31.8001 65.4173 31.5169 65.6631 31.1621 65.8389C30.8105 66.0114 30.415 66.0977 29.9756 66.0977ZM29.834 61.5713C29.5085 61.5713 29.2448 61.6852 29.043 61.9131C28.8444 62.141 28.7174 62.4583 28.6621 62.8652H30.9229V62.7773C30.8968 62.3802 30.791 62.0807 30.6055 61.8789C30.4199 61.6738 30.1628 61.5713 29.834 61.5713Z" fill="#575757"/>
<path d="M34.1211 60.7168L34.1553 61.3271C34.5459 60.8551 35.0586 60.6191 35.6934 60.6191C36.7936 60.6191 37.3535 61.249 37.373 62.5088V66H36.1865V62.5771C36.1865 62.2419 36.1133 61.9945 35.9668 61.835C35.8236 61.6722 35.5876 61.5908 35.2588 61.5908C34.7803 61.5908 34.4238 61.8073 34.1895 62.2402V66H33.0029V60.7168H34.1211Z" fill="#575757"/>
<path d="M40.7568 65.1504C41.0531 65.1504 41.2988 65.0641 41.4941 64.8916C41.6895 64.7191 41.7936 64.5059 41.8066 64.252H42.9248C42.9118 64.5807 42.8092 64.8883 42.6172 65.1748C42.4251 65.458 42.1647 65.6826 41.8359 65.8486C41.5072 66.0146 41.1523 66.0977 40.7715 66.0977C40.0326 66.0977 39.4466 65.8584 39.0137 65.3799C38.5807 64.9014 38.3643 64.2406 38.3643 63.3975V63.2754C38.3643 62.4714 38.5791 61.8285 39.0088 61.3467C39.4385 60.8617 40.0244 60.6191 40.7666 60.6191C41.3949 60.6191 41.9059 60.8031 42.2998 61.1709C42.6969 61.5355 42.9053 62.0156 42.9248 62.6113H41.8066C41.7936 62.3086 41.6895 62.0596 41.4941 61.8643C41.3021 61.6689 41.0563 61.5713 40.7568 61.5713C40.3727 61.5713 40.0765 61.7113 39.8682 61.9912C39.6598 62.2679 39.554 62.6895 39.5508 63.2559V63.4463C39.5508 64.0192 39.6533 64.4473 39.8584 64.7305C40.0667 65.0104 40.3662 65.1504 40.7568 65.1504Z" fill="#575757"/>
<path d="M46.1475 66.0977C45.3955 66.0977 44.7852 65.8617 44.3164 65.3896C43.8509 64.9144 43.6182 64.2829 43.6182 63.4951V63.3486C43.6182 62.8213 43.7191 62.3509 43.9209 61.9375C44.126 61.5208 44.4124 61.1969 44.7803 60.9658C45.1481 60.7347 45.5583 60.6191 46.0107 60.6191C46.7301 60.6191 47.2852 60.8486 47.6758 61.3076C48.0697 61.7666 48.2666 62.416 48.2666 63.2559V63.7344H44.8145C44.8503 64.1706 44.9951 64.5156 45.249 64.7695C45.5062 65.0234 45.8284 65.1504 46.2158 65.1504C46.7594 65.1504 47.2021 64.9307 47.5439 64.4912L48.1836 65.1016C47.972 65.4173 47.6888 65.6631 47.334 65.8389C46.9824 66.0114 46.5869 66.0977 46.1475 66.0977ZM46.0059 61.5713C45.6803 61.5713 45.4167 61.6852 45.2148 61.9131C45.0163 62.141 44.8893 62.4583 44.834 62.8652H47.0947V62.7773C47.0687 62.3802 46.9629 62.0807 46.7773 61.8789C46.5918 61.6738 46.3346 61.5713 46.0059 61.5713Z" fill="#575757"/>
<path d="M52.1533 64.5645C52.1533 64.3529 52.0654 64.1917 51.8896 64.0811C51.7171 63.9704 51.429 63.8727 51.0254 63.7881C50.6217 63.7035 50.2848 63.596 50.0146 63.4658C49.4222 63.1794 49.126 62.7643 49.126 62.2207C49.126 61.765 49.318 61.3841 49.7021 61.0781C50.0863 60.7721 50.5745 60.6191 51.167 60.6191C51.7985 60.6191 52.3079 60.7754 52.6953 61.0879C53.0859 61.4004 53.2812 61.8057 53.2812 62.3037H52.0947C52.0947 62.0758 52.0101 61.887 51.8408 61.7373C51.6716 61.5843 51.4469 61.5078 51.167 61.5078C50.9066 61.5078 50.6934 61.568 50.5273 61.6885C50.3646 61.8089 50.2832 61.9701 50.2832 62.1719C50.2832 62.3542 50.3597 62.4958 50.5127 62.5967C50.6657 62.6976 50.9749 62.8001 51.4404 62.9043C51.9059 63.0052 52.2705 63.1273 52.5342 63.2705C52.8011 63.4105 52.998 63.5798 53.125 63.7783C53.2552 63.9769 53.3203 64.2178 53.3203 64.501C53.3203 64.9762 53.1234 65.362 52.7295 65.6582C52.3356 65.9512 51.8197 66.0977 51.1816 66.0977C50.7487 66.0977 50.363 66.0195 50.0244 65.8633C49.6859 65.707 49.4222 65.4922 49.2334 65.2188C49.0446 64.9453 48.9502 64.6507 48.9502 64.335H50.1025C50.1188 64.6149 50.2246 64.8314 50.4199 64.9844C50.6152 65.1341 50.874 65.209 51.1963 65.209C51.5088 65.209 51.7464 65.1504 51.9092 65.0332C52.0719 64.9128 52.1533 64.7565 52.1533 64.5645Z" fill="#575757"/>
<path d="M16.4209 77C16.3688 76.8991 16.3232 76.7347 16.2842 76.5068C15.9066 76.9007 15.4443 77.0977 14.8975 77.0977C14.3669 77.0977 13.9339 76.9463 13.5986 76.6436C13.2633 76.3408 13.0957 75.9665 13.0957 75.5205C13.0957 74.9574 13.304 74.526 13.7207 74.2266C14.1406 73.9238 14.7396 73.7725 15.5176 73.7725H16.2451V73.4258C16.2451 73.1523 16.1686 72.9342 16.0156 72.7715C15.8626 72.6055 15.6299 72.5225 15.3174 72.5225C15.0472 72.5225 14.8258 72.5908 14.6533 72.7275C14.4808 72.861 14.3945 73.0319 14.3945 73.2402H13.208C13.208 72.9505 13.304 72.6803 13.4961 72.4297C13.6882 72.1758 13.9486 71.9772 14.2773 71.834C14.6094 71.6908 14.9788 71.6191 15.3857 71.6191C16.0042 71.6191 16.4974 71.7754 16.8652 72.0879C17.2331 72.3971 17.4219 72.8333 17.4316 73.3965V75.7793C17.4316 76.2546 17.4984 76.6338 17.6318 76.917V77H16.4209ZM15.1172 76.1455C15.3516 76.1455 15.5713 76.0885 15.7764 75.9746C15.9847 75.8607 16.141 75.7077 16.2451 75.5156V74.5195H15.6055C15.166 74.5195 14.8356 74.596 14.6143 74.749C14.3929 74.902 14.2822 75.1185 14.2822 75.3984C14.2822 75.6263 14.3571 75.8086 14.5068 75.9453C14.6598 76.0788 14.8633 76.1455 15.1172 76.1455Z" fill="#575757"/>
<path d="M18.4521 74.3193C18.4521 73.5055 18.641 72.8529 19.0186 72.3613C19.3962 71.8665 19.9023 71.6191 20.5371 71.6191C21.097 71.6191 21.5495 71.8145 21.8945 72.2051V69.5H23.0811V77H22.0068L21.9482 76.4531C21.5934 76.8828 21.1198 77.0977 20.5273 77.0977C19.9089 77.0977 19.4076 76.8486 19.0234 76.3506C18.6426 75.8525 18.4521 75.1755 18.4521 74.3193ZM19.6387 74.4219C19.6387 74.959 19.7412 75.3789 19.9463 75.6816C20.1546 75.9811 20.4492 76.1309 20.8301 76.1309C21.3151 76.1309 21.6699 75.9144 21.8945 75.4814V73.2256C21.6764 72.8024 21.3249 72.5908 20.8398 72.5908C20.4557 72.5908 20.1595 72.7438 19.9512 73.0498C19.7428 73.3525 19.6387 73.8099 19.6387 74.4219Z" fill="#575757"/>
<path d="M24.0967 74.3193C24.0967 73.5055 24.2855 72.8529 24.6631 72.3613C25.0407 71.8665 25.5469 71.6191 26.1816 71.6191C26.7415 71.6191 27.194 71.8145 27.5391 72.2051V69.5H28.7256V77H27.6514L27.5928 76.4531C27.238 76.8828 26.7643 77.0977 26.1719 77.0977C25.5534 77.0977 25.0521 76.8486 24.668 76.3506C24.2871 75.8525 24.0967 75.1755 24.0967 74.3193ZM25.2832 74.4219C25.2832 74.959 25.3857 75.3789 25.5908 75.6816C25.7992 75.9811 26.0938 76.1309 26.4746 76.1309C26.9596 76.1309 27.3145 75.9144 27.5391 75.4814V73.2256C27.321 72.8024 26.9694 72.5908 26.4844 72.5908C26.1003 72.5908 25.804 72.7438 25.5957 73.0498C25.3874 73.3525 25.2832 73.8099 25.2832 74.4219Z" fill="#575757"/>
<path d="M32.29 77.0977C31.5381 77.0977 30.9277 76.8617 30.459 76.3896C29.9935 75.9144 29.7607 75.2829 29.7607 74.4951V74.3486C29.7607 73.8213 29.8617 73.3509 30.0635 72.9375C30.2686 72.5208 30.555 72.1969 30.9229 71.9658C31.2907 71.7347 31.7008 71.6191 32.1533 71.6191C32.8727 71.6191 33.4277 71.8486 33.8184 72.3076C34.2122 72.7666 34.4092 73.416 34.4092 74.2559V74.7344H30.957C30.9928 75.1706 31.1377 75.5156 31.3916 75.7695C31.6488 76.0234 31.971 76.1504 32.3584 76.1504C32.902 76.1504 33.3447 75.9307 33.6865 75.4912L34.3262 76.1016C34.1146 76.4173 33.8314 76.6631 33.4766 76.8389C33.125 77.0114 32.7295 77.0977 32.29 77.0977ZM32.1484 72.5713C31.8229 72.5713 31.5592 72.6852 31.3574 72.9131C31.1589 73.141 31.0319 73.4583 30.9766 73.8652H33.2373V73.7773C33.2113 73.3802 33.1055 73.0807 32.9199 72.8789C32.7344 72.6738 32.4772 72.5713 32.1484 72.5713Z" fill="#575757"/>
<path d="M35.1123 74.3193C35.1123 73.5055 35.3011 72.8529 35.6787 72.3613C36.0563 71.8665 36.5625 71.6191 37.1973 71.6191C37.7572 71.6191 38.2096 71.8145 38.5547 72.2051V69.5H39.7412V77H38.667L38.6084 76.4531C38.2536 76.8828 37.7799 77.0977 37.1875 77.0977C36.569 77.0977 36.0677 76.8486 35.6836 76.3506C35.3027 75.8525 35.1123 75.1755 35.1123 74.3193ZM36.2988 74.4219C36.2988 74.959 36.4014 75.3789 36.6064 75.6816C36.8148 75.9811 37.1094 76.1309 37.4902 76.1309C37.9753 76.1309 38.3301 75.9144 38.5547 75.4814V73.2256C38.3366 72.8024 37.985 72.5908 37.5 72.5908C37.1159 72.5908 36.8197 72.7438 36.6113 73.0498C36.403 73.3525 36.2988 73.8099 36.2988 74.4219Z" fill="#575757"/>
<rect x="1" width="52" height="52" rx="15" fill="#FF8700"/>
<path d="M29.2387 20.4805H28.1189L21.9525 31.9615L20.242 28.8809H19.1514L15 36.6032V38H38V36.2852L29.2387 20.4805ZM28.6949 23.2058L31.6685 28.5699L30.8337 30.1138L29.0288 27.2907L27.0722 31.426L25.5917 28.9832L28.6949 23.2058ZM17.255 36.2031L19.7135 31.6304L20.942 33.8431L19.6745 36.2031H17.255ZM21.7141 36.2031L24.6047 30.8213L27.2675 35.2148L29.2643 30.9946L30.9632 33.6521L32.7026 30.4354L35.9001 36.2031H21.7141ZM30.6777 17.6504C30.6777 17.1541 31.0799 16.752 31.5762 16.752C32.0724 16.752 32.4746 17.1541 32.4746 17.6504C32.4746 18.1466 32.0724 18.5488 31.5762 18.5488C31.0799 18.5488 30.6777 18.1466 30.6777 17.6504ZM34.002 22.1426C34.002 21.6463 34.4041 21.2441 34.9004 21.2441C35.3966 21.2441 35.7988 21.6463 35.7988 22.1426C35.7988 22.6388 35.3966 23.041 34.9004 23.041C34.4041 23.041 34.002 22.6388 34.002 22.1426ZM23.9395 20.2559C23.9395 19.7596 24.3416 19.3574 24.8379 19.3574C25.3341 19.3574 25.7363 19.7596 25.7363 20.2559C25.7363 20.7521 25.3341 21.1543 24.8379 21.1543C24.3416 21.1543 23.9395 20.7521 23.9395 20.2559ZM20.4377 25.8753C21.5419 25.8753 22.6018 25.55 23.5027 24.9348L23.8945 24.6672V23.2532H22.9136C21.9173 23.2532 20.3906 21.9918 20.3906 20.4377C20.3906 18.8835 21.9173 17.6221 22.9136 17.6221H23.8945V16.2083L23.503 15.9407C22.6029 15.3253 21.5428 15 20.4377 15C17.4393 15 15 17.4393 15 20.4377C15 23.436 17.4393 25.8753 20.4377 25.8753ZM20.4308 16.7969C20.2845 16.9146 20.1429 17.0417 20.0076 17.1777C19.0958 18.0933 18.5938 19.2511 18.5938 20.4377C18.5938 21.6242 19.0958 22.7818 20.0076 23.6976C20.1429 23.8336 20.2845 23.9607 20.431 24.0784C18.4263 24.0747 16.7969 22.443 16.7969 20.4377C16.7969 18.4323 18.4263 16.8004 20.4308 16.7969Z" fill="white"/>
</svg>
