<svg width="269" height="57" viewBox="0 0 269 57" fill="none" xmlns="http://www.w3.org/2000/svg">
<rect width="269" height="57" rx="6" fill="#3B5999"/>
<path d="M81.768 35.112C81.032 35.112 80.3707 34.984 79.784 34.728C79.208 34.4613 78.7547 34.0987 78.424 33.64C78.0933 33.1707 77.9227 32.632 77.912 32.024H79.464C79.5173 32.5467 79.7307 32.9893 80.104 33.352C80.488 33.704 81.0427 33.88 81.768 33.88C82.4613 33.88 83.0053 33.7093 83.4 33.368C83.8053 33.016 84.008 32.568 84.008 32.024C84.008 31.5973 83.8907 31.2507 83.656 30.984C83.4213 30.7173 83.128 30.5147 82.776 30.376C82.424 30.2373 81.9493 30.088 81.352 29.928C80.616 29.736 80.024 29.544 79.576 29.352C79.1387 29.16 78.76 28.8613 78.44 28.456C78.1307 28.04 77.976 27.4853 77.976 26.792C77.976 26.184 78.1307 25.6453 78.44 25.176C78.7493 24.7067 79.1813 24.344 79.736 24.088C80.3013 23.832 80.9467 23.704 81.672 23.704C82.7173 23.704 83.5707 23.9653 84.232 24.488C84.904 25.0107 85.2827 25.704 85.368 26.568H83.768C83.7147 26.1413 83.4907 25.768 83.096 25.448C82.7013 25.1173 82.1787 24.952 81.528 24.952C80.92 24.952 80.424 25.112 80.04 25.432C79.656 25.7413 79.464 26.1787 79.464 26.744C79.464 27.1493 79.576 27.48 79.8 27.736C80.0347 27.992 80.3173 28.1893 80.648 28.328C80.9893 28.456 81.464 28.6053 82.072 28.776C82.808 28.9787 83.4 29.1813 83.848 29.384C84.296 29.576 84.68 29.88 85 30.296C85.32 30.7013 85.48 31.256 85.48 31.96C85.48 32.504 85.336 33.016 85.048 33.496C84.76 33.976 84.3333 34.3653 83.768 34.664C83.2027 34.9627 82.536 35.112 81.768 35.112ZM88.3746 24.808C88.0973 24.808 87.8626 24.712 87.6706 24.52C87.4786 24.328 87.3826 24.0933 87.3826 23.816C87.3826 23.5387 87.4786 23.304 87.6706 23.112C87.8626 22.92 88.0973 22.824 88.3746 22.824C88.6413 22.824 88.8653 22.92 89.0466 23.112C89.2386 23.304 89.3346 23.5387 89.3346 23.816C89.3346 24.0933 89.2386 24.328 89.0466 24.52C88.8653 24.712 88.6413 24.808 88.3746 24.808ZM89.0786 26.232V35H87.6226V26.232H89.0786ZM95.1761 26.088C95.9335 26.088 96.5948 26.2533 97.1601 26.584C97.7361 26.9147 98.1628 27.3307 98.4401 27.832V26.232H99.9121V35.192C99.9121 35.992 99.7415 36.7013 99.4001 37.32C99.0588 37.9493 98.5681 38.44 97.9281 38.792C97.2988 39.144 96.5628 39.32 95.7201 39.32C94.5681 39.32 93.6081 39.048 92.8401 38.504C92.0721 37.96 91.6188 37.2187 91.4801 36.28H92.9201C93.0801 36.8133 93.4108 37.24 93.9121 37.56C94.4135 37.8907 95.0161 38.056 95.7201 38.056C96.5201 38.056 97.1708 37.8053 97.6721 37.304C98.1841 36.8027 98.4401 36.0987 98.4401 35.192V33.352C98.1521 33.864 97.7255 34.2907 97.1601 34.632C96.5948 34.9733 95.9335 35.144 95.1761 35.144C94.3975 35.144 93.6881 34.952 93.0481 34.568C92.4188 34.184 91.9228 33.6453 91.5601 32.952C91.1975 32.2587 91.0161 31.4693 91.0161 30.584C91.0161 29.688 91.1975 28.904 91.5601 28.232C91.9228 27.5493 92.4188 27.0213 93.0481 26.648C93.6881 26.2747 94.3975 26.088 95.1761 26.088ZM98.4401 30.6C98.4401 29.9387 98.3068 29.3627 98.0401 28.872C97.7735 28.3813 97.4108 28.008 96.9521 27.752C96.5041 27.4853 96.0081 27.352 95.4641 27.352C94.9201 27.352 94.4241 27.48 93.9761 27.736C93.5281 27.992 93.1708 28.3653 92.9041 28.856C92.6375 29.3467 92.5041 29.9227 92.5041 30.584C92.5041 31.256 92.6375 31.8427 92.9041 32.344C93.1708 32.8347 93.5281 33.2133 93.9761 33.48C94.4241 33.736 94.9201 33.864 95.4641 33.864C96.0081 33.864 96.5041 33.736 96.9521 33.48C97.4108 33.2133 97.7735 32.8347 98.0401 32.344C98.3068 31.8427 98.4401 31.2613 98.4401 30.6ZM106.645 26.072C107.711 26.072 108.575 26.3973 109.237 27.048C109.898 27.688 110.229 28.616 110.229 29.832V35H108.789V30.04C108.789 29.1653 108.57 28.4987 108.133 28.04C107.695 27.5707 107.098 27.336 106.341 27.336C105.573 27.336 104.959 27.576 104.501 28.056C104.053 28.536 103.829 29.2347 103.829 30.152V35H102.373V26.232H103.829V27.48C104.117 27.032 104.506 26.6853 104.997 26.44C105.498 26.1947 106.047 26.072 106.645 26.072ZM117.625 24.808C117.347 24.808 117.113 24.712 116.921 24.52C116.729 24.328 116.633 24.0933 116.633 23.816C116.633 23.5387 116.729 23.304 116.921 23.112C117.113 22.92 117.347 22.824 117.625 22.824C117.891 22.824 118.115 22.92 118.297 23.112C118.489 23.304 118.585 23.5387 118.585 23.816C118.585 24.0933 118.489 24.328 118.297 24.52C118.115 24.712 117.891 24.808 117.625 24.808ZM118.329 26.232V35H116.873V26.232H118.329ZM125.082 26.072C126.149 26.072 127.013 26.3973 127.674 27.048C128.335 27.688 128.666 28.616 128.666 29.832V35H127.226V30.04C127.226 29.1653 127.007 28.4987 126.57 28.04C126.133 27.5707 125.535 27.336 124.778 27.336C124.01 27.336 123.397 27.576 122.938 28.056C122.49 28.536 122.266 29.2347 122.266 30.152V35H120.81V26.232H122.266V27.48C122.554 27.032 122.943 26.6853 123.434 26.44C123.935 26.1947 124.485 26.072 125.082 26.072ZM138.574 33.656L141.294 26.232H142.846L139.406 35H137.71L134.27 26.232H135.838L138.574 33.656ZM145.031 24.808C144.754 24.808 144.519 24.712 144.327 24.52C144.135 24.328 144.039 24.0933 144.039 23.816C144.039 23.5387 144.135 23.304 144.327 23.112C144.519 22.92 144.754 22.824 145.031 22.824C145.298 22.824 145.522 22.92 145.703 23.112C145.895 23.304 145.991 23.5387 145.991 23.816C145.991 24.0933 145.895 24.328 145.703 24.52C145.522 24.712 145.298 24.808 145.031 24.808ZM145.735 26.232V35H144.279V26.232H145.735ZM147.672 30.584C147.672 29.688 147.854 28.904 148.216 28.232C148.579 27.5493 149.075 27.0213 149.704 26.648C150.344 26.2747 151.054 26.088 151.832 26.088C152.6 26.088 153.267 26.2533 153.832 26.584C154.398 26.9147 154.819 27.3307 155.096 27.832V26.232H156.568V35H155.096V33.368C154.808 33.88 154.376 34.3067 153.8 34.648C153.235 34.9787 152.574 35.144 151.816 35.144C151.038 35.144 150.334 34.952 149.704 34.568C149.075 34.184 148.579 33.6453 148.216 32.952C147.854 32.2587 147.672 31.4693 147.672 30.584ZM155.096 30.6C155.096 29.9387 154.963 29.3627 154.696 28.872C154.43 28.3813 154.067 28.008 153.608 27.752C153.16 27.4853 152.664 27.352 152.12 27.352C151.576 27.352 151.08 27.48 150.632 27.736C150.184 27.992 149.827 28.3653 149.56 28.856C149.294 29.3467 149.16 29.9227 149.16 30.584C149.16 31.256 149.294 31.8427 149.56 32.344C149.827 32.8347 150.184 33.2133 150.632 33.48C151.08 33.736 151.576 33.864 152.12 33.864C152.664 33.864 153.16 33.736 153.608 33.48C154.067 33.2133 154.43 32.8347 154.696 32.344C154.963 31.8427 155.096 31.2613 155.096 30.6ZM169.599 23.848V25.032H164.751V28.792H168.687V29.976H164.751V35H163.295V23.848H169.599ZM170.813 30.584C170.813 29.688 170.994 28.904 171.357 28.232C171.72 27.5493 172.216 27.0213 172.845 26.648C173.485 26.2747 174.194 26.088 174.973 26.088C175.741 26.088 176.408 26.2533 176.973 26.584C177.538 26.9147 177.96 27.3307 178.237 27.832V26.232H179.709V35H178.237V33.368C177.949 33.88 177.517 34.3067 176.941 34.648C176.376 34.9787 175.714 35.144 174.957 35.144C174.178 35.144 173.474 34.952 172.845 34.568C172.216 34.184 171.72 33.6453 171.357 32.952C170.994 32.2587 170.813 31.4693 170.813 30.584ZM178.237 30.6C178.237 29.9387 178.104 29.3627 177.837 28.872C177.57 28.3813 177.208 28.008 176.749 27.752C176.301 27.4853 175.805 27.352 175.261 27.352C174.717 27.352 174.221 27.48 173.773 27.736C173.325 27.992 172.968 28.3653 172.701 28.856C172.434 29.3467 172.301 29.9227 172.301 30.584C172.301 31.256 172.434 31.8427 172.701 32.344C172.968 32.8347 173.325 33.2133 173.773 33.48C174.221 33.736 174.717 33.864 175.261 33.864C175.805 33.864 176.301 33.736 176.749 33.48C177.208 33.2133 177.57 32.8347 177.837 32.344C178.104 31.8427 178.237 31.2613 178.237 30.6ZM181.626 30.6C181.626 29.6933 181.807 28.904 182.17 28.232C182.532 27.5493 183.034 27.0213 183.674 26.648C184.324 26.2747 185.066 26.088 185.898 26.088C186.975 26.088 187.86 26.3493 188.554 26.872C189.258 27.3947 189.722 28.12 189.946 29.048H188.378C188.228 28.5147 187.935 28.0933 187.498 27.784C187.071 27.4747 186.538 27.32 185.898 27.32C185.066 27.32 184.394 27.608 183.882 28.184C183.37 28.7493 183.114 29.5547 183.114 30.6C183.114 31.656 183.37 32.472 183.882 33.048C184.394 33.624 185.066 33.912 185.898 33.912C186.538 33.912 187.071 33.7627 187.498 33.464C187.924 33.1653 188.218 32.7387 188.378 32.184H189.946C189.711 33.08 189.242 33.8 188.538 34.344C187.834 34.8773 186.954 35.144 185.898 35.144C185.066 35.144 184.324 34.9573 183.674 34.584C183.034 34.2107 182.532 33.6827 182.17 33C181.807 32.3173 181.626 31.5173 181.626 30.6ZM199.888 30.28C199.888 30.5573 199.872 30.8507 199.84 31.16H192.832C192.886 32.024 193.179 32.7013 193.712 33.192C194.256 33.672 194.912 33.912 195.68 33.912C196.31 33.912 196.832 33.768 197.248 33.48C197.675 33.1813 197.974 32.7867 198.144 32.296H199.712C199.478 33.1387 199.008 33.8267 198.304 34.36C197.6 34.8827 196.726 35.144 195.68 35.144C194.848 35.144 194.102 34.9573 193.44 34.584C192.79 34.2107 192.278 33.6827 191.904 33C191.531 32.3067 191.344 31.5067 191.344 30.6C191.344 29.6933 191.526 28.8987 191.888 28.216C192.251 27.5333 192.758 27.0107 193.408 26.648C194.07 26.2747 194.827 26.088 195.68 26.088C196.512 26.088 197.248 26.2693 197.888 26.632C198.528 26.9947 199.019 27.496 199.36 28.136C199.712 28.7653 199.888 29.48 199.888 30.28ZM198.384 29.976C198.384 29.4213 198.262 28.9467 198.016 28.552C197.771 28.1467 197.435 27.8427 197.008 27.64C196.592 27.4267 196.128 27.32 195.616 27.32C194.88 27.32 194.251 27.5547 193.728 28.024C193.216 28.4933 192.923 29.144 192.848 29.976H198.384ZM203.266 27.864C203.565 27.3413 204.002 26.9147 204.578 26.584C205.154 26.2533 205.81 26.088 206.546 26.088C207.335 26.088 208.045 26.2747 208.674 26.648C209.303 27.0213 209.799 27.5493 210.162 28.232C210.525 28.904 210.706 29.688 210.706 30.584C210.706 31.4693 210.525 32.2587 210.162 32.952C209.799 33.6453 209.298 34.184 208.658 34.568C208.029 34.952 207.325 35.144 206.546 35.144C205.789 35.144 205.122 34.9787 204.546 34.648C203.981 34.3173 203.554 33.896 203.266 33.384V35H201.81V23.16H203.266V27.864ZM209.218 30.584C209.218 29.9227 209.085 29.3467 208.818 28.856C208.551 28.3653 208.189 27.992 207.73 27.736C207.282 27.48 206.786 27.352 206.242 27.352C205.709 27.352 205.213 27.4853 204.754 27.752C204.306 28.008 203.943 28.3867 203.666 28.888C203.399 29.3787 203.266 29.9493 203.266 30.6C203.266 31.2613 203.399 31.8427 203.666 32.344C203.943 32.8347 204.306 33.2133 204.754 33.48C205.213 33.736 205.709 33.864 206.242 33.864C206.786 33.864 207.282 33.736 207.73 33.48C208.189 33.2133 208.551 32.8347 208.818 32.344C209.085 31.8427 209.218 31.256 209.218 30.584ZM216.447 35.144C215.625 35.144 214.879 34.9573 214.207 34.584C213.545 34.2107 213.023 33.6827 212.639 33C212.265 32.3067 212.079 31.5067 212.079 30.6C212.079 29.704 212.271 28.9147 212.655 28.232C213.049 27.5387 213.583 27.0107 214.255 26.648C214.927 26.2747 215.679 26.088 216.511 26.088C217.343 26.088 218.095 26.2747 218.767 26.648C219.439 27.0107 219.967 27.5333 220.351 28.216C220.745 28.8987 220.943 29.6933 220.943 30.6C220.943 31.5067 220.74 32.3067 220.335 33C219.94 33.6827 219.401 34.2107 218.719 34.584C218.036 34.9573 217.279 35.144 216.447 35.144ZM216.447 33.864C216.969 33.864 217.46 33.7413 217.919 33.496C218.377 33.2507 218.745 32.8827 219.023 32.392C219.311 31.9013 219.455 31.304 219.455 30.6C219.455 29.896 219.316 29.2987 219.039 28.808C218.761 28.3173 218.399 27.9547 217.951 27.72C217.503 27.4747 217.017 27.352 216.495 27.352C215.961 27.352 215.471 27.4747 215.023 27.72C214.585 27.9547 214.233 28.3173 213.967 28.808C213.7 29.2987 213.567 29.896 213.567 30.6C213.567 31.3147 213.695 31.9173 213.951 32.408C214.217 32.8987 214.569 33.2667 215.007 33.512C215.444 33.7467 215.924 33.864 216.447 33.864ZM226.681 35.144C225.86 35.144 225.113 34.9573 224.441 34.584C223.78 34.2107 223.257 33.6827 222.873 33C222.5 32.3067 222.313 31.5067 222.313 30.6C222.313 29.704 222.505 28.9147 222.889 28.232C223.284 27.5387 223.817 27.0107 224.489 26.648C225.161 26.2747 225.913 26.088 226.745 26.088C227.577 26.088 228.329 26.2747 229.001 26.648C229.673 27.0107 230.201 27.5333 230.585 28.216C230.98 28.8987 231.177 29.6933 231.177 30.6C231.177 31.5067 230.974 32.3067 230.569 33C230.174 33.6827 229.636 34.2107 228.953 34.584C228.27 34.9573 227.513 35.144 226.681 35.144ZM226.681 33.864C227.204 33.864 227.694 33.7413 228.153 33.496C228.612 33.2507 228.98 32.8827 229.257 32.392C229.545 31.9013 229.689 31.304 229.689 30.6C229.689 29.896 229.55 29.2987 229.273 28.808C228.996 28.3173 228.633 27.9547 228.185 27.72C227.737 27.4747 227.252 27.352 226.729 27.352C226.196 27.352 225.705 27.4747 225.257 27.72C224.82 27.9547 224.468 28.3173 224.201 28.808C223.934 29.2987 223.801 29.896 223.801 30.6C223.801 31.3147 223.929 31.9173 224.185 32.408C224.452 32.8987 224.804 33.2667 225.241 33.512C225.678 33.7467 226.158 33.864 226.681 33.864ZM237.987 35L234.547 31.128V35H233.091V23.16H234.547V30.12L237.923 26.232H239.955L235.827 30.6L239.971 35H237.987Z" fill="white"/>
<path d="M44.1474 23.6658V21.124C44.1474 20.7425 44.1649 20.4469 44.2006 20.2381C44.2362 20.029 44.317 19.8234 44.4426 19.6204C44.5679 19.4175 44.7708 19.2775 45.0511 19.1998C45.3317 19.1221 45.7046 19.0833 46.1702 19.0833H48.7118V14H44.6486C42.2975 14 40.6089 14.5578 39.5826 15.6734C38.5564 16.7893 38.0434 18.4329 38.0434 20.6049V23.6657H35V28.7494H38.0432V43.4989H44.1473V28.7495H48.2103L48.7474 23.6658H44.1474Z" fill="white"/>
</svg>
