<svg width="317" height="45" viewBox="0 0 317 45" fill="none" xmlns="http://www.w3.org/2000/svg">
<rect width="317" height="45" rx="6" fill="url(#paint0_linear)"/>
<path d="M158.111 25.8003C157.777 26.2362 157.314 26.5662 156.721 26.7905C156.129 27.0148 155.456 27.127 154.703 27.127C153.928 27.127 153.243 26.9513 152.646 26.6001C152.049 26.2489 151.588 25.7474 151.262 25.0957C150.941 24.4398 150.773 23.6759 150.761 22.8042V22.0806C150.761 20.6841 151.095 19.5944 151.764 18.8115C152.432 18.0244 153.365 17.6309 154.563 17.6309C155.591 17.6309 156.408 17.8848 157.013 18.3926C157.618 18.9004 157.982 19.6325 158.105 20.5889H156.531C156.353 19.4759 155.708 18.9194 154.595 18.9194C153.875 18.9194 153.327 19.1797 152.951 19.7002C152.578 20.2165 152.386 20.9761 152.373 21.979V22.6899C152.373 23.6886 152.583 24.4652 153.001 25.0195C153.425 25.5697 154.011 25.8447 154.76 25.8447C155.581 25.8447 156.165 25.6585 156.512 25.2861V23.4771H154.607V22.2583H158.111V25.8003ZM167.252 22.6201C167.252 23.5257 167.095 24.3213 166.782 25.0068C166.469 25.6882 166.021 26.2129 165.437 26.5811C164.857 26.945 164.188 27.127 163.431 27.127C162.682 27.127 162.013 26.945 161.425 26.5811C160.841 26.2129 160.388 25.6903 160.066 25.0132C159.749 24.3361 159.588 23.5553 159.584 22.6709V22.1504C159.584 21.249 159.743 20.4535 160.06 19.7637C160.382 19.0739 160.832 18.547 161.412 18.1831C161.996 17.8149 162.665 17.6309 163.418 17.6309C164.171 17.6309 164.838 17.8128 165.417 18.1768C166.001 18.5365 166.452 19.057 166.77 19.7383C167.087 20.4154 167.248 21.2046 167.252 22.106V22.6201ZM165.646 22.1377C165.646 21.1136 165.451 20.3286 165.062 19.7827C164.677 19.2368 164.129 18.9639 163.418 18.9639C162.724 18.9639 162.18 19.2368 161.787 19.7827C161.397 20.3244 161.198 21.0924 161.19 22.0869V22.6201C161.19 23.6357 161.387 24.4207 161.78 24.9751C162.178 25.5295 162.728 25.8066 163.431 25.8066C164.142 25.8066 164.688 25.5358 165.068 24.9941C165.453 24.4525 165.646 23.6611 165.646 22.6201V22.1377Z" fill="white"/>
<defs>
<linearGradient id="paint0_linear" x1="0" y1="0" x2="320.5" y2="48" gradientUnits="userSpaceOnUse">
<stop stop-color="#277DFF"/>
<stop offset="1" stop-color="#70FF00"/>
</linearGradient>
</defs>
</svg>
