<svg width="269" height="57" viewBox="0 0 269 57" fill="none" xmlns="http://www.w3.org/2000/svg">
<rect width="269" height="57" rx="6" fill="#F34A38"/>
<path d="M43.3563 30.8882H50.1945C48.9942 34.2812 45.7433 36.7138 41.9374 36.6858C37.3194 36.6517 33.501 32.9581 33.3217 28.3443C33.1295 23.3987 37.098 19.314 42.0026 19.314C44.2452 19.314 46.2916 20.1683 47.8345 21.5682C48.1999 21.8998 48.7562 21.9019 49.1156 21.5637L51.6272 19.2003C52.02 18.8306 52.0214 18.2063 51.6298 17.8354C49.183 15.5179 45.9008 14.0733 42.2813 14.0026C34.5614 13.8519 28.0541 20.1803 28.0003 27.9002C27.9461 35.678 34.2359 42 42.0026 42C49.4717 42 55.5732 36.1529 55.9819 28.7874C55.9928 28.6951 56 25.5742 56 25.5742H43.3563C42.8381 25.5742 42.418 25.9942 42.418 26.5124V29.9501C42.418 30.4683 42.8382 30.8882 43.3563 30.8882Z" fill="white"/>
<path d="M81.768 34.112C81.032 34.112 80.3707 33.984 79.784 33.728C79.208 33.4613 78.7547 33.0987 78.424 32.64C78.0933 32.1707 77.9227 31.632 77.912 31.024H79.464C79.5173 31.5467 79.7307 31.9893 80.104 32.352C80.488 32.704 81.0427 32.88 81.768 32.88C82.4613 32.88 83.0053 32.7093 83.4 32.368C83.8053 32.016 84.008 31.568 84.008 31.024C84.008 30.5973 83.8907 30.2507 83.656 29.984C83.4213 29.7173 83.128 29.5147 82.776 29.376C82.424 29.2373 81.9493 29.088 81.352 28.928C80.616 28.736 80.024 28.544 79.576 28.352C79.1387 28.16 78.76 27.8613 78.44 27.456C78.1307 27.04 77.976 26.4853 77.976 25.792C77.976 25.184 78.1307 24.6453 78.44 24.176C78.7493 23.7067 79.1813 23.344 79.736 23.088C80.3013 22.832 80.9467 22.704 81.672 22.704C82.7173 22.704 83.5707 22.9653 84.232 23.488C84.904 24.0107 85.2827 24.704 85.368 25.568H83.768C83.7147 25.1413 83.4907 24.768 83.096 24.448C82.7013 24.1173 82.1787 23.952 81.528 23.952C80.92 23.952 80.424 24.112 80.04 24.432C79.656 24.7413 79.464 25.1787 79.464 25.744C79.464 26.1493 79.576 26.48 79.8 26.736C80.0347 26.992 80.3173 27.1893 80.648 27.328C80.9893 27.456 81.464 27.6053 82.072 27.776C82.808 27.9787 83.4 28.1813 83.848 28.384C84.296 28.576 84.68 28.88 85 29.296C85.32 29.7013 85.48 30.256 85.48 30.96C85.48 31.504 85.336 32.016 85.048 32.496C84.76 32.976 84.3333 33.3653 83.768 33.664C83.2027 33.9627 82.536 34.112 81.768 34.112ZM88.3746 23.808C88.0973 23.808 87.8626 23.712 87.6706 23.52C87.4786 23.328 87.3826 23.0933 87.3826 22.816C87.3826 22.5387 87.4786 22.304 87.6706 22.112C87.8626 21.92 88.0973 21.824 88.3746 21.824C88.6413 21.824 88.8653 21.92 89.0466 22.112C89.2386 22.304 89.3346 22.5387 89.3346 22.816C89.3346 23.0933 89.2386 23.328 89.0466 23.52C88.8653 23.712 88.6413 23.808 88.3746 23.808ZM89.0786 25.232V34H87.6226V25.232H89.0786ZM95.1761 25.088C95.9335 25.088 96.5948 25.2533 97.1601 25.584C97.7361 25.9147 98.1628 26.3307 98.4401 26.832V25.232H99.9121V34.192C99.9121 34.992 99.7415 35.7013 99.4001 36.32C99.0588 36.9493 98.5681 37.44 97.9281 37.792C97.2988 38.144 96.5628 38.32 95.7201 38.32C94.5681 38.32 93.6081 38.048 92.8401 37.504C92.0721 36.96 91.6188 36.2187 91.4801 35.28H92.9201C93.0801 35.8133 93.4108 36.24 93.9121 36.56C94.4135 36.8907 95.0161 37.056 95.7201 37.056C96.5201 37.056 97.1708 36.8053 97.6721 36.304C98.1841 35.8027 98.4401 35.0987 98.4401 34.192V32.352C98.1521 32.864 97.7255 33.2907 97.1601 33.632C96.5948 33.9733 95.9335 34.144 95.1761 34.144C94.3975 34.144 93.6881 33.952 93.0481 33.568C92.4188 33.184 91.9228 32.6453 91.5601 31.952C91.1975 31.2587 91.0161 30.4693 91.0161 29.584C91.0161 28.688 91.1975 27.904 91.5601 27.232C91.9228 26.5493 92.4188 26.0213 93.0481 25.648C93.6881 25.2747 94.3975 25.088 95.1761 25.088ZM98.4401 29.6C98.4401 28.9387 98.3068 28.3627 98.0401 27.872C97.7735 27.3813 97.4108 27.008 96.9521 26.752C96.5041 26.4853 96.0081 26.352 95.4641 26.352C94.9201 26.352 94.4241 26.48 93.9761 26.736C93.5281 26.992 93.1708 27.3653 92.9041 27.856C92.6375 28.3467 92.5041 28.9227 92.5041 29.584C92.5041 30.256 92.6375 30.8427 92.9041 31.344C93.1708 31.8347 93.5281 32.2133 93.9761 32.48C94.4241 32.736 94.9201 32.864 95.4641 32.864C96.0081 32.864 96.5041 32.736 96.9521 32.48C97.4108 32.2133 97.7735 31.8347 98.0401 31.344C98.3068 30.8427 98.4401 30.2613 98.4401 29.6ZM106.645 25.072C107.711 25.072 108.575 25.3973 109.237 26.048C109.898 26.688 110.229 27.616 110.229 28.832V34H108.789V29.04C108.789 28.1653 108.57 27.4987 108.133 27.04C107.695 26.5707 107.098 26.336 106.341 26.336C105.573 26.336 104.959 26.576 104.501 27.056C104.053 27.536 103.829 28.2347 103.829 29.152V34H102.373V25.232H103.829V26.48C104.117 26.032 104.506 25.6853 104.997 25.44C105.498 25.1947 106.047 25.072 106.645 25.072ZM117.625 23.808C117.347 23.808 117.113 23.712 116.921 23.52C116.729 23.328 116.633 23.0933 116.633 22.816C116.633 22.5387 116.729 22.304 116.921 22.112C117.113 21.92 117.347 21.824 117.625 21.824C117.891 21.824 118.115 21.92 118.297 22.112C118.489 22.304 118.585 22.5387 118.585 22.816C118.585 23.0933 118.489 23.328 118.297 23.52C118.115 23.712 117.891 23.808 117.625 23.808ZM118.329 25.232V34H116.873V25.232H118.329ZM125.082 25.072C126.149 25.072 127.013 25.3973 127.674 26.048C128.335 26.688 128.666 27.616 128.666 28.832V34H127.226V29.04C127.226 28.1653 127.007 27.4987 126.57 27.04C126.133 26.5707 125.535 26.336 124.778 26.336C124.01 26.336 123.397 26.576 122.938 27.056C122.49 27.536 122.266 28.2347 122.266 29.152V34H120.81V25.232H122.266V26.48C122.554 26.032 122.943 25.6853 123.434 25.44C123.935 25.1947 124.485 25.072 125.082 25.072ZM138.574 32.656L141.294 25.232H142.846L139.406 34H137.71L134.27 25.232H135.838L138.574 32.656ZM145.031 23.808C144.754 23.808 144.519 23.712 144.327 23.52C144.135 23.328 144.039 23.0933 144.039 22.816C144.039 22.5387 144.135 22.304 144.327 22.112C144.519 21.92 144.754 21.824 145.031 21.824C145.298 21.824 145.522 21.92 145.703 22.112C145.895 22.304 145.991 22.5387 145.991 22.816C145.991 23.0933 145.895 23.328 145.703 23.52C145.522 23.712 145.298 23.808 145.031 23.808ZM145.735 25.232V34H144.279V25.232H145.735ZM147.672 29.584C147.672 28.688 147.854 27.904 148.216 27.232C148.579 26.5493 149.075 26.0213 149.704 25.648C150.344 25.2747 151.054 25.088 151.832 25.088C152.6 25.088 153.267 25.2533 153.832 25.584C154.398 25.9147 154.819 26.3307 155.096 26.832V25.232H156.568V34H155.096V32.368C154.808 32.88 154.376 33.3067 153.8 33.648C153.235 33.9787 152.574 34.144 151.816 34.144C151.038 34.144 150.334 33.952 149.704 33.568C149.075 33.184 148.579 32.6453 148.216 31.952C147.854 31.2587 147.672 30.4693 147.672 29.584ZM155.096 29.6C155.096 28.9387 154.963 28.3627 154.696 27.872C154.43 27.3813 154.067 27.008 153.608 26.752C153.16 26.4853 152.664 26.352 152.12 26.352C151.576 26.352 151.08 26.48 150.632 26.736C150.184 26.992 149.827 27.3653 149.56 27.856C149.294 28.3467 149.16 28.9227 149.16 29.584C149.16 30.256 149.294 30.8427 149.56 31.344C149.827 31.8347 150.184 32.2133 150.632 32.48C151.08 32.736 151.576 32.864 152.12 32.864C152.664 32.864 153.16 32.736 153.608 32.48C154.067 32.2133 154.43 31.8347 154.696 31.344C154.963 30.8427 155.096 30.2613 155.096 29.6ZM171.743 26.08C171.433 25.4293 170.985 24.928 170.399 24.576C169.812 24.2133 169.129 24.032 168.351 24.032C167.572 24.032 166.868 24.2133 166.239 24.576C165.62 24.928 165.129 25.44 164.767 26.112C164.415 26.7733 164.239 27.5413 164.239 28.416C164.239 29.2907 164.415 30.0587 164.767 30.72C165.129 31.3813 165.62 31.8933 166.239 32.256C166.868 32.608 167.572 32.784 168.351 32.784C169.439 32.784 170.335 32.4587 171.039 31.808C171.743 31.1573 172.153 30.2773 172.271 29.168H167.823V27.984H173.823V29.104C173.737 30.0213 173.449 30.864 172.959 31.632C172.468 32.3893 171.823 32.992 171.023 33.44C170.223 33.8773 169.332 34.096 168.351 34.096C167.316 34.096 166.372 33.856 165.519 33.376C164.665 32.8853 163.988 32.208 163.487 31.344C162.996 30.48 162.751 29.504 162.751 28.416C162.751 27.328 162.996 26.352 163.487 25.488C163.988 24.6133 164.665 23.936 165.519 23.456C166.372 22.9653 167.316 22.72 168.351 22.72C169.535 22.72 170.58 23.0133 171.487 23.6C172.404 24.1867 173.071 25.0133 173.487 26.08H171.743ZM179.572 34.144C178.75 34.144 178.004 33.9573 177.332 33.584C176.67 33.2107 176.148 32.6827 175.764 32C175.39 31.3067 175.204 30.5067 175.204 29.6C175.204 28.704 175.396 27.9147 175.78 27.232C176.174 26.5387 176.708 26.0107 177.38 25.648C178.052 25.2747 178.804 25.088 179.636 25.088C180.468 25.088 181.22 25.2747 181.892 25.648C182.564 26.0107 183.092 26.5333 183.476 27.216C183.87 27.8987 184.068 28.6933 184.068 29.6C184.068 30.5067 183.865 31.3067 183.46 32C183.065 32.6827 182.526 33.2107 181.844 33.584C181.161 33.9573 180.404 34.144 179.572 34.144ZM179.572 32.864C180.094 32.864 180.585 32.7413 181.044 32.496C181.502 32.2507 181.87 31.8827 182.148 31.392C182.436 30.9013 182.58 30.304 182.58 29.6C182.58 28.896 182.441 28.2987 182.164 27.808C181.886 27.3173 181.524 26.9547 181.076 26.72C180.628 26.4747 180.142 26.352 179.62 26.352C179.086 26.352 178.596 26.4747 178.148 26.72C177.71 26.9547 177.358 27.3173 177.092 27.808C176.825 28.2987 176.692 28.896 176.692 29.6C176.692 30.3147 176.82 30.9173 177.076 31.408C177.342 31.8987 177.694 32.2667 178.132 32.512C178.569 32.7467 179.049 32.864 179.572 32.864ZM189.806 34.144C188.985 34.144 188.238 33.9573 187.566 33.584C186.905 33.2107 186.382 32.6827 185.998 32C185.625 31.3067 185.438 30.5067 185.438 29.6C185.438 28.704 185.63 27.9147 186.014 27.232C186.409 26.5387 186.942 26.0107 187.614 25.648C188.286 25.2747 189.038 25.088 189.87 25.088C190.702 25.088 191.454 25.2747 192.126 25.648C192.798 26.0107 193.326 26.5333 193.71 27.216C194.105 27.8987 194.302 28.6933 194.302 29.6C194.302 30.5067 194.099 31.3067 193.694 32C193.299 32.6827 192.761 33.2107 192.078 33.584C191.395 33.9573 190.638 34.144 189.806 34.144ZM189.806 32.864C190.329 32.864 190.819 32.7413 191.278 32.496C191.737 32.2507 192.105 31.8827 192.382 31.392C192.67 30.9013 192.814 30.304 192.814 29.6C192.814 28.896 192.675 28.2987 192.398 27.808C192.121 27.3173 191.758 26.9547 191.31 26.72C190.862 26.4747 190.377 26.352 189.854 26.352C189.321 26.352 188.83 26.4747 188.382 26.72C187.945 26.9547 187.593 27.3173 187.326 27.808C187.059 28.2987 186.926 28.896 186.926 29.6C186.926 30.3147 187.054 30.9173 187.31 31.408C187.577 31.8987 187.929 32.2667 188.366 32.512C188.803 32.7467 189.283 32.864 189.806 32.864ZM199.832 25.088C200.59 25.088 201.251 25.2533 201.816 25.584C202.392 25.9147 202.819 26.3307 203.096 26.832V25.232H204.568V34.192C204.568 34.992 204.398 35.7013 204.056 36.32C203.715 36.9493 203.224 37.44 202.584 37.792C201.955 38.144 201.219 38.32 200.376 38.32C199.224 38.32 198.264 38.048 197.496 37.504C196.728 36.96 196.275 36.2187 196.136 35.28H197.576C197.736 35.8133 198.067 36.24 198.568 36.56C199.07 36.8907 199.672 37.056 200.376 37.056C201.176 37.056 201.827 36.8053 202.328 36.304C202.84 35.8027 203.096 35.0987 203.096 34.192V32.352C202.808 32.864 202.382 33.2907 201.816 33.632C201.251 33.9733 200.59 34.144 199.832 34.144C199.054 34.144 198.344 33.952 197.704 33.568C197.075 33.184 196.579 32.6453 196.216 31.952C195.854 31.2587 195.672 30.4693 195.672 29.584C195.672 28.688 195.854 27.904 196.216 27.232C196.579 26.5493 197.075 26.0213 197.704 25.648C198.344 25.2747 199.054 25.088 199.832 25.088ZM203.096 29.6C203.096 28.9387 202.963 28.3627 202.696 27.872C202.43 27.3813 202.067 27.008 201.608 26.752C201.16 26.4853 200.664 26.352 200.12 26.352C199.576 26.352 199.08 26.48 198.632 26.736C198.184 26.992 197.827 27.3653 197.56 27.856C197.294 28.3467 197.16 28.9227 197.16 29.584C197.16 30.256 197.294 30.8427 197.56 31.344C197.827 31.8347 198.184 32.2133 198.632 32.48C199.08 32.736 199.576 32.864 200.12 32.864C200.664 32.864 201.16 32.736 201.608 32.48C202.067 32.2133 202.43 31.8347 202.696 31.344C202.963 30.8427 203.096 30.2613 203.096 29.6ZM208.485 22.16V34H207.029V22.16H208.485ZM218.966 29.28C218.966 29.5573 218.95 29.8507 218.918 30.16H211.91C211.964 31.024 212.257 31.7013 212.79 32.192C213.334 32.672 213.99 32.912 214.758 32.912C215.388 32.912 215.91 32.768 216.326 32.48C216.753 32.1813 217.052 31.7867 217.222 31.296H218.79C218.556 32.1387 218.086 32.8267 217.382 33.36C216.678 33.8827 215.804 34.144 214.758 34.144C213.926 34.144 213.18 33.9573 212.518 33.584C211.868 33.2107 211.356 32.6827 210.982 32C210.609 31.3067 210.422 30.5067 210.422 29.6C210.422 28.6933 210.604 27.8987 210.966 27.216C211.329 26.5333 211.836 26.0107 212.486 25.648C213.148 25.2747 213.905 25.088 214.758 25.088C215.59 25.088 216.326 25.2693 216.966 25.632C217.606 25.9947 218.097 26.496 218.438 27.136C218.79 27.7653 218.966 28.48 218.966 29.28ZM217.462 28.976C217.462 28.4213 217.34 27.9467 217.094 27.552C216.849 27.1467 216.513 26.8427 216.086 26.64C215.67 26.4267 215.206 26.32 214.694 26.32C213.958 26.32 213.329 26.5547 212.806 27.024C212.294 27.4933 212.001 28.144 211.926 28.976H217.462Z" fill="white"/>
</svg>
