<svg width="317" height="45" viewBox="0 0 317 45" fill="none" xmlns="http://www.w3.org/2000/svg">
<rect width="317" height="45" rx="6" fill="url(#paint0_linear)"/>
<path d="M158.898 25.8003C158.564 26.2362 158.101 26.5662 157.508 26.7905C156.916 27.0148 156.243 27.127 155.49 27.127C154.715 27.127 154.03 26.9513 153.433 26.6001C152.836 26.2489 152.375 25.7474 152.049 25.0957C151.728 24.4398 151.561 23.6759 151.548 22.8042V22.0806C151.548 20.6841 151.882 19.5944 152.551 18.8115C153.219 18.0244 154.153 17.6309 155.35 17.6309C156.378 17.6309 157.195 17.8848 157.8 18.3926C158.405 18.9004 158.769 19.6325 158.892 20.5889H157.318C157.14 19.4759 156.495 18.9194 155.382 18.9194C154.662 18.9194 154.114 19.1797 153.738 19.7002C153.365 20.2165 153.173 20.9761 153.16 21.979V22.6899C153.16 23.6886 153.37 24.4652 153.789 25.0195C154.212 25.5697 154.798 25.8447 155.547 25.8447C156.368 25.8447 156.952 25.6585 157.299 25.2861V23.4771H155.395V22.2583H158.898V25.8003ZM160.225 23.5024C160.225 22.8296 160.358 22.2244 160.625 21.687C160.892 21.1453 161.266 20.7306 161.749 20.4429C162.231 20.1509 162.785 20.0049 163.412 20.0049C164.338 20.0049 165.09 20.3032 165.665 20.8999C166.245 21.4966 166.558 22.2879 166.604 23.2739L166.611 23.6357C166.611 24.3128 166.48 24.918 166.217 25.4512C165.959 25.9844 165.587 26.397 165.1 26.689C164.618 26.981 164.059 27.127 163.424 27.127C162.455 27.127 161.679 26.8053 161.095 26.1621C160.515 25.5146 160.225 24.6535 160.225 23.5786V23.5024ZM161.768 23.6357C161.768 24.3424 161.914 24.8968 162.206 25.2988C162.498 25.6966 162.904 25.8955 163.424 25.8955C163.945 25.8955 164.349 25.6924 164.637 25.2861C164.929 24.8799 165.075 24.2853 165.075 23.5024C165.075 22.8084 164.924 22.2583 164.624 21.8521C164.328 21.4458 163.924 21.2427 163.412 21.2427C162.908 21.2427 162.508 21.4437 162.212 21.8457C161.916 22.2435 161.768 22.8402 161.768 23.6357Z" fill="white"/>
<defs>
<linearGradient id="paint0_linear" x1="0" y1="0" x2="320.5" y2="48" gradientUnits="userSpaceOnUse">
<stop stop-color="#277DFF"/>
<stop offset="1" stop-color="#70FF00"/>
</linearGradient>
</defs>
</svg>
