<svg width="102" height="103" viewBox="0 0 102 103" fill="none" xmlns="http://www.w3.org/2000/svg">
<path d="M56.9888 44.5352C56.9888 47.9393 54.2291 50.699 50.825 50.699C47.4208 50.699 44.6611 47.9393 44.6611 44.5352H56.9888Z" fill="#E8EDFC"/>
<path d="M53.9061 44.5352C53.9016 47.3422 52.0011 49.7918 49.2832 50.4935C49.7855 50.6301 50.3037 50.6992 50.8242 50.699C54.2283 50.699 56.988 47.9393 56.988 44.5352H53.9061Z" fill="#CAD9FC"/>
<path d="M53.906 49.8667V59.9446C53.906 60.5119 53.4461 60.9719 52.8787 60.9719H48.7695C48.2021 60.9719 47.7422 60.5119 47.7422 59.9446V49.8667C49.6493 50.9678 51.9989 50.9678 53.906 49.8667Z" fill="#E8EDFC"/>
<path d="M50.8242 50.6988V59.9446C50.8242 60.5119 50.3642 60.9719 49.7969 60.9719H52.8788C53.4462 60.9719 53.9061 60.5119 53.9061 59.9446V49.8667C52.972 50.4154 51.9075 50.7028 50.8242 50.6988Z" fill="#CAD9FC"/>
<path fill-rule="evenodd" clip-rule="evenodd" d="M44.6613 34.0976C44.2986 33.9001 43.9207 33.7318 43.5312 33.5942C43.9232 33.7254 44.3016 33.894 44.6613 34.0976Z" stroke="black" stroke-width="17.0667" stroke-linecap="round" stroke-linejoin="round"/>
<path d="M73.4256 34.3752C72.8092 40.8575 67.0769 44.5352 63.1526 44.5352C49.7976 44.5352 50.8249 44.5352 50.8249 44.4633C50.8249 38.207 56.1052 33.2349 60.0706 33.2349H72.3983C72.6915 33.2331 72.9715 33.3567 73.1678 33.5746C73.364 33.7924 73.4579 34.0837 73.4256 34.3752Z" fill="#E8EDFC"/>
<path d="M72.397 33.2349H69.3151C69.6083 33.2331 69.8883 33.3567 70.0846 33.5746C70.2808 33.7924 70.3746 34.0837 70.3424 34.3752C69.726 40.8575 63.9936 44.5352 60.0693 44.5352H63.1512C67.0447 44.5352 72.7771 40.8575 73.4243 34.3752C73.4565 34.0837 73.3627 33.7924 73.1665 33.5746C72.9702 33.3567 72.6902 33.2331 72.397 33.2349Z" fill="#CAD9FC"/>
<path d="M50.8243 44.4632C50.8243 44.5762 51.3174 44.5351 44.6605 44.5351C38.4967 44.5351 38.3118 44.5351 38.096 44.5351C32.7146 43.8609 28.5711 39.4587 28.2236 34.0464C28.327 33.5644 28.7581 33.2238 29.2509 33.2348C42.9141 33.2348 42.1744 33.1115 43.5305 33.5943C46.4868 34.8053 48.8106 37.1849 49.9511 40.1691C50.5008 41.5355 50.7968 42.9907 50.8243 44.4632Z" fill="#E8EDFC"/>
<path d="M50.8248 44.4632C50.8006 42.9913 50.5081 41.5361 49.9619 40.1691C48.8214 37.1849 46.4976 34.8053 43.5413 33.5943C42.514 33.2348 42.6886 33.2142 36.8535 33.2245C39.5861 33.2245 39.6581 33.3067 40.4594 33.5943C43.4156 34.8053 45.7395 37.1849 46.88 40.1691C47.4262 41.5361 47.7186 42.9913 47.7429 44.4632C47.7429 44.4632 47.8251 44.5249 47.4347 44.5351C51.1536 44.5351 50.8248 44.5351 50.8248 44.4632Z" fill="#CAD9FC"/>
<path d="M65.8958 27.0709C66.0738 26.069 66.1871 25.0567 66.2349 24.0403C66.2489 23.7591 66.1469 23.4844 65.9527 23.2805C65.7585 23.0766 65.4891 22.9613 65.2076 22.9616C63.2958 23.0531 61.4004 23.3598 59.5574 23.8759C58.2262 20.2267 54.756 17.7987 50.8715 17.7987C46.9871 17.7987 43.5169 20.2267 42.1857 23.8759C40.3296 23.3554 38.4201 23.0486 36.4944 22.9616C36.204 22.9467 35.9209 23.0556 35.7153 23.2612C35.5097 23.4668 35.4008 23.7499 35.4157 24.0403C35.4635 25.0567 35.5767 26.069 35.7547 27.0709H28.2246C28.2246 14.0241 38.3436 3.44287 50.8253 3.44287C63.307 3.44287 73.426 14.0241 73.426 27.0709H65.8958Z" fill="#E8EDFC"/>
<path d="M62.1244 22.962C61.1811 23.0068 60.2413 23.1063 59.3096 23.2599C59.3918 23.4551 59.4842 23.6708 59.5561 23.8763C60.6222 23.5771 61.7066 23.3472 62.8024 23.188C62.6107 23.034 62.3702 22.9538 62.1244 22.962Z" fill="#CAD9FC"/>
<path d="M50.8242 3.44287C50.3105 3.44287 49.7969 3.46342 49.2832 3.50451C61.0972 4.33663 70.3429 14.5686 70.3429 27.0709H73.4248C73.4248 14.0241 63.3059 3.44287 50.8242 3.44287Z" fill="#CAD9FC"/>
<path d="M66.2342 24.0406C66.1137 27.2555 65.3081 30.4077 63.8714 33.2863C59.9266 33.2863 59.0226 33.0603 56.9885 34.1493C56.9 31.3489 56.0435 28.6267 54.5127 26.2801C57.6925 24.1862 61.4003 23.0357 65.2069 22.9619C65.4885 22.9616 65.7579 23.0768 65.9521 23.2807C66.1463 23.4846 66.2483 23.7593 66.2342 24.0406Z" fill="#E8EDFC"/>
<path d="M65.2069 22.9619C64.4159 22.9619 63.6043 23.0852 62.803 23.1982C63.0637 23.3987 63.2127 23.7118 63.2037 24.0406C63.0665 27.2416 62.2469 30.3764 60.7998 33.235H63.8817C65.3078 30.3712 66.1096 27.2373 66.2342 24.0406C66.2483 23.7593 66.1463 23.4846 65.9521 23.2807C65.7579 23.0768 65.4885 22.9616 65.2069 22.9619Z" fill="#CAD9FC"/>
<path d="M56.9878 34.0977C53.2563 36.2315 50.9168 40.1657 50.8239 44.4632C50.7393 40.5241 48.7769 36.8628 45.5436 34.6114C45.3381 34.4778 44.7731 34.1285 44.6807 34.0977C44.6807 29.9166 47.2489 25.3451 50.0843 22.2734C50.2785 22.066 50.55 21.9482 50.8342 21.9482C51.1184 21.9482 51.3899 22.066 51.5841 22.2734C54.4298 25.3554 56.9261 29.7933 56.9878 34.0874V34.0977Z" fill="#E8EDFC"/>
<path d="M56.988 34.0874C56.9263 29.7933 54.43 25.3656 51.5844 22.2734C51.3901 22.066 51.1186 21.9482 50.8344 21.9482C50.5502 21.9482 50.2787 22.066 50.0845 22.2734C49.8174 22.5611 49.5503 22.8693 49.2935 23.1877C51.7898 26.208 53.8547 30.2042 53.9061 34.0874C51.9563 35.1845 50.3543 36.8078 49.2832 38.7719C50.2614 40.5117 50.791 42.4676 50.8242 44.4632C50.9171 40.1657 53.2565 36.2315 56.988 34.0977V34.0874Z" fill="#CAD9FC"/>
<path d="M47.137 26.2286C45.6352 28.5889 44.7813 31.3029 44.6612 34.0978C43.7204 33.5611 42.6619 33.2647 41.5792 33.2348H37.7782C36.3486 30.3719 35.5432 27.238 35.4154 24.0405C35.4005 23.7501 35.5093 23.467 35.715 23.2613C35.9206 23.0557 36.2037 22.9469 36.4941 22.9618C40.2773 23.0349 43.9643 24.1666 47.137 26.2286Z" fill="#E8EDFC"/>
<path d="M35.2083 27.0716H31.3046C31.3046 14.5795 40.5503 4.34759 52.3335 3.50521C51.3073 3.43707 50.2777 3.43707 49.2516 3.50521C37.5198 4.33732 28.2227 14.5693 28.2227 27.0716H35.2083Z" fill="white"/>
<path d="M50.824 59.9457V49.8781C48.9309 48.7612 47.7614 46.7341 47.7421 44.5361H44.6602C44.6795 46.7341 45.849 48.7612 47.7421 49.8781V59.9457C47.7421 60.5131 48.202 60.973 48.7694 60.973H51.8513C51.2839 60.973 50.824 60.5131 50.824 59.9457ZM49.848 50.6383H49.9919H49.848Z" fill="white"/>
<path d="M37.7663 33.2356H29.25C28.7572 33.2246 28.326 33.5652 28.2227 34.0472C28.6439 39.985 33.7085 44.5359 38.5984 44.5359H41.6803C36.7904 44.5359 31.7258 39.985 31.3046 34.0472C31.408 33.5652 31.8391 33.2246 32.3319 33.2356H40.8379C39.8402 31.2989 39.1472 29.2198 38.7833 27.0718C37.7576 27.153 36.7271 27.153 35.7014 27.0718C36.0641 29.2215 36.7608 31.3012 37.7663 33.2356Z" fill="white"/>
<path d="M31.8079 40.0875L30.2772 41.4538C28.2904 39.1768 27.1956 36.2573 27.1953 33.2354H29.2499C29.2445 35.7538 30.1534 38.1887 31.8079 40.0875Z" fill="white"/>
<path d="M32.4859 40.8277L31.0888 42.3275C28.8715 40.2737 27.4859 37.477 27.1953 34.4686L29.2499 34.2632C29.4861 36.7744 30.638 39.111 32.4859 40.8277Z" fill="white"/>
<path d="M29.1474 38.8241C28.5801 38.8241 28.1201 38.3642 28.1201 37.7968C28.1201 37.2295 28.5801 36.7695 29.1474 36.7695C29.7148 36.7695 30.1747 37.2295 30.1747 37.7968C30.1747 38.3642 29.7148 38.8241 29.1474 38.8241Z" fill="#428DFF"/>
<path d="M27.196 34.4682C27.2502 35.0326 27.7513 35.4464 28.3158 35.3928C28.5906 35.3695 28.8446 35.2366 29.0204 35.024C29.1962 34.8115 29.2792 34.5372 29.2506 34.2628H41.5783C44.9786 34.2628 49.2317 38.5056 49.7967 43.5085H38.4964C35.8984 43.3118 33.4885 42.0791 31.8086 40.0876C31.4456 39.6729 30.82 39.6185 30.3909 39.9643C30.1713 40.1423 30.0347 40.4029 30.0133 40.6848C29.992 40.9666 30.0877 41.2449 30.2779 41.4539C30.5245 41.7313 30.771 41.9881 31.0279 42.2347L31.11 42.3374C33.1058 44.2634 35.7271 45.4082 38.4964 45.5631H43.7459C44.0221 47.5261 45.0963 49.288 46.7148 50.4326V59.9454C46.7148 61.0801 47.6347 62 48.7694 62H52.8786C53.4235 62 53.9461 61.7835 54.3314 61.3982C54.7168 61.0129 54.9332 60.4903 54.9332 59.9454V50.4326C56.5633 49.2939 57.6493 47.5312 57.9329 45.5631H63.1516C68.0108 45.5631 73.7945 41.0635 74.452 34.4682C74.5102 33.8887 74.3198 33.3117 73.928 32.8807C73.5362 32.4497 72.9798 32.2053 72.3974 32.2082H65.4939C66.0422 30.8817 66.4619 29.5057 66.7472 28.099H80.6158C81.1832 28.099 81.6431 27.639 81.6431 27.0717C81.6431 26.5043 81.1832 26.0444 80.6158 26.0444H74.452C74.3276 22.992 73.6597 19.9862 72.4796 17.1684L76.2292 13.4188C76.6321 13.016 76.6321 12.3628 76.2292 11.96C75.8264 11.5572 75.1733 11.5572 74.7705 11.96L71.5447 15.196C69.4296 11.163 66.2265 7.80338 62.299 5.49827L64.1379 1.85134C64.2562 1.6024 64.2695 1.31635 64.1749 1.05748C64.0802 0.798606 63.8855 0.588634 63.6345 0.474756C63.3908 0.349652 63.1073 0.327024 62.8469 0.411898C62.5865 0.496772 62.3708 0.68212 62.2476 0.92677L60.4293 4.55315C57.7385 3.28318 54.8234 2.55702 51.8513 2.41636V1.38906C51.8513 0.821692 51.3914 0.361753 50.824 0.361753C50.2566 0.361753 49.7967 0.821692 49.7967 1.38906V2.41636C46.8267 2.54734 43.9117 3.263 41.2187 4.52233L39.4107 0.92677C39.1543 0.423069 38.5391 0.22109 38.0341 0.474756C37.5265 0.727425 37.3196 1.34353 37.5718 1.85134L39.4004 5.49827C35.4752 7.80642 32.273 11.1652 30.1546 15.196L26.8981 11.96C26.6375 11.6994 26.2577 11.5977 25.9017 11.693C25.5458 11.7884 25.2677 12.0665 25.1723 12.4224C25.077 12.7784 25.1787 13.1582 25.4393 13.4188L29.189 17.1684C28.0018 19.9849 27.3269 22.9907 27.196 26.0444H21.0322C20.4648 26.0444 20.0049 26.5043 20.0049 27.0717C20.0049 27.639 20.4648 28.099 21.0322 28.099H34.9008C35.1861 29.5057 35.6058 30.8817 36.1541 32.2082H28.2233C27.656 32.2082 27.196 32.6681 27.196 33.2355V34.4682ZM38.4244 32.2082C37.2398 29.6222 36.5665 26.8314 36.4417 23.9897C39.7123 24.0796 42.9112 24.9684 45.7594 26.5786C44.7309 28.4429 44.052 30.4797 43.7562 32.5883C42.3077 32.1157 41.8454 32.2082 38.4244 32.2082ZM58.0973 23.2604C56.9577 23.6552 55.8655 24.1755 54.8408 24.8116C54.0887 23.6681 53.2471 22.586 52.3239 21.5756C51.9267 21.1766 51.387 20.9523 50.824 20.9523C50.261 20.9523 49.7213 21.1766 49.3241 21.5756C48.3978 22.5833 47.556 23.6657 46.8072 24.8116C45.7782 24.1741 44.6828 23.6505 43.5404 23.2501C44.9615 20.5448 47.7661 18.8513 50.822 18.8534C53.8778 18.8556 56.6801 20.553 58.0973 23.2604ZM45.7697 33.5334C46.1292 28.325 50.0535 23.8562 50.9062 22.9933C51.7178 23.8562 55.6421 28.325 56.0427 33.5334C53.7511 34.972 51.9578 37.0809 50.9062 39.5739C49.8405 37.0619 48.0157 34.9462 45.6875 33.5231L45.7697 33.5334ZM52.8786 59.9454H48.7694V51.429C50.11 51.8287 51.538 51.8287 52.8786 51.429V59.9454ZM50.824 49.6723C48.3828 49.6728 46.2785 47.955 45.7902 45.5631H55.8578C55.3695 47.955 53.2652 49.6728 50.824 49.6723ZM72.3974 34.2628C71.8426 40.2006 66.5931 43.5085 63.1516 43.5085H51.8513C52.3855 38.5056 56.6385 34.2628 60.0697 34.2628H72.3974ZM57.8919 32.5986C57.5809 30.4799 56.8846 28.4361 55.8372 26.5683C58.7032 24.9575 61.9197 24.0723 65.2063 23.9897C65.0815 26.8314 64.4082 29.6222 63.2236 32.2082C60.1519 32.2082 59.4328 32.0849 57.8919 32.5986ZM59.5047 6.4023L59.1554 7.09059C58.9018 7.59567 59.1037 8.21079 59.6074 8.46718C59.8511 8.59229 60.1346 8.61491 60.395 8.53004C60.6554 8.44516 60.8712 8.25982 60.9943 8.01517L61.323 7.35769C65.0601 9.57586 68.0696 12.8352 69.9832 16.737L67.5588 19.1511C67.2982 19.4117 67.1964 19.7915 67.2918 20.1475C67.3872 20.5035 67.6652 20.7815 68.0212 20.8769C68.3772 20.9723 68.757 20.8705 69.0176 20.6099L70.8564 18.7608C71.7561 21.0906 72.2764 23.5497 72.3974 26.0444H67.0862C67.1787 25.2944 67.23 24.6267 67.2609 24.0925C67.2907 23.5117 67.073 22.9454 66.6618 22.5342C66.2506 22.123 65.6843 21.9053 65.1035 21.9351C63.4173 22.0269 61.7428 22.271 60.1006 22.6645C59.2109 20.7754 57.7668 19.2023 55.9605 18.1547L58.9602 12.1449C59.1919 11.6406 58.9811 11.0434 58.4841 10.7963C57.9871 10.5491 57.3837 10.7415 57.1214 11.2306L54.0395 17.3225C53.3299 17.0861 52.5958 16.9311 51.8513 16.8603V4.53261C54.4988 4.65912 57.0971 5.29389 59.5047 6.4023ZM30.7916 18.7299C32.7435 20.7229 32.7845 20.9078 33.3598 20.9078C33.7772 20.9103 34.1545 20.6599 34.3146 20.2745C34.4746 19.889 34.3856 19.445 34.0892 19.1511L31.6648 16.737C33.5755 12.8332 36.5856 9.57305 40.325 7.35769L40.6537 8.01517C40.916 8.50431 41.5194 8.69665 42.0164 8.44954C42.5134 8.20243 42.7242 7.60524 42.4926 7.10087L42.1433 6.4023C44.5501 5.29034 47.1486 4.65208 49.7967 4.52233V16.85C49.0531 16.9212 48.3195 17.0728 47.6085 17.302L44.5266 11.2204C44.3703 10.88 44.0411 10.6517 43.6675 10.6245C43.2939 10.5974 42.9351 10.7758 42.7313 11.09C42.5274 11.4043 42.5107 11.8046 42.6878 12.1347L45.6875 18.1547C43.8902 19.2041 42.4564 20.7776 41.5783 22.6645C39.9263 22.2673 38.2412 22.0231 36.5445 21.9351C35.9637 21.9053 35.3974 22.123 34.9862 22.5342C34.575 22.9454 34.3573 23.5117 34.3871 24.0925C34.3871 24.6267 34.4693 25.2944 34.5618 26.0444H29.2506C29.3716 23.5497 29.8919 21.0906 30.7916 18.7608V18.7299Z" fill="#428DFF"/>
<path d="M79.886 6.82363L77.8314 8.87824C77.4286 9.28107 77.4286 9.93418 77.8314 10.337C78.2342 10.7398 78.8874 10.7398 79.2902 10.337L81.3448 8.2824C81.6054 8.02182 81.7072 7.64201 81.6118 7.28604C81.5164 6.93008 81.2383 6.65204 80.8824 6.55666C80.5264 6.46128 80.1466 6.56304 79.886 6.82363Z" fill="#428DFF"/>
<path d="M22.3567 10.337C22.6173 10.5976 22.9971 10.6993 23.3531 10.604C23.7091 10.5086 23.9871 10.2305 24.0825 9.87457C24.1779 9.51861 24.0761 9.1388 23.8155 8.87821L21.7609 6.82361C21.3581 6.42078 20.705 6.42078 20.3021 6.82361C19.8993 7.22643 19.8993 7.87955 20.3021 8.28238L22.3567 10.337Z" fill="#428DFF"/>
<path d="M1.07578 71.6195V79.9595H5.26378V78.8555H2.44378V71.6195H1.07578ZM12.7078 76.6475C12.7078 74.5715 11.2198 73.2395 9.33581 73.2395C7.45181 73.2395 5.96381 74.5715 5.96381 76.6475C5.96381 78.7235 7.39181 80.0675 9.27581 80.0675C11.1718 80.0675 12.7078 78.7235 12.7078 76.6475ZM7.35581 76.6475C7.35581 75.1475 8.27981 74.4275 9.31181 74.4275C10.3318 74.4275 11.3038 75.1475 11.3038 76.6475C11.3038 78.1475 10.2958 78.8795 9.27581 78.8795C8.24381 78.8795 7.35581 78.1475 7.35581 76.6475ZM13.6042 76.6475C13.6042 78.7235 14.9482 80.0675 16.8442 80.0675C18.4642 80.0675 19.5202 79.1675 19.8922 77.8715H18.4162C18.1642 78.5555 17.6602 78.9155 16.8442 78.9155C15.7402 78.9155 15.0082 78.0995 15.0082 76.6475C15.0082 75.2075 15.7402 74.3915 16.8442 74.3915C17.6602 74.3915 18.1882 74.7995 18.4162 75.4355H19.8922C19.5202 74.0435 18.4642 73.2395 16.8442 73.2395C14.9482 73.2395 13.6042 74.5835 13.6042 76.6475ZM20.7995 76.6235C20.7995 78.6635 22.1795 80.0675 23.8955 80.0675C24.9995 80.0675 25.7915 79.5395 26.2115 78.9755V79.9595H27.5915V73.3475H26.2115V74.3075C25.8035 73.7675 25.0355 73.2395 23.9195 73.2395C22.1795 73.2395 20.7995 74.5835 20.7995 76.6235ZM26.2115 76.6475C26.2115 78.0755 25.2395 78.8795 24.2075 78.8795C23.1875 78.8795 22.2035 78.0515 22.2035 76.6235C22.2035 75.1955 23.1875 74.4275 24.2075 74.4275C25.2395 74.4275 26.2115 75.2315 26.2115 76.6475ZM29.3883 79.9595H30.7563V71.0795H29.3883V79.9595ZM35.2135 75.7715C35.2135 78.2795 37.1215 80.0315 39.4735 80.0315C41.2135 80.0315 42.7135 79.1675 43.3495 77.5355H41.7055C41.2615 78.4235 40.4695 78.8435 39.4735 78.8435C37.8175 78.8435 36.6175 77.6555 36.6175 75.7715C36.6175 73.8875 37.8175 72.7115 39.4735 72.7115C40.4695 72.7115 41.2615 73.1315 41.7055 74.0195H43.3495C42.7135 72.3875 41.2135 71.5115 39.4735 71.5115C37.1215 71.5115 35.2135 73.2755 35.2135 75.7715ZM50.9388 73.3475H49.5708V77.0315C49.5708 78.2435 48.9108 78.8675 47.9028 78.8675C46.9068 78.8675 46.2468 78.2435 46.2468 77.0315V73.3475H44.8908V77.2355C44.8908 79.0835 46.0668 80.0555 47.6148 80.0555C48.3948 80.0555 49.1388 79.7315 49.5708 79.1675V79.9595H50.9388V73.3475ZM52.7438 79.9595H54.1118V71.0795H52.7438V79.9595ZM56.1238 78.1235C56.1238 79.4675 56.8558 79.9595 58.0318 79.9595H59.1118V78.8195H58.2718C57.6958 78.8195 57.5038 78.6155 57.5038 78.1235V74.4635H59.1118V73.3475H57.5038V71.7035H56.1238V73.3475H55.3438V74.4635H56.1238V78.1235ZM66.3607 73.3475H64.9927V77.0315C64.9927 78.2435 64.3327 78.8675 63.3247 78.8675C62.3287 78.8675 61.6687 78.2435 61.6687 77.0315V73.3475H60.3127V77.2355C60.3127 79.0835 61.4887 80.0555 63.0367 80.0555C63.8167 80.0555 64.5607 79.7315 64.9927 79.1675V79.9595H66.3607V73.3475ZM69.5336 76.4795C69.5336 75.0755 70.1576 74.6555 71.1656 74.6555H71.5136V73.2395C70.5776 73.2395 69.9176 73.6475 69.5336 74.3075V73.3475H68.1656V79.9595H69.5336V76.4795ZM72.3151 76.6235C72.3151 78.6635 73.6951 80.0675 75.4111 80.0675C76.5151 80.0675 77.3071 79.5395 77.7271 78.9755V79.9595H79.1071V73.3475H77.7271V74.3075C77.3191 73.7675 76.5511 73.2395 75.4351 73.2395C73.6951 73.2395 72.3151 74.5835 72.3151 76.6235ZM77.7271 76.6475C77.7271 78.0755 76.7551 78.8795 75.7231 78.8795C74.7031 78.8795 73.7191 78.0515 73.7191 76.6235C73.7191 75.1955 74.7031 74.4275 75.7231 74.4275C76.7551 74.4275 77.7271 75.2315 77.7271 76.6475ZM80.9039 79.9595H82.2719V71.0795H80.9039V79.9595ZM89 78.1115C88.928 75.7235 85.196 76.4675 85.196 75.1355C85.196 74.6915 85.58 74.3915 86.312 74.3915C87.056 74.3915 87.5 74.7875 87.548 75.3635H88.916C88.844 74.0435 87.86 73.2395 86.36 73.2395C84.8 73.2395 83.816 74.0915 83.816 75.1475C83.816 77.5715 87.656 76.8275 87.656 78.1235C87.656 78.5795 87.236 78.9155 86.444 78.9155C85.688 78.9155 85.172 78.4715 85.124 77.9315H83.708C83.768 79.1315 84.884 80.0675 86.468 80.0675C88.028 80.0675 89 79.2275 89 78.1115ZM98.8993 73.4795C98.9833 72.3395 98.2033 71.4275 96.7513 71.4275C95.3233 71.4275 94.4353 72.2555 94.4353 73.3475C94.4353 73.9355 94.6033 74.3795 95.0713 74.9435C93.7513 75.4835 93.1153 76.4315 93.1153 77.5595C93.1153 79.1195 94.3153 80.1155 96.1153 80.1155C97.2793 80.1155 98.2033 79.7315 99.0073 78.9275L100.039 79.9595H101.827L99.7993 77.9435C99.8953 77.7875 100.003 77.6195 100.099 77.4515L101.179 75.6035H99.7033L98.8513 77.0075L96.6433 74.8115C96.0553 74.1755 95.8033 73.8035 95.8033 73.3475C95.8033 72.9035 96.1513 72.5435 96.6913 72.5435C97.2073 72.5435 97.5553 72.8675 97.5313 73.4795H98.8993ZM96.1153 78.9515C95.1313 78.9515 94.4833 78.3155 94.4833 77.5115C94.4833 76.7675 94.9273 76.1915 95.8993 75.8075L98.1073 78.0275C97.5313 78.6395 96.8953 78.9515 96.1153 78.9515ZM21.3215 90.7355H23.5535V97.9595H24.9215V90.7355H27.1415V89.6195H21.3215V90.7355ZM29.895 94.4795C29.895 93.0755 30.519 92.6555 31.527 92.6555H31.875V91.2395C30.939 91.2395 30.279 91.6475 29.895 92.3075V91.3475H28.527V97.9595H29.895V94.4795ZM32.6764 94.6235C32.6764 96.6635 34.0564 98.0675 35.7724 98.0675C36.8764 98.0675 37.6684 97.5395 38.0884 96.9755V97.9595H39.4684V91.3475H38.0884V92.3075C37.6804 91.7675 36.9124 91.2395 35.7964 91.2395C34.0564 91.2395 32.6764 92.5835 32.6764 94.6235ZM38.0884 94.6475C38.0884 96.0755 37.1164 96.8795 36.0844 96.8795C35.0644 96.8795 34.0804 96.0515 34.0804 94.6235C34.0804 93.1955 35.0644 92.4275 36.0844 92.4275C37.1164 92.4275 38.0884 93.2315 38.0884 94.6475ZM40.8092 94.6235C40.8092 96.6635 42.1892 98.0675 43.9292 98.0675C45.0092 98.0675 45.8012 97.5635 46.2212 96.9635V97.9595H47.6012V89.0795H46.2212V92.2715C45.7172 91.6475 44.8052 91.2395 43.9412 91.2395C42.1892 91.2395 40.8092 92.5835 40.8092 94.6235ZM46.2212 94.6475C46.2212 96.0755 45.2492 96.8795 44.2172 96.8795C43.1972 96.8795 42.2132 96.0515 42.2132 94.6235C42.2132 93.1955 43.1972 92.4275 44.2172 92.4275C45.2492 92.4275 46.2212 93.2315 46.2212 94.6475ZM49.398 97.9595H50.766V91.3475H49.398V97.9595ZM50.094 90.4715C50.574 90.4715 50.958 90.0875 50.958 89.5955C50.958 89.1035 50.574 88.7195 50.094 88.7195C49.602 88.7195 49.218 89.1035 49.218 89.5955C49.218 90.0875 49.602 90.4715 50.094 90.4715ZM52.7781 96.1235C52.7781 97.4675 53.5101 97.9595 54.6861 97.9595H55.7661V96.8195H54.9261C54.3501 96.8195 54.1581 96.6155 54.1581 96.1235V92.4635H55.7661V91.3475H54.1581V89.7035H52.7781V91.3475H51.9981V92.4635H52.7781V96.1235ZM57.027 97.9595H58.395V91.3475H57.027V97.9595ZM57.723 90.4715C58.203 90.4715 58.587 90.0875 58.587 89.5955C58.587 89.1035 58.203 88.7195 57.723 88.7195C57.231 88.7195 56.847 89.1035 56.847 89.5955C56.847 90.0875 57.231 90.4715 57.723 90.4715ZM66.491 94.6475C66.491 92.5715 65.003 91.2395 63.119 91.2395C61.235 91.2395 59.747 92.5715 59.747 94.6475C59.747 96.7235 61.175 98.0675 63.059 98.0675C64.955 98.0675 66.491 96.7235 66.491 94.6475ZM61.139 94.6475C61.139 93.1475 62.063 92.4275 63.095 92.4275C64.115 92.4275 65.087 93.1475 65.087 94.6475C65.087 96.1475 64.079 96.8795 63.059 96.8795C62.027 96.8795 61.139 96.1475 61.139 94.6475ZM72.5354 97.9595H73.8914V94.0595C73.8914 92.2115 72.7274 91.2395 71.1794 91.2395C70.3874 91.2395 69.6554 91.5635 69.2114 92.1035V91.3475H67.8434V97.9595H69.2114V94.2635C69.2114 93.0515 69.8714 92.4275 70.8794 92.4275C71.8754 92.4275 72.5354 93.0515 72.5354 94.2635V97.9595ZM80.5683 96.1115C80.4963 93.7235 76.7643 94.4675 76.7643 93.1355C76.7643 92.6915 77.1483 92.3915 77.8803 92.3915C78.6243 92.3915 79.0683 92.7875 79.1163 93.3635H80.4843C80.4123 92.0435 79.4283 91.2395 77.9283 91.2395C76.3683 91.2395 75.3843 92.0915 75.3843 93.1475C75.3843 95.5715 79.2243 94.8275 79.2243 96.1235C79.2243 96.5795 78.8043 96.9155 78.0123 96.9155C77.2563 96.9155 76.7403 96.4715 76.6923 95.9315H75.2763C75.3363 97.1315 76.4523 98.0675 78.0363 98.0675C79.5963 98.0675 80.5683 97.2275 80.5683 96.1115Z" fill="#428DFF"/>
</svg>
