<svg width="115" height="29" viewBox="0 0 115 29" fill="none" xmlns="http://www.w3.org/2000/svg">
<rect x="0.5" y="0.5" width="114" height="28" rx="14" stroke="#0BBE22"/>
<path d="M33.847 10.333V18H37.532V17.186H34.848V10.333H33.847ZM41.158 12.72C42.192 12.72 43.072 13.369 43.061 14.546H39.255C39.365 13.369 40.179 12.72 41.158 12.72ZM43.974 16.141H42.896C42.676 16.79 42.104 17.252 41.202 17.252C40.179 17.252 39.321 16.581 39.244 15.36H44.062C44.084 15.151 44.095 14.975 44.095 14.755C44.095 13.105 42.951 11.873 41.202 11.873C39.442 11.873 38.221 13.072 38.221 14.975C38.221 16.889 39.486 18.099 41.202 18.099C42.698 18.099 43.666 17.241 43.974 16.141ZM45.0423 14.964C45.0423 16.834 46.2853 18.099 47.8913 18.099C49.0023 18.099 49.7833 17.527 50.1463 16.878V18H51.1583V11.972H50.1463V13.072C49.7943 12.445 49.0243 11.873 47.9023 11.873C46.2853 11.873 45.0423 13.083 45.0423 14.964ZM50.1463 14.975C50.1463 16.394 49.2003 17.219 48.1003 17.219C47.0003 17.219 46.0653 16.383 46.0653 14.964C46.0653 13.545 47.0003 12.742 48.1003 12.742C49.2003 12.742 50.1463 13.578 50.1463 14.975ZM52.4759 14.964C52.4759 16.834 53.7189 18.099 55.3359 18.099C56.4359 18.099 57.2169 17.538 57.5799 16.867V18H58.5919V9.86H57.5799V13.05C57.1619 12.357 56.2929 11.873 55.3469 11.873C53.7189 11.873 52.4759 13.083 52.4759 14.964ZM57.5799 14.975C57.5799 16.394 56.6339 17.219 55.5339 17.219C54.4339 17.219 53.4989 16.383 53.4989 14.964C53.4989 13.545 54.4339 12.742 55.5339 12.742C56.6339 12.742 57.5799 13.578 57.5799 14.975ZM62.8465 12.72C63.8805 12.72 64.7605 13.369 64.7495 14.546H60.9435C61.0535 13.369 61.8675 12.72 62.8465 12.72ZM65.6625 16.141H64.5845C64.3645 16.79 63.7925 17.252 62.8905 17.252C61.8675 17.252 61.0095 16.581 60.9325 15.36H65.7505C65.7725 15.151 65.7835 14.975 65.7835 14.755C65.7835 13.105 64.6395 11.873 62.8905 11.873C61.1305 11.873 59.9095 13.072 59.9095 14.975C59.9095 16.889 61.1745 18.099 62.8905 18.099C64.3865 18.099 65.3545 17.241 65.6625 16.141ZM68.1058 14.722C68.1058 13.325 68.8318 12.896 69.7888 12.896H70.0528V11.862C69.0958 11.862 68.4468 12.28 68.1058 12.951V11.972H67.1048V18H68.1058V14.722ZM72.2093 13.094V9.86H71.2083V18H72.2093V16.889C72.5833 17.549 73.3643 18.099 74.4643 18.099C76.0813 18.099 77.3243 16.834 77.3243 14.964C77.3243 13.083 76.0923 11.873 74.4643 11.873C73.3973 11.873 72.5943 12.423 72.2093 13.094ZM76.3013 14.964C76.3013 16.383 75.3663 17.219 74.2553 17.219C73.1663 17.219 72.2093 16.394 72.2093 14.975C72.2093 13.578 73.1663 12.742 74.2553 12.742C75.3663 12.742 76.3013 13.545 76.3013 14.964ZM84.3619 14.975C84.3619 13.072 83.0309 11.873 81.3149 11.873C79.6099 11.873 78.2679 13.072 78.2679 14.975C78.2679 16.889 79.5659 18.099 81.2709 18.099C82.9869 18.099 84.3619 16.889 84.3619 14.975ZM79.2909 14.975C79.2909 13.457 80.2479 12.742 81.3039 12.742C82.3379 12.742 83.3389 13.457 83.3389 14.975C83.3389 16.504 82.3159 17.219 81.2709 17.219C80.2259 17.219 79.2909 16.504 79.2909 14.975ZM85.3041 14.964C85.3041 16.834 86.5471 18.099 88.1531 18.099C89.2641 18.099 90.0451 17.527 90.4081 16.878V18H91.4201V11.972H90.4081V13.072C90.0561 12.445 89.2861 11.873 88.1641 11.873C86.5471 11.873 85.3041 13.083 85.3041 14.964ZM90.4081 14.975C90.4081 16.394 89.4621 17.219 88.3621 17.219C87.2621 17.219 86.3271 16.383 86.3271 14.964C86.3271 13.545 87.2621 12.742 88.3621 12.742C89.4621 12.742 90.4081 13.578 90.4081 14.975ZM94.1126 14.722C94.1126 13.325 94.8386 12.896 95.7956 12.896H96.0596V11.862C95.1026 11.862 94.4536 12.28 94.1126 12.951V11.972H93.1116V18H94.1126V14.722ZM96.8412 14.964C96.8412 16.834 98.0842 18.099 99.7012 18.099C100.801 18.099 101.582 17.538 101.945 16.867V18H102.957V9.86H101.945V13.05C101.527 12.357 100.658 11.873 99.7122 11.873C98.0842 11.873 96.8412 13.083 96.8412 14.964ZM101.945 14.975C101.945 16.394 100.999 17.219 99.8992 17.219C98.7992 17.219 97.8642 16.383 97.8642 14.964C97.8642 13.545 98.7992 12.742 99.8992 12.742C100.999 12.742 101.945 13.578 101.945 14.975Z" fill="#0BBE22"/>
<path d="M24.4444 9.55556H22.8889V8H15.1111V9.55556H13.5556C12.7 9.55556 12 10.2556 12 11.1111V11.8889C12 13.8722 13.4933 15.49 15.4144 15.7311C15.9044 16.8978 16.9544 17.7767 18.2222 18.0333V20.4444H15.1111V22H22.8889V20.4444H19.7778V18.0333C21.0456 17.7767 22.0956 16.8978 22.5856 15.7311C24.5067 15.49 26 13.8722 26 11.8889V11.1111C26 10.2556 25.3 9.55556 24.4444 9.55556ZM13.5556 11.8889V11.1111H15.1111V14.0822C14.2089 13.7556 13.5556 12.9 13.5556 11.8889ZM19 16.5556C17.7167 16.5556 16.6667 15.5056 16.6667 14.2222V9.55556H21.3333V14.2222C21.3333 15.5056 20.2833 16.5556 19 16.5556ZM24.4444 11.8889C24.4444 12.9 23.7911 13.7556 22.8889 14.0822V11.1111H24.4444V11.8889Z" fill="#0BBE22"/>
</svg>
