<svg width="65" height="84" viewBox="0 0 65 84" fill="none" xmlns="http://www.w3.org/2000/svg">
<path d="M61.0343 11.1065L46.4028 26.5867C44.3818 25.5763 43.3714 25.0711 42.5327 24.6568L42.4316 24.5658L57.9119 8.16601C58.4372 7.60826 59.2201 7.3731 59.9658 7.54911C60.7114 7.72512 61.3065 8.28557 61.5269 9.01933C61.7473 9.7531 61.5595 10.5487 61.0343 11.1065Z" fill="#A4C2F7"/>
<path d="M53.9416 34.6707H10.8252C16.0594 27.3347 14.766 28.9514 17.6155 26.1423C18.6713 25.0955 19.9643 24.319 21.3845 23.8789C23.1023 23.3535 25.5072 22.7573 26.74 21.7771C29.7129 19.7331 33.5949 19.5759 36.7234 21.373C40.553 23.5758 41.0683 23.9193 42.5335 24.6671C43.3217 25.0814 44.3928 25.5967 46.4036 26.5971L48.2426 27.5166C49.6469 28.2132 50.8502 29.2566 51.7388 30.548L53.9416 34.6707Z" fill="#E8EDFC"/>
<path d="M51.738 30.6291C50.8494 29.3378 49.646 28.2944 48.2418 27.5978C44.2915 25.7642 40.4459 23.7132 36.7225 21.4541C34.8392 20.3734 32.639 19.9805 30.498 20.3426C31.6204 20.5188 32.702 20.8953 33.6911 21.4541C37.4145 23.7132 41.2601 25.7642 45.2104 27.5978C46.6146 28.2944 47.818 29.3378 48.7066 30.6291L50.9094 34.671H53.9408L51.738 30.6291Z" fill="#CAD9FC"/>
<path d="M30.4984 26.7491L31.5088 25.1223C31.6789 24.8142 31.9882 24.6081 32.3381 24.5699C32.6879 24.5317 33.0345 24.6661 33.267 24.9303L35.0454 26.8704C35.4329 27.3081 35.4903 27.9471 35.1869 28.4467L34.1765 30.0736C34.0064 30.3817 33.697 30.5878 33.3472 30.626C32.9973 30.6642 32.6508 30.5297 32.4182 30.2656L30.6398 28.3255C30.2524 27.8878 30.195 27.2488 30.4984 26.7491Z" fill="#CAD9FC"/>
<path d="M18.0087 34.6705L17.7258 34.4987C17.4177 34.3287 17.2116 34.0193 17.1734 33.6695C17.1352 33.3196 17.2697 32.973 17.5338 32.7405L19.4739 30.9621C19.9116 30.5746 20.5506 30.5173 21.0502 30.8206L22.6771 31.8311C22.9852 32.0011 23.1913 32.3105 23.2295 32.6604C23.2677 33.0102 23.1332 33.3568 22.8691 33.5893L21.6666 34.6705H18.0087Z" fill="#CAD9FC"/>
<path d="M44.1793 34.6705L44.4521 34.4987C44.7603 34.3287 44.9664 34.0193 45.0046 33.6695C45.0428 33.3196 44.9083 32.973 44.6441 32.7405L42.704 30.9621C42.2664 30.5746 41.6274 30.5173 41.1277 30.8206L39.511 31.8311C39.2028 32.0011 38.9967 32.3105 38.9585 32.6604C38.9203 33.0102 39.0548 33.3568 39.319 33.5893L40.5214 34.6705H44.1793Z" fill="#CAD9FC"/>
<path d="M61.6306 31.4271V33.3065C61.6321 33.5333 61.5574 33.7539 61.4184 33.933L55.7598 41.2084C56.1264 39.7836 56.3698 38.3299 56.4873 36.8634C56.5352 36.3223 56.3516 35.7862 55.9821 35.3881L59.8218 30.8208C60.0851 30.4815 60.5341 30.3456 60.9413 30.4821C61.3485 30.6186 61.625 30.9976 61.6306 31.4271Z" fill="#A4C2F7"/>
<path d="M8.89496 41.1675L3.23636 33.8922C3.10564 33.7241 3.03137 33.519 3.02417 33.3061V31.4267C3.00756 30.9879 3.27626 30.5886 3.68901 30.4387C4.10177 30.2888 4.56407 30.4226 4.83289 30.7699L8.66255 35.3473C8.30156 35.7459 8.12225 36.2765 8.16742 36.8124C8.28438 38.2823 8.52779 39.7394 8.89496 41.1675Z" fill="#A4C2F7"/>
<path d="M51.4254 58.7799L49.9805 59.6489C49.6744 59.8305 49.3259 59.9281 48.97 59.9318H15.6955C15.3396 59.9281 14.991 59.8305 14.685 59.6489L13.24 58.7799C12.8487 58.5477 12.6608 58.0825 12.7812 57.6437C12.9015 57.2049 13.3003 56.9006 13.7554 56.9004H50.9C51.3569 56.896 51.76 57.1987 51.883 57.6388C52.0061 58.0789 51.8184 58.5468 51.4254 58.7799Z" fill="#7FACFA"/>
<path d="M48.394 58.7799L46.9491 59.6489C46.643 59.8305 46.2945 59.9281 45.9386 59.9318H15.6955C15.3396 59.9281 14.991 59.8305 14.685 59.6489L13.24 58.7799C12.8487 58.5477 12.6608 58.0825 12.7812 57.6437C12.9015 57.2049 13.3003 56.9006 13.7554 56.9004H47.8686C48.3255 56.896 48.7286 57.1987 48.8516 57.6388C48.9747 58.0789 48.787 58.5468 48.394 58.7799Z" fill="#A4C2F7"/>
<path d="M56.4883 36.8232C56.3708 38.2897 56.1274 39.7434 55.7608 41.1682C54.1035 47.8158 49.804 53.4986 43.8575 56.9011H20.7988C14.8523 53.4986 10.5528 47.8158 8.89553 41.1682C8.52893 39.7434 8.28553 38.2897 8.16799 36.8232C8.12282 36.2873 8.30213 35.7567 8.66312 35.358C9.04623 34.9219 9.59835 34.6716 10.1788 34.6709H54.4775C55.0513 34.6694 55.5987 34.9119 55.9831 35.3378C56.3554 35.7384 56.5392 36.2787 56.4883 36.8232Z" fill="#A4C2F7"/>
<path d="M53.4563 36.8232C52.8349 45.1959 48.1039 52.7162 40.8255 56.9011H20.7982C13.5198 52.7162 8.78881 45.1959 8.16736 36.8232C8.13099 36.2648 8.32774 35.7164 8.71075 35.3085C9.09377 34.9006 9.62875 34.6697 10.1883 34.6709H51.4455C52.0033 34.6725 52.5356 34.9046 52.9164 35.3122C53.2972 35.7197 53.4926 36.2666 53.4563 36.8232Z" fill="#E8EDFC"/>
<path d="M18.768 6.70086C18.9262 6.20562 18.7095 5.66788 18.2522 5.42065C17.7948 5.17343 17.2263 5.28673 16.8986 5.69039C15.7646 6.94027 15.1408 8.57009 15.1505 10.2577C15.1813 10.99 15.3968 11.7025 15.777 12.3291C16.3286 13.28 17.0719 14.1058 17.9596 14.7542C18.9094 15.4616 20.5363 16.9065 20.5363 18.3414V18.5031C20.5617 18.983 20.9008 19.3885 21.3686 19.4985C21.8365 19.6084 22.3207 19.3964 22.5572 18.978C23.017 17.9878 23.2484 16.9069 23.2342 15.8152C23.2342 14.3804 21.5973 12.9354 20.6575 12.2281C19.9934 11.7689 19.4353 11.1728 19.0206 10.48C18.6256 9.85636 18.4089 9.13648 18.3941 8.39843C18.423 7.81567 18.5494 7.24187 18.768 6.70086Z" fill="#E8EDFC"/>
<path d="M36.369 2.93212C36.4923 2.40881 36.2563 1.86679 35.7892 1.60054C35.3221 1.3343 34.7355 1.40743 34.3481 1.78019C33.048 3.3054 32.3318 5.24271 32.3271 7.2468C32.3638 8.12592 32.6061 8.9842 33.0345 9.75275C33.6435 10.8875 34.4793 11.8849 35.4899 12.6831C36.5004 13.5521 38.3899 15.2901 38.3899 17.0281V17.1999C38.3389 17.7885 38.7231 18.327 39.2962 18.4703C39.8694 18.6136 40.4618 18.3192 40.6938 17.7758C41.1982 16.5703 41.446 15.2729 41.4213 13.9664C41.4213 12.2284 39.5823 10.4904 38.5213 9.63149C37.7644 9.06293 37.1375 8.33952 36.6822 7.50952C36.2316 6.75035 35.9877 5.88634 35.9749 5.00357C36.002 4.29728 36.1349 3.59904 36.369 2.93212Z" fill="#E8EDFC"/>
<path d="M16.7852 56.9009H13.7538C13.2969 56.8965 12.8938 57.1992 12.7708 57.6393C12.6478 58.0794 12.8354 58.5472 13.2284 58.7804L14.6734 59.6494C15.1382 59.9222 14.2389 59.9525 23.1613 59.9525C17.4926 59.9525 18.1089 59.8818 17.7048 59.6494L16.2598 58.7804C15.8668 58.5472 15.6792 58.0794 15.8022 57.6393C15.9252 57.1992 16.3283 56.8965 16.7852 56.9009Z" fill="white"/>
<path d="M20.7975 56.9009H23.8289C17.8872 53.493 13.5894 47.8125 11.9257 41.168C11.9257 41.2691 12.3096 41.7036 6.26707 33.9331C6.05487 33.6603 6.05487 33.438 6.05487 32.2254L4.83221 30.7704C4.56339 30.4231 4.10108 30.2893 3.68833 30.4392C3.27558 30.589 3.00688 30.9883 3.02348 31.4272C3.02348 33.3875 2.95275 33.5895 3.23568 33.9331C9.29846 41.7036 8.89427 41.2691 8.89427 41.168C10.558 47.8125 14.8558 53.493 20.7975 56.9009Z" fill="white"/>
<path d="M10.8555 48.5041L12.5935 47.4937C13.9144 49.724 15.5902 51.724 17.5548 53.415L16.2311 54.8801C14.1128 53.053 12.2983 50.9008 10.8555 48.5041Z" fill="white"/>
<path d="M59.0542 30.124L55.8005 33.9738C55.5694 33.8597 55.325 33.7749 55.0729 33.7212C52.1325 29.3459 51.7485 28.1435 48.1108 26.3246L61.7723 11.7942C62.948 10.5224 62.8776 8.54042 61.6147 7.35525C60.3518 6.17008 58.3693 6.22556 57.1747 7.4795L42.1895 23.3539L37.2282 20.5246C33.7455 18.5198 29.4203 18.6967 26.1131 20.9793C23.3141 22.9194 20.0503 22.2828 16.8471 25.4556C13.644 28.6285 14.8262 27.2138 10.5115 33.6909C9.91693 33.6407 9.31984 33.7524 8.78364 34.0143L5.61078 30.124C5.06963 29.449 4.15892 29.1934 3.34558 29.4881C2.53225 29.7828 1.9967 30.5625 2.01353 31.4275C2.01353 33.216 1.88217 33.8425 2.43793 34.5599L7.99547 41.7443C8.6265 44.1367 9.58902 46.4291 10.8551 48.5548C10.9952 48.7875 11.2231 48.9539 11.4873 49.0167C11.7515 49.0794 12.0299 49.0331 12.2596 48.8883C12.7262 48.5972 12.8744 47.9865 12.5931 47.514C10.6386 44.2345 9.4664 40.5486 9.16761 36.7425C9.16761 36.1844 9.62001 35.732 10.1781 35.732H54.4768C55.0348 35.732 55.4872 36.1844 55.4872 36.7425C54.9081 44.6938 50.4579 51.8526 43.584 55.8908H21.0911C19.8363 55.1681 18.6522 54.3291 17.5545 53.3848C17.1351 53.1154 16.582 53.192 16.2516 53.5652C15.9213 53.9384 15.9124 54.4968 16.2307 54.8803C16.6349 55.2239 17.0593 55.527 17.4736 55.8908H13.7551C12.8487 55.9 12.0594 56.5116 11.8241 57.387C11.5888 58.2623 11.9651 59.1872 12.7446 59.6497C14.1088 60.4682 14.6948 60.9431 15.7255 60.9431H48.9596C50.0307 60.9431 50.6067 60.448 51.9405 59.6497C52.7201 59.1872 53.0964 58.2623 52.8611 57.387C52.6257 56.5116 51.8364 55.9 50.93 55.8908H47.2216C51.8759 52.3388 55.2057 47.3297 56.6796 41.6635L62.2169 34.5902C62.7323 33.9132 62.6413 33.4989 62.6413 31.4578C62.666 30.5925 62.1369 29.8076 61.3255 29.5059C60.5142 29.2042 59.6008 29.4528 59.0542 30.124ZM49.5053 58.7807C49.1617 58.9929 51.4252 58.9222 15.7457 58.9222C15.3921 58.9222 15.3415 58.8312 13.8056 57.9117H50.8997L49.5053 58.7807ZM58.7005 8.86383C59.1456 8.52723 59.7696 8.56533 60.1705 8.95358C60.5713 9.34182 60.6293 9.96432 60.3071 10.4199L46.2213 25.3849L44.069 24.3037L58.7005 8.86383ZM18.3224 26.8602C21.1012 24.1117 24.1326 24.8393 27.3155 22.6162C29.9674 20.7887 33.4322 20.6434 36.2278 22.2424C39.9702 24.5045 43.8287 26.5687 47.7875 28.4264C50.0813 29.5682 50.8189 31.0031 52.5872 33.6606H46.0091C46.0569 33.0295 45.8064 32.4124 45.3321 31.9933L43.4425 30.2149C42.6708 29.5237 41.537 29.421 40.6536 29.9623L39.0369 30.9728C38.0614 31.4803 37.6708 32.6747 38.1578 33.6606H24.0113C24.5277 32.6961 24.1828 31.4958 23.2333 30.9526L21.6064 29.9421C20.727 29.399 19.5947 29.502 18.8276 30.1947L16.8875 31.9731C16.4002 32.3951 16.1323 33.0165 16.16 33.6606H12.9872C16.3722 28.5476 15.3921 29.7602 18.3224 26.8602ZM39.9665 32.7613C39.9665 32.7613 39.9665 32.7007 40.0373 32.6703L41.654 31.6599C41.7684 31.5886 41.9134 31.5886 42.0279 31.6599L44.0488 33.4989C44.0488 33.6202 44.1195 33.5798 40.9568 33.6101L39.9665 32.7613ZM18.1809 33.4888L20.2019 31.7104C20.3124 31.6384 20.4551 31.6384 20.5656 31.7104C22.3845 32.8219 22.2834 32.7209 22.2228 32.8522L21.3134 33.6909C18.282 33.6909 18.3931 33.6909 18.282 33.6909C18.1708 33.6909 18.1809 33.5798 18.1809 33.4888ZM7.20731 37.3993L4.03446 33.3069V31.4275L7.40941 35.4693C7.19961 35.9243 7.10587 36.4243 7.13658 36.9244C7.1669 37.0659 7.19721 37.2376 7.20731 37.3993ZM60.6204 33.3575L57.4475 37.3993C57.5926 36.7193 57.5147 36.0106 57.2252 35.3784L60.6204 31.3365V33.3575Z" fill="#428DFF"/>
<path d="M14.0681 52.2934C13.51 52.2934 13.0576 51.841 13.0576 51.2829C13.0576 50.7249 13.51 50.2725 14.0681 50.2725C14.6261 50.2725 15.0785 50.7249 15.0785 51.2829C15.0785 51.841 14.6261 52.2934 14.0681 52.2934Z" fill="#428DFF"/>
<path d="M31.3175 38.7121C31.3175 38.1541 30.8651 37.7017 30.307 37.7017H13.7354C13.1098 37.7006 12.5189 37.9893 12.1353 38.4836C11.7517 38.9779 11.6187 39.622 11.7751 40.2278C12.6098 43.6522 14.2365 46.8328 16.5243 49.514C16.7163 49.7384 16.9969 49.8677 17.2923 49.8676C17.6849 49.8638 18.0397 49.6328 18.2022 49.2754C18.3646 48.9179 18.3053 48.4987 18.0501 48.2004C15.9706 45.7495 14.493 42.8463 13.7354 39.7226H30.307C30.8651 39.7226 31.3175 39.2702 31.3175 38.7121Z" fill="#428DFF"/>
<path d="M31.6707 30.9423C32.1128 31.4431 32.7675 31.7027 33.4327 31.6407C34.0979 31.5788 34.6935 31.2029 35.0355 30.629L36.046 29.0022C36.589 28.1228 36.4861 26.9904 35.7934 26.2234L34.0149 24.2833C33.5684 23.7852 32.9106 23.5308 32.2451 23.5987C31.5796 23.6667 30.9868 24.0488 30.6501 24.6269L29.6396 26.2537C29.0966 27.1331 29.1995 28.2654 29.8923 29.0325L31.6707 30.9423ZM31.317 27.2743C32.4285 25.4554 32.3275 25.5565 32.4588 25.6171L34.2777 27.5976C34.3496 27.7082 34.3496 27.8508 34.2777 27.9614C33.2066 29.7297 33.3379 29.6185 33.1662 29.6185L31.3877 27.5976C31.3086 27.51 31.2817 27.387 31.317 27.2743Z" fill="#428DFF"/>
<path d="M16.1606 5.07425C14.8635 6.48933 14.1427 8.33836 14.1396 10.2579C14.1396 12.2788 15.716 14.2998 17.3529 15.5629C18.6968 16.5733 19.5254 17.6343 19.5254 18.4326C19.4997 19.4208 20.1694 20.2921 21.131 20.5215C22.0925 20.7509 23.0834 20.2758 23.5066 19.3824C24.0084 18.261 24.2601 17.0439 24.2443 15.8155C24.2443 14.0371 22.6275 12.4405 21.2634 11.4301C20.2152 10.7547 19.531 9.63919 19.4042 8.39867C19.4306 7.92952 19.5366 7.46826 19.7174 7.03455C19.9883 6.09971 19.5752 5.10195 18.7228 4.63216C17.8704 4.16237 16.8063 4.34598 16.1606 5.07425ZM20.0711 13.0367C21.4049 14.0472 22.2436 15.1081 22.2436 15.8155C22.2622 16.7548 22.0724 17.6866 21.6878 18.5437C21.1927 18.7862 22.5063 16.8967 18.5857 13.9461C17.4338 13.0973 16.1606 11.5715 16.1606 10.2579C16.1604 8.8105 16.7219 7.41947 17.7268 6.37775H17.7975C17.5503 7.02433 17.4104 7.70696 17.3832 8.39867C17.4834 10.2812 18.474 12.0035 20.0509 13.0367H20.0711Z" fill="#428DFF"/>
<path d="M41.6242 18.1799C42.1783 16.8452 42.4534 15.4112 42.4325 13.9662C42.4325 11.9453 40.6541 10.0557 39.1586 8.84319C37.9051 7.94493 37.1105 6.54051 36.9861 5.00343C37.0238 4.40349 37.1568 3.8134 37.3802 3.25533C37.7656 2.22037 37.3328 1.05941 36.364 0.52933C35.3951 -0.000750929 34.184 0.260798 33.5202 1.14346C32.0906 2.8394 31.3099 4.98809 31.3174 7.20624C31.3174 9.55051 33.0352 11.9655 34.8541 13.4408C35.8645 14.2997 37.4105 15.7649 37.3802 17.1189C37.31 18.1912 38.0168 19.1602 39.0593 19.4209C40.1018 19.6815 41.1815 19.1591 41.6242 18.1799ZM36.1272 11.9049C34.753 10.7934 33.3384 8.88361 33.3384 7.23655C33.3304 5.47334 33.9501 3.76483 35.0865 2.41664C35.1037 2.36228 35.1468 2.32001 35.2014 2.30382C35.2561 2.28762 35.3152 2.2996 35.3593 2.33581C35.4058 2.35321 35.4425 2.38988 35.4599 2.43637C35.4774 2.48287 35.4738 2.53463 35.4502 2.57832C35.1829 3.35061 35.0264 4.1569 34.9854 4.97311C35.0749 7.13476 36.1419 9.1386 37.8854 10.4195C39.4719 11.6927 40.4116 13.0265 40.4116 13.9662C40.4355 15.134 40.2152 16.2938 39.7649 17.3715C39.7559 17.415 39.7284 17.4523 39.6895 17.4737C39.6506 17.4951 39.6043 17.4984 39.5628 17.4826C38.9565 17.3412 40.4116 15.3607 36.1272 11.9049Z" fill="#428DFF"/>
<path d="M1.29648 70.6029V78.9429H5.48448V77.8389H2.66448V70.6029H1.29648ZM12.9285 75.6309C12.9285 73.5549 11.4405 72.2229 9.55652 72.2229C7.67252 72.2229 6.18452 73.5549 6.18452 75.6309C6.18452 77.7069 7.61252 79.0509 9.49652 79.0509C11.3925 79.0509 12.9285 77.7069 12.9285 75.6309ZM7.57652 75.6309C7.57652 74.1309 8.50052 73.4109 9.53252 73.4109C10.5525 73.4109 11.5245 74.1309 11.5245 75.6309C11.5245 77.1309 10.5165 77.8629 9.49652 77.8629C8.46452 77.8629 7.57652 77.1309 7.57652 75.6309ZM13.8249 75.6309C13.8249 77.7069 15.1689 79.0509 17.0649 79.0509C18.6849 79.0509 19.7409 78.1509 20.1129 76.8549H18.6369C18.3849 77.5389 17.8809 77.8989 17.0649 77.8989C15.9609 77.8989 15.2289 77.0829 15.2289 75.6309C15.2289 74.1909 15.9609 73.3749 17.0649 73.3749C17.8809 73.3749 18.4089 73.7829 18.6369 74.4189H20.1129C19.7409 73.0269 18.6849 72.2229 17.0649 72.2229C15.1689 72.2229 13.8249 73.5669 13.8249 75.6309ZM21.0202 75.6069C21.0202 77.6469 22.4002 79.0509 24.1162 79.0509C25.2202 79.0509 26.0122 78.5229 26.4322 77.9589V78.9429H27.8122V72.3309H26.4322V73.2909C26.0242 72.7509 25.2562 72.2229 24.1402 72.2229C22.4002 72.2229 21.0202 73.5669 21.0202 75.6069ZM26.4322 75.6309C26.4322 77.0589 25.4602 77.8629 24.4282 77.8629C23.4082 77.8629 22.4242 77.0349 22.4242 75.6069C22.4242 74.1789 23.4082 73.4109 24.4282 73.4109C25.4602 73.4109 26.4322 74.2149 26.4322 75.6309ZM29.609 78.9429H30.977V70.0629H29.609V78.9429ZM35.8902 78.9429H37.2582V75.2949H40.0182V74.1789H37.2582V71.7189H40.7982V70.6029H35.8902V78.9429ZM48.366 75.6309C48.366 73.5549 46.878 72.2229 44.994 72.2229C43.11 72.2229 41.622 73.5549 41.622 75.6309C41.622 77.7069 43.05 79.0509 44.934 79.0509C46.83 79.0509 48.366 77.7069 48.366 75.6309ZM43.014 75.6309C43.014 74.1309 43.938 73.4109 44.97 73.4109C45.99 73.4109 46.962 74.1309 46.962 75.6309C46.962 77.1309 45.954 77.8629 44.934 77.8629C43.902 77.8629 43.014 77.1309 43.014 75.6309ZM56.0184 75.6309C56.0184 73.5549 54.5304 72.2229 52.6464 72.2229C50.7624 72.2229 49.2744 73.5549 49.2744 75.6309C49.2744 77.7069 50.7024 79.0509 52.5864 79.0509C54.4824 79.0509 56.0184 77.7069 56.0184 75.6309ZM50.6664 75.6309C50.6664 74.1309 51.5904 73.4109 52.6224 73.4109C53.6424 73.4109 54.6144 74.1309 54.6144 75.6309C54.6144 77.1309 53.6064 77.8629 52.5864 77.8629C51.5544 77.8629 50.6664 77.1309 50.6664 75.6309ZM56.9147 75.6069C56.9147 77.6469 58.2947 79.0509 60.0347 79.0509C61.1147 79.0509 61.9067 78.5469 62.3267 77.9469V78.9429H63.7067V70.0629H62.3267V73.2549C61.8227 72.6309 60.9107 72.2229 60.0467 72.2229C58.2947 72.2229 56.9147 73.5669 56.9147 75.6069ZM62.3267 75.6309C62.3267 77.0589 61.3547 77.8629 60.3227 77.8629C59.3027 77.8629 58.3187 77.0349 58.3187 75.6069C58.3187 74.1789 59.3027 73.4109 60.3227 73.4109C61.3547 73.4109 62.3267 74.2149 62.3267 75.6309Z" fill="#428DFF"/>
</svg>
