<svg width="92" height="102" viewBox="0 0 92 102" fill="none" xmlns="http://www.w3.org/2000/svg">
<path d="M74.6169 47.828C74.8998 44.8875 75.1524 42.1997 75.3141 39.7443C75.4354 37.9457 75.5162 36.2582 75.5263 34.692C75.5576 33.3437 75.5205 31.9947 75.4152 30.6501C74.7179 21.8894 70.8782 17.2211 59.4599 13.4722L59.3084 13.5531C58.0993 11.5263 56.6282 9.66788 54.9331 8.02586L47.7083 1.85193C46.9078 1.17957 45.74 1.17957 44.9396 1.85193L37.7249 8.02586C35.9255 9.58618 34.4138 11.4501 33.2586 13.5329L33.1879 13.4722C21.7697 17.2211 17.9299 21.8894 17.2327 30.6501C17.1273 31.9947 17.0902 33.3437 17.1216 34.692C17.1216 36.2582 17.2125 37.9457 17.3338 39.7443C17.4954 42.1997 17.748 44.8875 18.031 47.828C17.4729 47.828 17.0205 48.2804 17.0205 48.8385V58.9431C17.0205 59.5011 17.4729 59.9535 18.031 59.9535H74.6169C75.175 59.9535 75.6274 59.5011 75.6274 58.9431V48.8385C75.6274 48.2804 75.175 47.828 74.6169 47.828Z" fill="#9FC9D3"/>
<path d="M74.6169 47.8267H18.031C17.4729 47.8267 17.0205 48.2791 17.0205 48.8371V58.9418C17.0205 59.4998 17.4729 59.9522 18.031 59.9522H74.6169C75.175 59.9522 75.6274 59.4998 75.6274 58.9418V48.8371C75.6274 48.2791 75.175 47.8267 74.6169 47.8267Z" fill="#7FACFA"/>
<path d="M71.5855 47.8267H18.031C17.4729 47.8267 17.0205 48.2791 17.0205 48.8371V58.9418C17.0205 59.4998 17.4729 59.9522 18.031 59.9522H71.5855C72.1436 59.9522 72.596 59.4998 72.596 58.9418V48.8371C72.596 48.2791 72.1436 47.8267 71.5855 47.8267Z" fill="#A4C2F7"/>
<path d="M38.2412 47.8267H54.4086V59.9522H38.2412V47.8267Z" fill="#A4C2F7"/>
<path d="M38.2412 47.8267H51.3772V59.9522H38.2412V47.8267Z" fill="#E8EDFC"/>
<path d="M38.2412 51.8687H54.4086V55.9105H38.2412V51.8687Z" fill="#A4C2F7"/>
<path d="M38.2412 51.8687H51.3772V55.9105H38.2412V51.8687Z" fill="#E8EDFC"/>
<path d="M57.8736 47.8267H53.3972L52.0129 44.9267C50.7988 42.3399 49.1167 40.0001 47.0515 38.0252C46.8611 37.8276 46.5984 37.716 46.324 37.716C46.0496 37.716 45.7869 37.8276 45.5965 38.0252C43.5313 40.0001 41.8492 42.3399 40.6351 44.9267L39.2508 47.8267H34.7744L36.9873 43.1887C38.266 40.4906 39.9721 38.0168 42.0396 35.8628C42.3024 35.6001 42.5651 35.3374 42.8379 35.0847C44.7923 33.2113 47.876 33.2113 49.8303 35.0847C50.093 35.3374 50.3558 35.59 50.6185 35.8628C52.6878 38.0153 54.3941 40.4895 55.6708 43.1887L57.8736 47.8267Z" fill="#E8EDFC"/>
<path d="M53.3975 47.827H39.251L40.6353 44.927C41.8494 42.3403 43.5315 40.0004 45.5967 38.0255C45.7871 37.8279 46.0498 37.7163 46.3242 37.7163C46.5987 37.7163 46.8613 37.8279 47.0517 38.0255C49.117 40.0004 50.7991 42.3403 52.0131 44.927L53.3975 47.827Z" fill="#7FACFA"/>
<path d="M40.2617 16.8159C40.2617 16.8159 31.1676 26.102 31.1676 47.827H27.1257C26.4965 45.1771 26.1577 42.4665 26.1152 39.7433C26.0502 36.6532 26.5255 33.5756 27.5198 30.6491C28.1732 28.7328 29.0589 26.9037 30.1571 25.2027C32.2518 22.1201 34.7921 19.3653 37.6952 17.0281L37.968 16.826C38.6697 16.3911 39.5562 16.3872 40.2617 16.8159Z" fill="#E8EDFC"/>
<path d="M46.3237 1.34532C45.9935 1.36516 45.698 1.55704 45.5456 1.85065L41.5037 8.02458C39.8343 10.7296 38.6479 13.7042 37.9974 16.8156L37.7246 17.0177C34.8108 19.3526 32.2602 22.1076 30.1562 25.1923C30.1883 21.107 31.2518 17.096 33.2483 13.5316C34.4035 11.4488 35.9151 9.58491 37.7145 8.02458L44.9393 1.85065C45.3242 1.51988 45.8162 1.34032 46.3237 1.34532Z" fill="#CAD9FC"/>
<path d="M61.481 47.8267H57.8736L55.6607 43.1887C54.384 40.4895 52.6777 38.0153 50.6084 35.8628C52.9021 32.0635 52.6293 24.5759 51.4269 18.9072C51.2572 18.0651 51.6707 17.2133 52.4373 16.8257C52.4373 16.8257 61.481 26.1017 61.481 47.8267Z" fill="#E8EDFC"/>
<path d="M54.6605 16.8159C53.9669 16.4004 53.1009 16.4004 52.4072 16.8159C51.6406 17.2035 51.2271 18.0553 51.3967 18.8974C52.5588 24.5661 52.872 32.0335 50.5783 35.853C50.3155 35.5802 50.0528 35.3276 49.7901 35.075C48.8515 34.1905 47.6139 33.6925 46.3242 33.6805V1.3457C46.6544 1.36544 46.9499 1.55732 47.1023 1.85093L51.1441 8.02486C52.8469 10.714 54.039 13.6942 54.6605 16.8159Z" fill="#CAD9FC"/>
<path d="M42.0304 35.8627C39.9629 38.0167 38.2568 40.4905 36.9781 43.1885L34.7753 47.8265H31.168C31.168 26.1016 40.2621 16.8154 40.2621 16.8154C41.0237 17.2081 41.4352 18.0558 41.2726 18.897C40.0499 24.5859 39.7367 32.0633 42.0304 35.8627Z" fill="#E8EDFC"/>
<path d="M46.324 1.3457V33.6805C45.0211 33.6804 43.7685 34.1836 42.8278 35.0851C42.555 35.3377 42.2923 35.6004 42.0295 35.8631C39.7358 32.0638 40.0086 24.5661 41.2111 18.8974C41.3736 18.0562 40.9621 17.2085 40.2006 16.8159C39.5069 16.4004 38.6409 16.4004 37.9473 16.8159C38.5977 13.7045 39.7842 10.7299 41.4536 8.02486L45.4954 1.85093C45.6566 1.54191 45.9755 1.34744 46.324 1.3457V1.3457Z" fill="#CAD9FC"/>
<path d="M62.4916 25.1822C60.4003 22.1031 57.8633 19.3516 54.9637 17.0177C54.8761 16.9414 54.7813 16.8737 54.6807 16.8156C54.0655 13.6953 52.8802 10.7152 51.1845 8.02458L47.1427 1.85065C46.9833 1.5448 46.6691 1.35087 46.3242 1.34532C46.8317 1.34032 47.3237 1.51988 47.7086 1.85065L54.9334 8.02458C56.6285 9.66661 58.0996 11.525 59.3087 13.5518C61.4939 17.0297 62.6014 21.0763 62.4916 25.1822Z" fill="#CAD9FC"/>
<path d="M75.4157 30.6491H65.1191C64.4687 28.7269 63.5865 26.8911 62.4919 25.1825C62.6126 21.5542 61.7576 17.96 60.0162 14.7747C59.804 14.3604 59.5716 13.9562 59.3291 13.552L59.4605 13.4712C70.8787 17.22 74.7185 21.8883 75.4157 30.6491Z" fill="#CAD9FC"/>
<path d="M72.3847 30.6488H65.1194C64.4691 28.7266 63.5869 26.8909 62.4922 25.1822C62.613 21.5539 61.758 17.9597 60.0166 14.7744C68.6662 18.3211 71.7683 22.8682 72.3847 30.6488Z" fill="#F5F5F5"/>
<path d="M75.5269 34.6908C75.5269 36.257 75.436 37.9445 75.3147 39.7431C75.153 42.1985 74.9004 44.8863 74.6175 47.8268H65.5233C66.1519 45.1768 66.4907 42.4663 66.5338 39.7431C66.5972 36.6523 66.1184 33.5744 65.1191 30.6489H75.4158C75.5211 31.9935 75.5582 33.3425 75.5269 34.6908Z" fill="#CAD9FC"/>
<path d="M72.4955 34.6908C72.4955 36.257 72.4046 37.9445 72.2833 39.7431C72.1216 42.1985 71.869 44.8863 71.5861 47.8268H65.5233C66.1519 45.1768 66.4907 42.4663 66.5338 39.7431C66.5972 36.6523 66.1184 33.5744 65.1191 30.6489H72.3844C72.4898 31.9935 72.5269 33.3425 72.4955 34.6908Z" fill="#E8EDFC"/>
<path d="M66.5342 39.7429C66.4911 42.4661 66.1523 45.1766 65.5237 47.8266H61.4819C61.4819 26.1017 52.3877 16.8155 52.3877 16.8155C53.0814 16.4 53.9474 16.4 54.641 16.8155C54.7416 16.8736 54.8364 16.9413 54.924 17.0176C57.8379 19.3485 60.3887 22.1001 62.4923 25.1821C63.5869 26.8908 64.4692 28.7265 65.1195 30.6487C66.1188 33.5742 66.5976 36.6521 66.5342 39.7429Z" fill="#E8EDFC"/>
<path d="M33.2593 13.5318C31.2594 17.0953 30.1923 21.1064 30.1572 25.1926C29.0583 26.8967 28.1726 28.7292 27.5199 30.6491H17.2334C17.9306 21.8883 21.7704 17.22 33.1886 13.4712L33.2593 13.5318Z" fill="#F5F5F5"/>
<path d="M27.5198 30.6489H17.2332C17.1279 31.9935 17.0908 33.3425 17.1221 34.6908C17.1221 36.257 17.213 37.9445 17.3343 39.7431C17.496 42.1985 17.7486 44.8863 18.0315 47.8268H27.1257C26.4964 45.1769 26.1576 42.4663 26.1152 39.7431C26.0502 36.653 26.5255 33.5754 27.5198 30.6489Z" fill="#E8EDFC"/>
<path d="M18.031 59.9523H21.0624C20.5043 59.9523 20.0519 59.4999 20.0519 58.9418V48.8372C20.0519 48.2791 20.5043 47.8267 21.0624 47.8267C19.1223 27.6175 18.516 19.2811 36.2193 13.471L36.29 13.5316C38.5939 9.48975 40.3319 8.35803 47.8396 1.9618L47.7083 1.85065C46.9094 1.17413 45.7385 1.17413 44.9396 1.85065C37.3409 8.35803 35.5726 9.42912 33.2586 13.5316L33.1879 13.471C15.4846 19.2811 16.0909 27.6175 18.031 47.8267C17.4729 47.8267 17.0205 48.2791 17.0205 48.8372V58.9418C17.0205 59.4999 17.4729 59.9523 18.031 59.9523Z" fill="white"/>
<path d="M16.0105 52.4443H18.0314V60.9625C17.3443 60.9614 16.7049 60.6112 16.3339 60.0329C15.9095 59.3761 16.0105 59.5378 16.0105 52.4443Z" fill="white"/>
<path d="M17.0202 53.4545C17.5783 53.4545 18.0307 53.0021 18.0307 52.4441V48.8367H37.2295V58.9413H18.0307C17.4726 58.9413 17.0202 59.3937 17.0202 59.9518C17.0202 60.5099 17.4726 60.9623 18.0307 60.9623H74.6166C75.7327 60.9623 76.6375 60.0575 76.6375 58.9413V48.8367C76.6342 48.1476 76.28 47.5078 75.6978 47.1391C75.9403 44.6029 76.5466 38.1561 76.5466 34.6902C76.5514 34.6533 76.5514 34.616 76.5466 34.5791C76.5466 32.3359 76.4456 31.4871 76.4456 30.6484C76.4545 30.5712 76.4545 30.4932 76.4456 30.416C75.6271 21.5542 71.5852 16.4312 59.8942 12.551C58.6771 10.6196 57.2319 8.84185 55.5896 7.25617L48.3446 1.08224C47.1687 0.121023 45.4786 0.121023 44.3027 1.08224C36.8152 7.47847 35.0772 8.53946 32.6925 12.5813C21.0621 16.5019 17.0202 21.5542 16.2725 30.416C16.1916 30.7393 16.2725 30.6383 16.2725 30.7595C15.8885 35.8119 16.4443 41.5917 16.9798 47.1391C16.566 47.4 16.2608 47.8021 16.1209 48.2709C16.0098 48.5841 16.0098 48.6346 16.0098 52.4441C16.0098 53.0021 16.4622 53.4545 17.0202 53.4545ZM30.8636 25.9295C31.2475 25.5557 32.2176 23.08 37.8156 18.25C35.2086 22.0696 30.3684 31.1637 30.1562 46.8158H27.9635C26.3973 39.5 26.852 32.3055 30.8636 25.9295ZM61.8039 25.9295C65.765 32.2954 66.2601 39.4394 64.6838 46.8158H62.4911C62.289 31.1536 57.4387 22.0696 54.8317 18.25C60.6419 23.2619 61.3593 25.5961 61.8039 25.9699V25.9295ZM70.5748 46.8158C70.7668 44.2492 71.6661 41.4805 74.1922 40.8844C74.0508 42.7234 73.8689 44.6938 73.6668 46.8158H70.5748ZM67.5434 39.975C67.8465 39.3283 69.5643 36.1453 74.5055 35.7512C74.5055 36.7617 74.4347 37.7721 74.3741 38.7826C70.4636 39.3384 68.8267 42.9356 68.5538 46.8158H66.7451C67.2164 44.5642 67.4836 42.2746 67.5434 39.975ZM74.5257 33.7303C71.8725 33.8239 69.35 34.905 67.4524 36.7617C67.313 35.0348 67.005 33.3258 66.5329 31.6588H74.4954C74.4853 32.3258 74.5055 33.0129 74.5156 33.7303H74.5257ZM58.5098 46.8158C56.398 42.39 55.1652 39.3384 51.8307 35.7007C53.9425 31.3961 53.4979 23.9591 52.4167 18.6845C52.3966 18.5845 52.3966 18.4814 52.4167 18.3814C54.4377 21.0591 60.2276 30.0219 60.5004 46.8057L58.5098 46.8158ZM50.4261 19.0988C51.4366 24.1511 51.7498 30.4564 50.2847 34.1749C49.4482 33.4455 48.4276 32.9597 47.3341 32.7704V4.0429C50.3655 8.56977 51.9822 10.5806 53.2958 15.5015C52.4137 15.5359 51.5903 15.9532 51.0409 16.6443C50.4916 17.3354 50.2708 18.2316 50.4362 19.0988H50.4261ZM45.3132 4.0429V32.7704C44.2115 32.959 43.1833 33.4486 42.3424 34.185C40.8773 30.4665 41.1703 24.1511 42.201 19.0988C42.3696 18.2318 42.1516 17.3343 41.6041 16.6412C41.0566 15.9481 40.234 15.5282 39.3515 15.4914C40.7459 10.4391 42.2818 8.64051 45.3132 4.0429ZM34.1375 46.8158H32.1772C32.4096 30.1027 38.149 21.0995 40.2609 18.4016C40.276 18.4987 40.276 18.5975 40.2609 18.6946C39.1797 23.9692 38.7351 31.4163 40.8469 35.7209C37.4821 39.3384 36.219 42.39 34.1375 46.8158ZM25.9022 46.8158H24.0935C23.851 42.9255 22.2039 39.3384 18.3136 38.8129C18.2227 37.7216 18.1722 36.7112 18.1519 35.7007C23.083 36.1453 24.8008 39.308 25.1039 39.975C25.1637 42.2746 25.4309 44.5642 25.9022 46.8158ZM25.2353 36.7112C23.3378 34.8544 20.8152 33.7733 18.1621 33.6798C18.1621 32.9623 18.1621 32.2752 18.2227 31.6588H26.1144C25.6592 33.3107 25.3648 35.0027 25.2353 36.7112ZM22.0725 46.8158H18.9502C18.7481 44.6938 18.5662 42.7739 18.4248 40.8844C20.9509 41.4805 21.8502 44.2492 22.0725 46.8158ZM43.5247 35.8118C45.1103 34.3653 47.537 34.3653 49.1226 35.8118C52.8816 39.3384 54.3164 42.7133 56.2767 46.8158H54.0335C52.3763 43.36 51.0829 40.4196 47.7484 37.2871C46.9602 36.5036 45.6871 36.5036 44.8989 37.2871C41.4431 40.5307 40.0285 43.8551 38.6138 46.8158H36.3706C38.341 42.7032 39.7657 39.3384 43.5247 35.8118ZM39.2504 52.8786H53.3969V54.8995H39.2504V52.8786ZM51.7903 46.8158H40.857C42.1066 43.7754 43.9673 41.024 46.3237 38.7321C48.6748 41.0284 50.5346 43.7786 51.7903 46.8158ZM53.3969 48.8367V50.8576H39.2504V48.8367H53.3969ZM39.2504 58.9413V56.9204H53.3969V58.9413H39.2504ZM74.6166 58.9413H55.4178V48.8367H74.6166V58.9413ZM74.2832 29.6379H65.8357C65.2212 27.9796 64.4391 26.3883 63.5015 24.8887C63.565 21.5389 62.8344 18.2217 61.3694 15.2085C70.0493 18.4521 73.4243 22.4333 74.2832 29.6379ZM61.2886 21.8473C59.5546 19.7968 57.6331 17.9126 55.5492 16.219C54.8957 13.1163 53.6983 10.1538 52.0126 7.46837L51.0829 6.06383L54.2255 8.74155C57.9349 12.2316 60.4131 16.8299 61.2886 21.8473ZM38.3814 8.79208L41.5543 6.07393L40.6347 7.46837C38.969 10.1663 37.7668 13.124 37.0779 16.219C35.0466 17.8818 33.1665 19.7213 31.4597 21.7159C32.215 16.7411 34.659 12.1777 38.3814 8.79208ZM31.3082 15.1984C29.9446 18.2472 29.2092 21.5394 29.1458 24.8786C28.2102 26.3829 27.4282 27.9773 26.8116 29.6379H18.3641C19.223 22.4232 22.6081 18.4521 31.3183 15.1984H31.3082Z" fill="#428DFF"/>
<path d="M17.0202 57.4965C16.4622 57.4965 16.0098 57.0441 16.0098 56.486C16.0098 55.928 16.4622 55.4756 17.0202 55.4756C17.5783 55.4756 18.0307 55.928 18.0307 56.486C18.0307 57.0441 17.5783 57.4965 17.0202 57.4965Z" fill="#428DFF"/>
<path d="M1.39609 70.66V79H5.58409V77.896H2.76409V70.66H1.39609ZM13.0281 75.688C13.0281 73.612 11.5401 72.28 9.65613 72.28C7.77213 72.28 6.28413 73.612 6.28413 75.688C6.28413 77.764 7.71213 79.108 9.59613 79.108C11.4921 79.108 13.0281 77.764 13.0281 75.688ZM7.67613 75.688C7.67613 74.188 8.60013 73.468 9.63213 73.468C10.6521 73.468 11.6241 74.188 11.6241 75.688C11.6241 77.188 10.6161 77.92 9.59613 77.92C8.56413 77.92 7.67613 77.188 7.67613 75.688ZM13.9245 75.688C13.9245 77.764 15.2685 79.108 17.1645 79.108C18.7845 79.108 19.8405 78.208 20.2125 76.912H18.7365C18.4845 77.596 17.9805 77.956 17.1645 77.956C16.0605 77.956 15.3285 77.14 15.3285 75.688C15.3285 74.248 16.0605 73.432 17.1645 73.432C17.9805 73.432 18.5085 73.84 18.7365 74.476H20.2125C19.8405 73.084 18.7845 72.28 17.1645 72.28C15.2685 72.28 13.9245 73.624 13.9245 75.688ZM21.1198 75.664C21.1198 77.704 22.4998 79.108 24.2158 79.108C25.3198 79.108 26.1118 78.58 26.5318 78.016V79H27.9118V72.388H26.5318V73.348C26.1238 72.808 25.3558 72.28 24.2398 72.28C22.4998 72.28 21.1198 73.624 21.1198 75.664ZM26.5318 75.688C26.5318 77.116 25.5598 77.92 24.5278 77.92C23.5078 77.92 22.5238 77.092 22.5238 75.664C22.5238 74.236 23.5078 73.468 24.5278 73.468C25.5598 73.468 26.5318 74.272 26.5318 75.688ZM29.7086 79H31.0766V70.12H29.7086V79ZM41.2818 79H42.6498V70.66H41.2818V74.236H37.3578V70.66H35.9898V79H37.3578V75.352H41.2818V79ZM44.4508 79H45.8188V72.388H44.4508V79ZM45.1468 71.512C45.6268 71.512 46.0108 71.128 46.0108 70.636C46.0108 70.144 45.6268 69.76 45.1468 69.76C44.6548 69.76 44.2708 70.144 44.2708 70.636C44.2708 71.128 44.6548 71.512 45.1468 71.512ZM52.5468 77.152C52.4748 74.764 48.7428 75.508 48.7428 74.176C48.7428 73.732 49.1268 73.432 49.8588 73.432C50.6028 73.432 51.0468 73.828 51.0948 74.404H52.4628C52.3908 73.084 51.4068 72.28 49.9068 72.28C48.3468 72.28 47.3628 73.132 47.3628 74.188C47.3628 76.612 51.2028 75.868 51.2028 77.164C51.2028 77.62 50.7828 77.956 49.9908 77.956C49.2348 77.956 48.7188 77.512 48.6708 76.972H47.2548C47.3148 78.172 48.4308 79.108 50.0148 79.108C51.5748 79.108 52.5468 78.268 52.5468 77.152ZM54.241 77.164C54.241 78.508 54.973 79 56.149 79H57.229V77.86H56.389C55.813 77.86 55.621 77.656 55.621 77.164V73.504H57.229V72.388H55.621V70.744H54.241V72.388H53.461V73.504H54.241V77.164ZM64.7898 75.688C64.7898 73.612 63.3018 72.28 61.4178 72.28C59.5338 72.28 58.0458 73.612 58.0458 75.688C58.0458 77.764 59.4738 79.108 61.3578 79.108C63.2538 79.108 64.7898 77.764 64.7898 75.688ZM59.4378 75.688C59.4378 74.188 60.3618 73.468 61.3938 73.468C62.4138 73.468 63.3858 74.188 63.3858 75.688C63.3858 77.188 62.3778 77.92 61.3578 77.92C60.3258 77.92 59.4378 77.188 59.4378 75.688ZM67.5102 75.52C67.5102 74.116 68.1342 73.696 69.1422 73.696H69.4902V72.28C68.5542 72.28 67.8942 72.688 67.5102 73.348V72.388H66.1422V79H67.5102V75.52ZM70.7477 79H72.1157V72.388H70.7477V79ZM71.4437 71.512C71.9237 71.512 72.3077 71.128 72.3077 70.636C72.3077 70.144 71.9237 69.76 71.4437 69.76C70.9517 69.76 70.5677 70.144 70.5677 70.636C70.5677 71.128 70.9517 71.512 71.4437 71.512ZM73.4557 75.688C73.4557 77.764 74.7997 79.108 76.6957 79.108C78.3157 79.108 79.3717 78.208 79.7437 76.912H78.2677C78.0157 77.596 77.5117 77.956 76.6957 77.956C75.5917 77.956 74.8597 77.14 74.8597 75.688C74.8597 74.248 75.5917 73.432 76.6957 73.432C77.5117 73.432 78.0397 73.84 78.2677 74.476H79.7437C79.3717 73.084 78.3157 72.28 76.6957 72.28C74.7997 72.28 73.4557 73.624 73.4557 75.688ZM80.651 75.664C80.651 77.704 82.031 79.108 83.747 79.108C84.851 79.108 85.643 78.58 86.063 78.016V79H87.443V72.388H86.063V73.348C85.655 72.808 84.887 72.28 83.771 72.28C82.031 72.28 80.651 73.624 80.651 75.664ZM86.063 75.688C86.063 77.116 85.091 77.92 84.059 77.92C83.039 77.92 82.055 77.092 82.055 75.664C82.055 74.236 83.039 73.468 84.059 73.468C85.091 73.468 86.063 74.272 86.063 75.688ZM89.2398 79H90.6078V70.12H89.2398V79ZM31.7504 92.5V89.776H33.2624C34.3304 89.776 34.8104 90.28 34.8104 91.144C34.8104 91.984 34.3304 92.5 33.2624 92.5H31.7504ZM36.2144 91.144C36.2144 89.788 35.2424 88.66 33.2624 88.66H30.3824V97H31.7504V93.616H33.2624C35.4344 93.616 36.2144 92.332 36.2144 91.144ZM37.5191 97H38.8871V88.12H37.5191V97ZM40.2272 93.664C40.2272 95.704 41.6072 97.108 43.3232 97.108C44.4272 97.108 45.2192 96.58 45.6392 96.016V97H47.0192V90.388H45.6392V91.348C45.2312 90.808 44.4632 90.28 43.3472 90.28C41.6072 90.28 40.2272 91.624 40.2272 93.664ZM45.6392 93.688C45.6392 95.116 44.6672 95.92 43.6352 95.92C42.6152 95.92 41.6312 95.092 41.6312 93.664C41.6312 92.236 42.6152 91.468 43.6352 91.468C44.6672 91.468 45.6392 92.272 45.6392 93.688ZM48.36 93.688C48.36 95.764 49.704 97.108 51.6 97.108C53.22 97.108 54.276 96.208 54.648 94.912H53.172C52.92 95.596 52.416 95.956 51.6 95.956C50.496 95.956 49.764 95.14 49.764 93.688C49.764 92.248 50.496 91.432 51.6 91.432C52.416 91.432 52.944 91.84 53.172 92.476H54.648C54.276 91.084 53.22 90.28 51.6 90.28C49.704 90.28 48.36 91.624 48.36 93.688ZM58.7953 91.432C59.8153 91.432 60.6193 92.08 60.6433 93.1H56.9833C57.1273 92.056 57.8713 91.432 58.7953 91.432ZM61.8913 95.032H60.4153C60.1633 95.548 59.6953 95.956 58.8553 95.956C57.8473 95.956 57.0673 95.296 56.9713 94.204H62.0233C62.0593 93.976 62.0713 93.76 62.0713 93.532C62.0713 91.588 60.7393 90.28 58.8553 90.28C56.8993 90.28 55.5553 91.612 55.5553 93.688C55.5553 95.764 56.9593 97.108 58.8553 97.108C60.4753 97.108 61.5193 96.184 61.8913 95.032Z" fill="#428DFF"/>
</svg>
