<svg width="76" height="102" viewBox="0 0 76 102" fill="none" xmlns="http://www.w3.org/2000/svg">
<path d="M38.2749 17.0915C38.2005 18.1679 37.9228 19.2206 37.4564 20.1936C36.3847 22.5357 35.1064 24.7777 33.6369 26.893C32.8689 28.055 32.1212 29.0958 31.525 29.9243C31.2162 30.3397 30.729 30.5845 30.2114 30.5845C29.6938 30.5845 29.2067 30.3397 28.8978 29.9243C28.3016 29.1059 27.5438 28.0449 26.7758 26.893C24.573 23.5989 22.1075 19.456 22.1075 17.0915C22.1041 16.3444 22.2166 15.6013 22.4409 14.8887C22.8233 13.6453 23.5193 12.5213 24.4619 11.6249C26.003 10.1503 28.0583 9.33468 30.1912 9.35132H30.5348C34.7756 9.43202 38.1942 12.8506 38.2749 17.0915Z" fill="#E8EDFC"/>
<path d="M30.5559 9.35156H30.1922C29.677 9.35212 29.1629 9.39947 28.6562 9.49303C32.4035 10.0948 35.1799 13.297 35.2445 17.0917C35.1701 18.1682 34.8924 19.2208 34.426 20.1938C33.3542 22.5359 32.076 24.7779 30.6064 26.8932C29.9193 27.9037 29.2524 28.8636 28.6967 29.6316L28.8988 29.9145C29.2076 30.3299 29.6947 30.5747 30.2124 30.5747C30.73 30.5747 31.2171 30.3299 31.526 29.9145C32.1221 29.096 32.8699 28.0552 33.6378 26.8831C35.1074 24.7678 36.3856 22.5258 37.4574 20.1837C37.9225 19.2138 38.2002 18.1647 38.2759 17.0917C38.1955 12.8585 34.7889 9.44296 30.5559 9.35156Z" fill="#CAD9FC"/>
<path d="M30.2118 20.4666C31.8971 20.4666 33.2634 19.1094 33.2634 17.4352C33.2634 15.761 31.8971 14.4038 30.2118 14.4038C28.5264 14.4038 27.1602 15.761 27.1602 17.4352C27.1602 19.1094 28.5264 20.4666 30.2118 20.4666Z" fill="#F5F5F5"/>
<path d="M64.5474 14.6561V16.4244C64.5635 16.8942 64.2536 17.313 63.7997 17.4349C62.9004 17.6471 60.9098 18.3746 60.9098 20.4158C60.9098 22.4569 59.7376 26.1754 59.1516 27.8123C59.0526 28.0835 58.8425 28.2994 58.5741 28.4056C58.3057 28.5118 58.0047 28.4981 57.747 28.3681L55.4533 26.8524C55.0255 26.6427 54.8024 26.1627 54.9177 25.7005L55.4432 24.2151C55.5308 23.859 55.4186 23.4833 55.15 23.2336C54.8814 22.9839 54.4986 22.8993 54.1498 23.0126L53.2302 23.3764C52.9735 23.456 52.6965 23.438 52.4522 23.3259L51.2194 22.5478C50.831 22.3561 50.3635 22.4334 50.0574 22.7398L49.1177 23.528C48.7498 23.8942 48.7192 24.4795 49.0469 24.882C50.1957 26.0767 51.129 27.4613 51.8055 28.9744C52.0278 29.6716 51.3912 30.6416 50.6637 30.5507C50.0978 30.48 49.249 30.389 48.8145 30.8134C48.216 31.4499 47.8586 32.2756 47.8041 33.1476C47.7854 33.3879 47.6815 33.6137 47.511 33.7842L41.7009 39.564C39.9824 41.3181 38.1013 42.9049 36.0827 44.3031C35.7088 44.556 35.5479 45.0261 35.6886 45.455C36.2773 46.7739 36.6034 48.1948 36.6485 49.6383C36.6485 52.0938 34.6276 54.6907 34.9813 56.6206C35.023 57.1612 34.6305 57.6384 34.0921 57.7018C33.0675 57.7443 32.1571 58.3682 31.7478 59.3085C31.5989 59.5966 31.3208 59.7959 31.0001 59.844C30.3694 60.0228 29.6911 59.8693 29.1989 59.4363C28.7067 59.0034 28.4679 58.3502 28.5648 57.7018C28.5648 54.6704 25.5334 50.6286 23.5125 46.5867C21.7543 43.0905 21.4916 36.6135 21.4916 34.9361C21.4853 34.678 21.3804 34.4322 21.1986 34.249L20.8247 33.865C20.5787 33.6149 20.2207 33.5103 19.8788 33.5886C19.5369 33.6668 19.26 33.9168 19.1473 34.249C18.9963 34.8027 18.6017 35.2578 18.075 35.4858C17.5482 35.7138 16.9464 35.69 16.4393 35.4211C15.3015 35.1506 14.2854 34.5111 13.5494 33.6023C13.4088 33.3405 13.3907 33.0301 13.4997 32.7537C13.6087 32.4773 13.8338 32.2628 14.1152 32.1674C14.4864 32.0413 14.7512 31.7119 14.7945 31.3223C14.8378 30.9326 14.6518 30.5531 14.3173 30.3486L12.4985 29.0855C12.2428 28.9254 12.0721 28.6593 12.0329 28.3602C11.9938 28.061 12.0905 27.76 12.2964 27.5395L13.0037 26.8423C13.2657 26.574 13.6547 26.4729 14.0142 26.5796L15.2368 26.9433C15.6319 27.0407 16.0469 26.8916 16.2896 26.565C16.5323 26.2384 16.5555 25.7981 16.3483 25.4479L14.6103 23.1238C14.4056 22.7961 14.4056 22.3804 14.6103 22.0527L15.6915 19.9307C15.9742 19.5062 16.5289 19.3589 16.9849 19.5872L17.6822 20.0318C18.1382 20.2601 18.6929 20.1127 18.9755 19.6882L22.5021 14.9087C22.2591 15.6116 22.1262 16.3479 22.108 17.0913C22.108 19.4356 24.5331 23.5987 26.7359 26.8726C25.2093 28.2845 24.7037 30.4875 25.4619 32.4238C26.22 34.36 28.087 35.634 30.1664 35.634C32.2458 35.634 34.1128 34.36 34.871 32.4238C35.6291 30.4875 35.1235 28.2845 33.5969 26.8726C35.0665 24.7573 36.3447 22.5153 37.4165 20.1732L40.5893 21.9011C41.2037 22.2318 41.9697 22.0065 42.3071 21.3959C42.5377 20.9645 43.0442 20.7602 43.5096 20.9109L45.1162 21.3959C45.4757 21.5026 45.8647 21.4015 46.1267 21.1332L47.4201 20.0015C47.7265 19.6953 47.8038 19.2279 47.6121 18.8394L47.0462 18.0513C46.8545 17.6628 46.9317 17.1954 47.2382 16.8892L48.6326 15.6868C48.8721 15.4489 49.2145 15.3463 49.5453 15.4133C49.8761 15.4802 50.1516 15.708 50.2797 16.0202C50.8455 17.4147 51.1386 19.9509 53.0484 19.3245C56.0797 18.314 55.817 15.3837 58.8484 13.3728C61.2634 11.7662 63.1833 12.3624 63.9007 12.9686C64.3841 13.3882 64.6266 14.021 64.5474 14.6561Z" fill="#E8EDFC"/>
<path d="M32.9708 5.8449C31.8727 6.7821 31.04 7.99117 30.5558 9.3512H30.192C28.0661 9.33982 26.019 10.155 24.4829 11.6247C24.4381 11.3751 24.301 11.1515 24.0989 10.9983L20.8654 8.62367C20.466 8.32006 20.3498 7.76935 20.5926 7.33028L20.7038 7.08777C20.9321 6.63171 20.7847 6.07703 20.3602 5.79437L18.9153 4.78391C18.6909 4.63564 18.5349 4.40407 18.4818 4.14045C18.4287 3.87684 18.4829 3.60293 18.6323 3.37937L19.7944 1.64137C19.9979 1.38958 20.3097 1.25057 20.633 1.2675H24.1292C24.3978 1.26595 24.656 1.37139 24.8467 1.56053L27.0697 3.77345C27.3648 4.05322 27.7988 4.12887 28.1711 3.96544L30.7983 2.67204C31.2543 2.44375 31.809 2.59109 32.0917 3.0156L33.1021 4.5515C33.3783 4.95731 33.3229 5.5029 32.9708 5.8449Z" fill="#E8EDFC"/>
<path d="M15.6709 19.91C15.7749 19.8365 15.864 19.7439 15.9336 19.6372C15.8296 19.7108 15.7405 19.8033 15.6709 19.91Z" fill="#CAD9FC"/>
<path d="M50.047 19.3141C50.5065 19.1665 50.9372 18.9409 51.3202 18.6472C50.9111 17.7975 50.5731 16.9154 50.3097 16.0099C50.1817 15.6976 49.9061 15.4699 49.5753 15.4029C49.2445 15.3359 48.9021 15.4386 48.6627 15.6764L47.5107 16.6869C47.9655 18.0712 48.3797 19.8497 50.047 19.3141Z" fill="#CAD9FC"/>
<path d="M43.1253 21.1226L43.3982 20.8801C42.9899 20.8269 42.5901 21.0268 42.3877 21.3853C42.6589 21.4004 42.9248 21.3057 43.1253 21.1226Z" fill="#CAD9FC"/>
<path d="M48.9956 24.8814C48.6491 24.474 48.6801 23.8671 49.0663 23.4971L49.3291 23.2748L48.1367 22.517C47.7483 22.3253 47.2808 22.4025 46.9747 22.7089L46.035 23.4971C45.6671 23.8633 45.6365 24.4486 45.9642 24.8511C47.113 26.0458 48.0463 27.4304 48.7228 28.9435C48.9451 29.6407 48.3085 30.6108 47.581 30.5198C47.0151 30.4491 46.1663 30.3581 45.7318 30.7825C45.1333 31.4191 44.7759 32.2447 44.7213 33.1167C44.7027 33.3571 44.5988 33.5829 44.4283 33.7533L38.6687 39.5635C36.9502 41.3175 35.0691 42.9043 33.0505 44.3025C32.6766 44.5554 32.5158 45.0256 32.6564 45.4545C33.2451 46.7733 33.5712 48.1942 33.6164 49.6378C33.6164 52.0932 31.5954 54.6901 31.9491 56.6201C31.9908 57.1607 31.5984 57.6378 31.0599 57.7013C30.1497 57.7438 29.3235 58.2463 28.8672 59.0351C29.3435 59.718 30.1899 60.0389 30.9993 59.8435C31.32 59.7953 31.5982 59.5961 31.747 59.3079C32.1563 58.3677 33.0667 57.7437 34.0913 57.7013C34.6298 57.6378 35.0222 57.1607 34.9805 56.6201C34.6369 54.7002 36.6477 52.0932 36.6477 49.6378C36.6026 48.1942 36.2765 46.7733 35.6878 45.4545C35.5471 45.0256 35.708 44.5554 36.0819 44.3025C38.1005 42.9043 39.9816 41.3175 41.7001 39.5635L47.4799 33.7836C47.6504 33.6132 47.7543 33.3874 47.7729 33.147C47.8275 32.275 48.1849 31.4494 48.7834 30.8129C49.2179 30.3885 50.0667 30.4794 50.6326 30.5501C51.3601 30.6411 51.9967 29.671 51.7744 28.9738C51.0918 27.4592 50.1516 26.0745 48.9956 24.8814Z" fill="#CAD9FC"/>
<path d="M63.9412 12.9583C62.874 12.2492 61.5206 12.1275 60.344 12.6349C60.5442 12.721 60.734 12.8295 60.9099 12.9583C61.3815 13.3882 61.6088 14.0244 61.5161 14.6558V16.4241C61.5322 16.8939 61.2223 17.3127 60.7684 17.4346C59.8691 17.6468 57.8785 18.3743 57.8785 20.4155C57.6602 22.809 57.1163 25.1615 56.2617 27.4079L57.7471 28.3678C58.0048 28.4979 58.3058 28.5115 58.5742 28.4053C58.8426 28.2991 59.0527 28.0832 59.1516 27.8121C59.7377 26.1751 60.9099 22.5779 60.9099 20.4155C60.9099 18.2531 62.9308 17.6468 63.7998 17.4346C64.2537 17.3127 64.5636 16.8939 64.5475 16.4241V14.6558C64.6401 14.0244 64.4129 13.3882 63.9412 12.9583Z" fill="#CAD9FC"/>
<path d="M25.1385 30.5711C25.1454 29.1641 25.7387 27.8238 26.7755 26.8728C24.5726 23.5989 22.1071 19.456 22.1071 17.0915C22.1037 16.3444 22.2162 15.6013 22.4406 14.8887L19.4092 18.9305C20.4941 21.7358 21.9267 24.3938 23.6733 26.8424C21.9829 28.4542 21.6176 31.0146 22.7898 33.0348C23.9621 35.055 26.3663 36.0083 28.6044 35.3404C26.5451 34.6594 25.1503 32.74 25.1385 30.5711Z" fill="#CAD9FC"/>
<path d="M35.2444 30.5704C35.2557 32.8871 33.6899 34.9147 31.4456 35.4894C29.2012 36.0642 26.8536 35.0389 25.7499 33.0018C24.6463 30.9648 25.0695 28.4382 26.7767 26.8721C27.5447 28.0341 28.3025 29.0951 28.8987 29.9035C29.2076 30.3188 29.6947 30.5637 30.2123 30.5637C30.7299 30.5637 31.217 30.3188 31.5259 29.9035C32.1221 29.085 32.8698 28.0442 33.6378 26.8721C34.6634 27.8284 35.2453 29.1681 35.2444 30.5704Z" fill="#CAD9FC"/>
<path d="M28.5645 57.7023C28.5474 58.1657 28.6519 58.6255 28.8676 59.0361C29.2637 59.6459 29.976 59.9725 30.6966 59.8748C31.1139 59.8952 31.5063 59.6754 31.707 59.3089L31.8586 59.0361C31.6429 58.6255 31.5384 58.1657 31.5555 57.7023C31.5555 54.6709 28.5241 50.629 26.5031 46.5872C24.7449 43.091 24.4822 36.6139 24.4822 34.9365C24.4822 34.4818 24.2195 34.2797 23.8153 33.8654C23.5694 33.6154 23.2113 33.5107 22.8694 33.589C22.5275 33.6672 22.2506 33.9172 22.1379 34.2494C22.0101 34.6424 21.7758 34.9922 21.4609 35.2599C21.4609 37.2808 21.8045 43.283 23.4819 46.5973C25.5331 50.6492 28.5645 54.6709 28.5645 57.7023Z" fill="white"/>
<path d="M19.7934 1.7121L18.6313 3.4501C18.4819 3.67366 18.4277 3.94757 18.4808 4.21118C18.5339 4.4748 18.6899 4.70638 18.9143 4.85464L20.3592 5.86511C20.7837 6.14776 20.9311 6.70244 20.7028 7.1585L20.5916 7.33028C20.3764 7.76418 20.4993 8.28981 20.8847 8.58325C24.4415 11.1902 24.4112 11.0589 24.5021 11.6146C23.5595 12.5111 22.8636 13.6351 22.4812 14.8784L19.4498 18.9203L18.9446 19.5973C19.2444 19.3944 19.6299 19.3674 19.9551 19.5266L20.6523 19.9712C21.1083 20.1995 21.663 20.0521 21.9457 19.6276L22.4711 18.9203L25.5025 14.8784C25.8849 13.6351 26.5808 12.5111 27.5234 11.6146C27.4325 11.0892 27.4628 11.2206 23.906 8.58325C23.5242 8.28699 23.4056 7.76185 23.623 7.33028L23.7342 7.08777C23.9625 6.63171 23.8151 6.07703 23.3906 5.79437L21.9457 4.78391C21.7213 4.63564 21.5653 4.40407 21.5122 4.14045C21.4591 3.87684 21.5133 3.60293 21.6627 3.37937L22.8248 1.64137C23.0283 1.38958 23.3401 1.25057 23.6635 1.2675H23.9565C23.431 1.2675 22.4913 1.2675 20.6321 1.2675C20.296 1.26699 19.9816 1.43364 19.7934 1.7121Z" fill="white"/>
<path d="M14.1152 32.1877C13.8394 32.2841 13.6189 32.4951 13.5104 32.7663C13.4019 33.0375 13.4161 33.3424 13.5493 33.6023C14.2838 34.5149 15.3001 35.1581 16.4392 35.4313C17.1663 35.7897 18.0393 35.6609 18.632 35.1079C17.8269 34.812 17.1249 34.289 16.611 33.6023C16.4705 33.3405 16.4523 33.0301 16.5613 32.7537C16.6703 32.4773 16.8955 32.2629 17.1769 32.1675C17.5481 32.0414 17.8128 31.7119 17.8561 31.3223C17.8994 30.9327 17.7134 30.5532 17.379 30.3486L15.5601 29.0856C15.2999 28.9306 15.1229 28.6671 15.0779 28.3676C15.0329 28.0681 15.1246 27.7642 15.3277 27.5396L16.0351 26.8423C16.2762 26.5741 16.642 26.4547 16.995 26.5291L18.2177 26.8929C18.6128 26.9902 19.0277 26.8411 19.2704 26.5145C19.5131 26.1879 19.5363 25.7476 19.3292 25.3974L17.5912 23.0733C17.3864 22.7456 17.3864 22.3299 17.5912 22.0022L18.6623 19.9106C18.3624 20.1134 17.977 20.1404 17.6518 19.9813L16.9546 19.5367C16.4985 19.3084 15.9438 19.4557 15.6612 19.8802L14.58 22.0022C14.3752 22.3299 14.3752 22.7456 14.58 23.0733L16.318 25.3974C16.5251 25.7476 16.502 26.1879 16.2592 26.5145C16.0165 26.8411 15.6016 26.9902 15.2065 26.8929L13.9636 26.5291C13.6041 26.4224 13.2151 26.5235 12.9532 26.7918L12.2458 27.489C12.0243 27.7101 11.9178 28.0214 11.9573 28.3319C11.9969 28.6423 12.1781 28.9169 12.4479 29.0755L14.2668 30.3385C14.6226 30.5281 14.8318 30.9111 14.7988 31.3129C14.7659 31.7148 14.4972 32.0586 14.1152 32.1877Z" fill="white"/>
<path d="M24.6543 50.7795L26.4125 49.769C27.7766 52.1537 29.5045 55.0639 29.5752 57.6911H27.5543C27.5139 55.6398 25.7557 52.6994 24.6543 50.7795Z" fill="white"/>
<path d="M26.1494 17.4344C26.1494 19.6667 27.959 21.4763 30.1913 21.4763C32.4235 21.4763 34.2331 19.6667 34.2331 17.4344C34.2331 15.2022 32.4235 13.3926 30.1913 13.3926C27.959 13.3926 26.1494 15.2022 26.1494 17.4344ZM32.2122 17.4344C32.2122 18.5506 31.3074 19.4554 30.1913 19.4554C29.0751 19.4554 28.1703 18.5506 28.1703 17.4344C28.1703 16.3183 29.0751 15.4135 30.1913 15.4135C31.3074 15.4135 32.2122 16.3183 32.2122 17.4344Z" fill="#428DFF"/>
<path d="M27.4724 54.8217C26.9143 54.8217 26.4619 54.3693 26.4619 53.8112C26.4619 53.2532 26.9143 52.8008 27.4724 52.8008C28.0304 52.8008 28.4828 53.2532 28.4828 53.8112C28.4828 54.3693 28.0304 54.8217 27.4724 54.8217Z" fill="#428DFF"/>
<path d="M12.2862 26.1146L11.589 26.8118C11.1589 27.2436 10.9467 27.8465 11.0114 28.4524C11.0762 29.0584 11.4109 29.6029 11.9224 29.9341L13.8019 31.2275C13.2293 31.4183 12.7719 31.8549 12.5548 32.4181C12.3378 32.9813 12.3838 33.612 12.6803 34.1376C13.8434 35.5827 15.55 36.4853 17.3991 36.6335C18.645 36.6331 19.7406 35.8093 20.087 34.6126L20.4608 34.9864C20.4986 37.7351 20.7861 40.4746 21.3197 43.1712C21.9866 46.2026 22.5121 47.0918 24.634 50.7901C24.8145 51.1041 25.1489 51.2981 25.5111 51.2988C25.8734 51.2995 26.2085 51.1069 26.3902 50.7936C26.572 50.4802 26.5727 50.0937 26.3922 49.7796C24.3713 46.2834 23.8964 45.5054 23.3002 42.7064C22.805 40.1343 22.5312 37.5245 22.4818 34.9056C22.4544 34.4156 22.2497 33.9523 21.9058 33.6021L21.5319 33.2282C21.0435 32.7416 20.3408 32.5376 19.6678 32.6869C18.9947 32.8363 18.4442 33.3184 18.2075 33.9659C17.9751 34.5722 17.6821 34.845 16.7524 34.5317C15.8651 34.3225 15.0599 33.8548 14.4385 33.1878C15.1821 32.9448 15.7187 32.2945 15.816 31.5182C15.9133 30.742 15.5538 29.9793 14.8932 29.5603L13.0137 28.2365L13.6705 27.5292L14.9437 27.9031C15.7523 28.1005 16.5993 27.782 17.0773 27.1006C17.5554 26.4192 17.5668 25.5144 17.1061 24.8212C15.2367 22.3253 15.4186 22.6285 15.4894 22.487L16.4998 20.4661L17.0859 20.8501C17.9902 21.3698 19.1415 21.1159 19.7434 20.264L21.249 18.2431C21.734 20.5772 23.4922 23.7602 25.4727 26.7815C23.4708 29.2566 23.724 32.8584 26.0526 35.0291C28.3811 37.1997 31.9919 37.1997 34.3205 35.0291C36.6491 32.8584 36.9023 29.2566 34.9003 26.7815C36.0212 25.1136 37.0338 23.3754 37.9317 21.5776L40.1446 22.7801C41.2648 23.3736 42.6539 22.96 43.267 21.8504L44.8837 22.3354C45.5689 22.5301 46.306 22.3497 46.8238 21.8605L48.1677 20.6884C48.8234 20.0289 48.9443 19.0071 48.4608 18.2128L47.9959 17.5661L49.3904 16.4242C49.835 17.5357 50.1078 19.5062 51.5123 20.2236C52.1184 20.5055 52.8149 20.5202 53.4322 20.264C56.9284 19.1121 56.6657 16.0706 59.495 14.2012C61.425 12.9179 62.87 13.3423 63.3651 13.7364C63.6379 13.9587 63.5773 13.9991 63.6076 16.4546C61.3138 17.0002 59.9497 18.4755 59.9497 20.4156C59.9497 22.5577 58.6462 26.347 58.242 27.4888L56.0089 26.0337C55.9079 25.9529 55.6755 26.6602 56.4333 24.4877C56.6116 23.7643 56.3772 23.0014 55.8236 22.5027C55.27 22.004 54.4869 21.8504 53.7859 22.103L52.9169 22.4466L51.6841 21.6685C50.9327 21.2934 50.0276 21.4222 49.4106 21.9919L48.4001 22.8508C47.6759 23.5671 47.5979 24.7104 48.2182 25.5184C49.2766 26.6147 50.1472 27.8778 50.7949 29.2571C50.7881 29.3616 50.741 29.4595 50.6636 29.5299C49.752 29.3116 48.7906 29.5158 48.0465 30.0857C47.2804 30.8959 46.8289 31.953 46.7733 33.0666C41.7816 38.038 38.6896 41.3423 35.5167 43.4541C34.7591 43.9665 34.4399 44.9238 34.7387 45.7883C35.2799 46.9994 35.5852 48.3026 35.638 49.628C35.638 51.8915 33.6171 54.3772 33.9707 56.7013C32.6107 56.7766 31.4098 57.6137 30.8686 58.8637C29.8581 58.995 29.5752 58.6515 29.5752 57.7219C29.5752 57.1638 29.1228 56.7114 28.5647 56.7114C28.0067 56.7114 27.5543 57.1638 27.5543 57.7219C27.5008 58.666 27.8713 59.5848 28.5647 60.2278C29.6358 61.1574 32.0003 61.2989 32.7076 59.7529C32.9709 59.1387 33.5753 58.741 34.2435 58.7424C34.7865 58.6959 35.2856 58.4255 35.621 57.9961C35.9565 57.5667 36.0981 57.017 36.0119 56.479C35.7491 55.0239 37.6993 52.2654 37.6993 49.6786C37.6754 48.1262 37.3314 46.5954 36.6889 45.182C40.084 42.9186 42.9234 39.8569 48.2486 34.5418C49.1883 33.6122 48.5416 32.5209 49.5015 31.5913C49.8343 31.5172 50.1792 31.5172 50.512 31.5913C51.2324 31.6133 51.9199 31.2894 52.3616 30.7198C52.8033 30.1502 52.9458 29.4037 52.7451 28.7115C52.1061 27.157 51.1883 25.7324 50.0371 24.5079L49.7238 24.2755L50.6535 23.4773C50.6535 23.4773 50.6535 23.3964 50.6535 23.3762L51.9671 24.1947C52.4669 24.4461 53.0486 24.479 53.5737 24.2856L54.4629 23.841L53.9071 25.4275C53.6874 26.3242 54.1033 27.2558 54.9176 27.6909C57.565 29.4188 57.2316 29.2066 57.3124 29.247C57.8291 29.5067 58.4322 29.5326 58.9693 29.3181C59.5063 29.1037 59.9257 28.6695 60.1215 28.1254C60.6671 26.5996 61.9403 22.7902 61.9403 20.3853C61.9403 19.0919 63.264 18.5765 64.0522 18.3643C64.9345 18.1317 65.5514 17.3367 65.5578 16.4242V14.6054C65.6429 13.6767 65.2649 12.7658 64.5473 12.1702C63.5874 11.3921 61.1825 10.5838 58.2723 12.5137C55.0793 14.6458 55.241 17.5155 52.7148 18.3542C52.6062 18.3877 52.49 18.3877 52.3813 18.3542C51.9266 18.1218 51.5528 16.4546 51.2092 15.6058C50.9604 14.9907 50.4255 14.537 49.7781 14.3918C49.1307 14.2466 48.4533 14.4284 47.9656 14.8782L46.5106 16.1312C45.86 16.7891 45.7393 17.8047 46.2175 18.5967L46.6823 19.2535L45.4496 20.4661L43.853 19.9912C42.9153 19.7019 41.9053 20.1281 41.4582 21.0016C41.3914 21.124 41.2406 21.1728 41.1147 21.1128L38.7199 19.8093C39.0623 18.9422 39.2537 18.0229 39.2857 17.0911C39.2239 12.8689 36.1849 9.27965 32.0306 8.52242C32.4789 7.80831 33.0229 7.15895 33.6474 6.59244C34.3702 5.91756 34.4984 4.81876 33.9505 3.99555L32.94 2.45964C32.3747 1.61062 31.2654 1.31595 30.3533 1.77253L27.7463 3.05582L25.5232 0.842904C25.1518 0.474407 24.652 0.26432 24.1288 0.256836H20.6326C19.9585 0.258084 19.3294 0.595379 18.9552 1.15615L17.7932 2.88404C17.1756 3.81079 17.4241 5.06254 18.349 5.68302L19.804 6.69348L19.6828 6.92589C19.2452 7.80351 19.5008 8.86863 20.2891 9.45205L23.1891 11.574C22.4752 12.4057 21.9265 13.366 21.5723 14.4033L18.1166 19.0818C17.5507 18.718 17.5002 18.6776 17.4193 18.6372C16.4593 18.1668 15.299 18.5255 14.7719 19.4556L13.7615 21.5372C13.3685 22.1827 13.3685 22.9935 13.7615 23.6389C13.7615 23.7097 13.9433 23.8916 15.5298 25.963L14.2667 25.5891C13.5601 25.3918 12.802 25.5929 12.2862 26.1146ZM30.1916 34.6126C28.7501 34.6075 27.4204 33.8351 26.7019 32.5855C25.9834 31.3359 25.9847 29.7981 26.7055 28.5498C27.1703 29.2167 27.6351 29.8634 28.0898 30.4798C28.5891 31.1536 29.3782 31.5509 30.2168 31.5509C31.0555 31.5509 31.8445 31.1536 32.3439 30.4798C32.7784 29.8735 33.2432 29.2369 33.6979 28.5801C34.405 29.8297 34.3962 31.3605 33.6747 32.6018C32.9532 33.8431 31.6273 34.6085 30.1916 34.6126ZM37.2648 17.0911C37.2648 19.1121 34.8094 23.6996 30.7069 29.3177C30.5889 29.4787 30.4013 29.5738 30.2017 29.5738C30.0021 29.5738 29.8145 29.4787 29.6965 29.3177C25.6142 23.6996 23.1183 19.1222 23.1183 17.0911C23.1633 15.2606 23.934 13.5229 25.2606 12.2607C26.5872 10.9986 28.361 10.3153 30.1916 10.3615C32.0221 10.3153 33.796 10.9986 35.1226 12.2607C36.4492 13.5229 37.2198 15.2606 37.2648 17.0911ZM20.9357 5.00601L19.4706 3.99555L20.6326 2.27776H24.1288L26.3518 4.49067C26.9683 5.10481 27.9086 5.25543 28.686 4.86455L31.2829 3.58126L32.2933 5.09695C31.2671 6.00147 30.4352 7.10496 29.848 8.34054C27.9866 8.39828 26.1878 9.0261 24.6947 10.1392L21.5016 7.8151L21.6128 7.58269C22.0653 6.67556 21.7757 5.57354 20.9357 5.00601Z" fill="#428DFF"/>
<path d="M1.17148 70.5829V78.9229H5.35948V77.8189H2.53948V70.5829H1.17148ZM12.8035 75.6109C12.8035 73.5349 11.3155 72.2029 9.43152 72.2029C7.54752 72.2029 6.05952 73.5349 6.05952 75.6109C6.05952 77.6869 7.48752 79.0309 9.37152 79.0309C11.2675 79.0309 12.8035 77.6869 12.8035 75.6109ZM7.45152 75.6109C7.45152 74.1109 8.37552 73.3909 9.40752 73.3909C10.4275 73.3909 11.3995 74.1109 11.3995 75.6109C11.3995 77.1109 10.3915 77.8429 9.37152 77.8429C8.33952 77.8429 7.45152 77.1109 7.45152 75.6109ZM13.6999 75.6109C13.6999 77.6869 15.0439 79.0309 16.9399 79.0309C18.5599 79.0309 19.6159 78.1309 19.9879 76.8349H18.5119C18.2599 77.5189 17.7559 77.8789 16.9399 77.8789C15.8359 77.8789 15.1039 77.0629 15.1039 75.6109C15.1039 74.1709 15.8359 73.3549 16.9399 73.3549C17.7559 73.3549 18.2839 73.7629 18.5119 74.3989H19.9879C19.6159 73.0069 18.5599 72.2029 16.9399 72.2029C15.0439 72.2029 13.6999 73.5469 13.6999 75.6109ZM20.8952 75.5869C20.8952 77.6269 22.2752 79.0309 23.9912 79.0309C25.0952 79.0309 25.8872 78.5029 26.3072 77.9389V78.9229H27.6872V72.3109H26.3072V73.2709C25.8992 72.7309 25.1312 72.2029 24.0152 72.2029C22.2752 72.2029 20.8952 73.5469 20.8952 75.5869ZM26.3072 75.6109C26.3072 77.0389 25.3352 77.8429 24.3032 77.8429C23.2832 77.8429 22.2992 77.0149 22.2992 75.5869C22.2992 74.1589 23.2832 73.3909 24.3032 73.3909C25.3352 73.3909 26.3072 74.1949 26.3072 75.6109ZM29.484 78.9229H30.852V70.0429H29.484V78.9229ZM35.3332 71.6989H37.5652V78.9229H38.9332V71.6989H41.1532V70.5829H35.3332V71.6989ZM48.8387 75.6109C48.8387 73.5349 47.3507 72.2029 45.4667 72.2029C43.5827 72.2029 42.0947 73.5349 42.0947 75.6109C42.0947 77.6869 43.5227 79.0309 45.4067 79.0309C47.3027 79.0309 48.8387 77.6869 48.8387 75.6109ZM43.4867 75.6109C43.4867 74.1109 44.4107 73.3909 45.4427 73.3909C46.4627 73.3909 47.4347 74.1109 47.4347 75.6109C47.4347 77.1109 46.4267 77.8429 45.4067 77.8429C44.3747 77.8429 43.4867 77.1109 43.4867 75.6109ZM56.179 72.3109H54.811V75.9949C54.811 77.2069 54.151 77.8309 53.143 77.8309C52.147 77.8309 51.487 77.2069 51.487 75.9949V72.3109H50.131V76.1989C50.131 78.0469 51.307 79.0189 52.855 79.0189C53.635 79.0189 54.379 78.6949 54.811 78.1309V78.9229H56.179V72.3109ZM59.352 75.4429C59.352 74.0389 59.976 73.6189 60.984 73.6189H61.332V72.2029C60.396 72.2029 59.736 72.6109 59.352 73.2709V72.3109H57.984V78.9229H59.352V75.4429ZM62.5895 78.9229H63.9575V72.3109H62.5895V78.9229ZM63.2855 71.4349C63.7655 71.4349 64.1495 71.0509 64.1495 70.5589C64.1495 70.0669 63.7655 69.6829 63.2855 69.6829C62.7935 69.6829 62.4095 70.0669 62.4095 70.5589C62.4095 71.0509 62.7935 71.4349 63.2855 71.4349ZM70.6855 77.0749C70.6135 74.6869 66.8815 75.4309 66.8815 74.0989C66.8815 73.6549 67.2655 73.3549 67.9975 73.3549C68.7415 73.3549 69.1855 73.7509 69.2335 74.3269H70.6015C70.5295 73.0069 69.5455 72.2029 68.0455 72.2029C66.4855 72.2029 65.5015 73.0549 65.5015 74.1109C65.5015 76.5349 69.3415 75.7909 69.3415 77.0869C69.3415 77.5429 68.9215 77.8789 68.1295 77.8789C67.3735 77.8789 66.8575 77.4349 66.8095 76.8949H65.3935C65.4535 78.0949 66.5695 79.0309 68.1535 79.0309C69.7135 79.0309 70.6855 78.1909 70.6855 77.0749ZM72.3797 77.0869C72.3797 78.4309 73.1117 78.9229 74.2877 78.9229H75.3677V77.7829H74.5277C73.9517 77.7829 73.7597 77.5789 73.7597 77.0869V73.4269H75.3677V72.3109H73.7597V70.6669H72.3797V72.3109H71.5997V73.4269H72.3797V77.0869ZM23.7504 92.4229V89.6989H25.2624C26.3304 89.6989 26.8104 90.2029 26.8104 91.0669C26.8104 91.9069 26.3304 92.4229 25.2624 92.4229H23.7504ZM28.2144 91.0669C28.2144 89.7109 27.2424 88.5829 25.2624 88.5829H22.3824V96.9229H23.7504V93.5389H25.2624C27.4344 93.5389 28.2144 92.2549 28.2144 91.0669ZM29.5191 96.9229H30.8871V88.0429H29.5191V96.9229ZM32.2272 93.5869C32.2272 95.6269 33.6072 97.0309 35.3232 97.0309C36.4272 97.0309 37.2192 96.5029 37.6392 95.9389V96.9229H39.0192V90.3109H37.6392V91.2709C37.2312 90.7309 36.4632 90.2029 35.3472 90.2029C33.6072 90.2029 32.2272 91.5469 32.2272 93.5869ZM37.6392 93.6109C37.6392 95.0389 36.6672 95.8429 35.6352 95.8429C34.6152 95.8429 33.6312 95.0149 33.6312 93.5869C33.6312 92.1589 34.6152 91.3909 35.6352 91.3909C36.6672 91.3909 37.6392 92.1949 37.6392 93.6109ZM40.36 93.6109C40.36 95.6869 41.704 97.0309 43.6 97.0309C45.22 97.0309 46.276 96.1309 46.648 94.8349H45.172C44.92 95.5189 44.416 95.8789 43.6 95.8789C42.496 95.8789 41.764 95.0629 41.764 93.6109C41.764 92.1709 42.496 91.3549 43.6 91.3549C44.416 91.3549 44.944 91.7629 45.172 92.3989H46.648C46.276 91.0069 45.22 90.2029 43.6 90.2029C41.704 90.2029 40.36 91.5469 40.36 93.6109ZM50.7953 91.3549C51.8153 91.3549 52.6193 92.0029 52.6433 93.0229H48.9833C49.1273 91.9789 49.8713 91.3549 50.7953 91.3549ZM53.8913 94.9549H52.4153C52.1633 95.4709 51.6953 95.8789 50.8553 95.8789C49.8473 95.8789 49.0673 95.2189 48.9713 94.1269H54.0233C54.0593 93.8989 54.0713 93.6829 54.0713 93.4549C54.0713 91.5109 52.7393 90.2029 50.8553 90.2029C48.8993 90.2029 47.5553 91.5349 47.5553 93.6109C47.5553 95.6869 48.9593 97.0309 50.8553 97.0309C52.4753 97.0309 53.5193 96.1069 53.8913 94.9549Z" fill="#428DFF"/>
</svg>
