<svg width="53" height="78" viewBox="0 0 53 78" fill="none" xmlns="http://www.w3.org/2000/svg">
<path d="M6.05762 63.3584V66H4.82227V58.8906H7.54199C8.33626 58.8906 8.96615 59.0973 9.43164 59.5107C9.90039 59.9242 10.1348 60.471 10.1348 61.1514C10.1348 61.848 9.90527 62.39 9.44629 62.7773C8.99056 63.1647 8.35091 63.3584 7.52734 63.3584H6.05762ZM6.05762 62.3672H7.54199C7.98145 62.3672 8.31673 62.2646 8.54785 62.0596C8.77897 61.8512 8.89453 61.5518 8.89453 61.1611C8.89453 60.777 8.77734 60.471 8.54297 60.2432C8.30859 60.012 7.98633 59.8932 7.57617 59.8867H6.05762V62.3672Z" fill="#575757"/>
<path d="M14.2021 66C14.1501 65.8991 14.1045 65.7347 14.0654 65.5068C13.6878 65.9007 13.2256 66.0977 12.6787 66.0977C12.1481 66.0977 11.7152 65.9463 11.3799 65.6436C11.0446 65.3408 10.877 64.9665 10.877 64.5205C10.877 63.9574 11.0853 63.526 11.502 63.2266C11.9219 62.9238 12.5208 62.7725 13.2988 62.7725H14.0264V62.4258C14.0264 62.1523 13.9499 61.9342 13.7969 61.7715C13.6439 61.6055 13.4111 61.5225 13.0986 61.5225C12.8285 61.5225 12.6071 61.5908 12.4346 61.7275C12.262 61.861 12.1758 62.0319 12.1758 62.2402H10.9893C10.9893 61.9505 11.0853 61.6803 11.2773 61.4297C11.4694 61.1758 11.7298 60.9772 12.0586 60.834C12.3906 60.6908 12.7601 60.6191 13.167 60.6191C13.7855 60.6191 14.2786 60.7754 14.6465 61.0879C15.0143 61.3971 15.2031 61.8333 15.2129 62.3965V64.7793C15.2129 65.2546 15.2796 65.6338 15.4131 65.917V66H14.2021ZM12.8984 65.1455C13.1328 65.1455 13.3525 65.0885 13.5576 64.9746C13.766 64.8607 13.9222 64.7077 14.0264 64.5156V63.5195H13.3867C12.9473 63.5195 12.6169 63.596 12.3955 63.749C12.1742 63.902 12.0635 64.1185 12.0635 64.3984C12.0635 64.6263 12.1383 64.8086 12.2881 64.9453C12.4411 65.0788 12.6445 65.1455 12.8984 65.1455Z" fill="#575757"/>
<path d="M18.626 65.1504C18.9222 65.1504 19.168 65.0641 19.3633 64.8916C19.5586 64.7191 19.6628 64.5059 19.6758 64.252H20.7939C20.7809 64.5807 20.6784 64.8883 20.4863 65.1748C20.2943 65.458 20.0339 65.6826 19.7051 65.8486C19.3763 66.0146 19.0215 66.0977 18.6406 66.0977C17.9017 66.0977 17.3158 65.8584 16.8828 65.3799C16.4499 64.9014 16.2334 64.2406 16.2334 63.3975V63.2754C16.2334 62.4714 16.4482 61.8285 16.8779 61.3467C17.3076 60.8617 17.8936 60.6191 18.6357 60.6191C19.264 60.6191 19.7751 60.8031 20.1689 61.1709C20.5661 61.5355 20.7744 62.0156 20.7939 62.6113H19.6758C19.6628 62.3086 19.5586 62.0596 19.3633 61.8643C19.1712 61.6689 18.9255 61.5713 18.626 61.5713C18.2419 61.5713 17.9456 61.7113 17.7373 61.9912C17.529 62.2679 17.4232 62.6895 17.4199 63.2559V63.4463C17.4199 64.0192 17.5225 64.4473 17.7275 64.7305C17.9359 65.0104 18.2354 65.1504 18.626 65.1504Z" fill="#575757"/>
<path d="M23.4062 63.7344L22.8789 64.2764V66H21.6924V58.5H22.8789V62.8262L23.25 62.3623L24.71 60.7168H26.1357L24.1729 62.9189L26.3457 66H24.9736L23.4062 63.7344Z" fill="#575757"/>
<path d="M30.0713 66C30.0192 65.8991 29.9736 65.7347 29.9346 65.5068C29.557 65.9007 29.0947 66.0977 28.5479 66.0977C28.0173 66.0977 27.5843 65.9463 27.249 65.6436C26.9137 65.3408 26.7461 64.9665 26.7461 64.5205C26.7461 63.9574 26.9544 63.526 27.3711 63.2266C27.791 62.9238 28.39 62.7725 29.168 62.7725H29.8955V62.4258C29.8955 62.1523 29.819 61.9342 29.666 61.7715C29.513 61.6055 29.2803 61.5225 28.9678 61.5225C28.6976 61.5225 28.4762 61.5908 28.3037 61.7275C28.1312 61.861 28.0449 62.0319 28.0449 62.2402H26.8584C26.8584 61.9505 26.9544 61.6803 27.1465 61.4297C27.3385 61.1758 27.599 60.9772 27.9277 60.834C28.2598 60.6908 28.6292 60.6191 29.0361 60.6191C29.6546 60.6191 30.1478 60.7754 30.5156 61.0879C30.8835 61.3971 31.0723 61.8333 31.082 62.3965V64.7793C31.082 65.2546 31.1488 65.6338 31.2822 65.917V66H30.0713ZM28.7676 65.1455C29.002 65.1455 29.2217 65.0885 29.4268 64.9746C29.6351 64.8607 29.7913 64.7077 29.8955 64.5156V63.5195H29.2559C28.8164 63.5195 28.486 63.596 28.2646 63.749C28.0433 63.902 27.9326 64.1185 27.9326 64.3984C27.9326 64.6263 28.0075 64.8086 28.1572 64.9453C28.3102 65.0788 28.5137 65.1455 28.7676 65.1455Z" fill="#575757"/>
<path d="M32.1172 63.3193C32.1172 62.499 32.3092 61.8447 32.6934 61.3564C33.0807 60.8649 33.5934 60.6191 34.2314 60.6191C34.8337 60.6191 35.3073 60.8291 35.6523 61.249L35.7061 60.7168H36.7754V65.8389C36.7754 66.5322 36.5589 67.0791 36.126 67.4795C35.6963 67.8799 35.1152 68.0801 34.3828 68.0801C33.9954 68.0801 33.6162 67.9987 33.2451 67.8359C32.8773 67.6764 32.5973 67.4665 32.4053 67.2061L32.9668 66.4932C33.3314 66.9261 33.7806 67.1426 34.3145 67.1426C34.7083 67.1426 35.0192 67.0352 35.2471 66.8203C35.4749 66.6087 35.5889 66.2962 35.5889 65.8828V65.5264C35.2471 65.9072 34.7913 66.0977 34.2217 66.0977C33.6032 66.0977 33.097 65.8519 32.7031 65.3604C32.3125 64.8688 32.1172 64.1885 32.1172 63.3193ZM33.2988 63.4219C33.2988 63.9525 33.4062 64.3708 33.6211 64.6768C33.8392 64.9795 34.1403 65.1309 34.5244 65.1309C35.0029 65.1309 35.3577 64.9258 35.5889 64.5156V62.1914C35.3643 61.791 35.0127 61.5908 34.5342 61.5908C34.1436 61.5908 33.8392 61.7454 33.6211 62.0547C33.4062 62.3639 33.2988 62.8197 33.2988 63.4219Z" fill="#575757"/>
<path d="M40.3252 66.0977C39.5732 66.0977 38.9629 65.8617 38.4941 65.3896C38.0286 64.9144 37.7959 64.2829 37.7959 63.4951V63.3486C37.7959 62.8213 37.8968 62.3509 38.0986 61.9375C38.3037 61.5208 38.5902 61.1969 38.958 60.9658C39.3258 60.7347 39.736 60.6191 40.1885 60.6191C40.9079 60.6191 41.4629 60.8486 41.8535 61.3076C42.2474 61.7666 42.4443 62.416 42.4443 63.2559V63.7344H38.9922C39.028 64.1706 39.1729 64.5156 39.4268 64.7695C39.6839 65.0234 40.0062 65.1504 40.3936 65.1504C40.9372 65.1504 41.3799 64.9307 41.7217 64.4912L42.3613 65.1016C42.1497 65.4173 41.8665 65.6631 41.5117 65.8389C41.1602 66.0114 40.7646 66.0977 40.3252 66.0977ZM40.1836 61.5713C39.8581 61.5713 39.5944 61.6852 39.3926 61.9131C39.194 62.141 39.0671 62.4583 39.0117 62.8652H41.2725V62.7773C41.2464 62.3802 41.1406 62.0807 40.9551 61.8789C40.7695 61.6738 40.5124 61.5713 40.1836 61.5713Z" fill="#575757"/>
<path d="M46.3311 64.5645C46.3311 64.3529 46.2432 64.1917 46.0674 64.0811C45.8949 63.9704 45.6068 63.8727 45.2031 63.7881C44.7995 63.7035 44.4626 63.596 44.1924 63.4658C43.5999 63.1794 43.3037 62.7643 43.3037 62.2207C43.3037 61.765 43.4958 61.3841 43.8799 61.0781C44.264 60.7721 44.7523 60.6191 45.3447 60.6191C45.9762 60.6191 46.4857 60.7754 46.873 61.0879C47.2637 61.4004 47.459 61.8057 47.459 62.3037H46.2725C46.2725 62.0758 46.1878 61.887 46.0186 61.7373C45.8493 61.5843 45.6247 61.5078 45.3447 61.5078C45.0843 61.5078 44.8711 61.568 44.7051 61.6885C44.5423 61.8089 44.4609 61.9701 44.4609 62.1719C44.4609 62.3542 44.5374 62.4958 44.6904 62.5967C44.8434 62.6976 45.1527 62.8001 45.6182 62.9043C46.0837 63.0052 46.4482 63.1273 46.7119 63.2705C46.9788 63.4105 47.1758 63.5798 47.3027 63.7783C47.4329 63.9769 47.498 64.2178 47.498 64.501C47.498 64.9762 47.3011 65.362 46.9072 65.6582C46.5133 65.9512 45.9974 66.0977 45.3594 66.0977C44.9264 66.0977 44.5407 66.0195 44.2021 65.8633C43.8636 65.707 43.5999 65.4922 43.4111 65.2188C43.2223 64.9453 43.1279 64.6507 43.1279 64.335H44.2803C44.2966 64.6149 44.4023 64.8314 44.5977 64.9844C44.793 65.1341 45.0518 65.209 45.374 65.209C45.6865 65.209 45.9242 65.1504 46.0869 65.0332C46.2497 64.9128 46.3311 64.7565 46.3311 64.5645Z" fill="#575757"/>
<path d="M11.9023 76.1504C12.1986 76.1504 12.4443 76.0641 12.6396 75.8916C12.835 75.7191 12.9391 75.5059 12.9521 75.252H14.0703C14.0573 75.5807 13.9548 75.8883 13.7627 76.1748C13.5706 76.458 13.3102 76.6826 12.9814 76.8486C12.6527 77.0146 12.2979 77.0977 11.917 77.0977C11.1781 77.0977 10.5921 76.8584 10.1592 76.3799C9.72624 75.9014 9.50977 75.2406 9.50977 74.3975V74.2754C9.50977 73.4714 9.72461 72.8285 10.1543 72.3467C10.584 71.8617 11.1699 71.6191 11.9121 71.6191C12.5404 71.6191 13.0514 71.8031 13.4453 72.1709C13.8424 72.5355 14.0508 73.0156 14.0703 73.6113H12.9521C12.9391 73.3086 12.835 73.0596 12.6396 72.8643C12.4476 72.6689 12.2018 72.5713 11.9023 72.5713C11.5182 72.5713 11.222 72.7113 11.0137 72.9912C10.8053 73.2679 10.6995 73.6895 10.6963 74.2559V74.4463C10.6963 75.0192 10.7988 75.4473 11.0039 75.7305C11.2122 76.0104 11.5117 76.1504 11.9023 76.1504Z" fill="#575757"/>
<path d="M17.7324 72.8008C17.5762 72.7747 17.415 72.7617 17.249 72.7617C16.7054 72.7617 16.3392 72.9701 16.1504 73.3867V77H14.9639V71.7168H16.0967L16.126 72.3076C16.4124 71.8486 16.8096 71.6191 17.3174 71.6191C17.4867 71.6191 17.6266 71.6419 17.7373 71.6875L17.7324 72.8008Z" fill="#575757"/>
<path d="M20.7109 77.0977C19.959 77.0977 19.3486 76.8617 18.8799 76.3896C18.4144 75.9144 18.1816 75.2829 18.1816 74.4951V74.3486C18.1816 73.8213 18.2826 73.3509 18.4844 72.9375C18.6895 72.5208 18.9759 72.1969 19.3438 71.9658C19.7116 71.7347 20.1217 71.6191 20.5742 71.6191C21.2936 71.6191 21.8486 71.8486 22.2393 72.3076C22.6331 72.7666 22.8301 73.416 22.8301 74.2559V74.7344H19.3779C19.4137 75.1706 19.5586 75.5156 19.8125 75.7695C20.0697 76.0234 20.3919 76.1504 20.7793 76.1504C21.3229 76.1504 21.7656 75.9307 22.1074 75.4912L22.7471 76.1016C22.5355 76.4173 22.2523 76.6631 21.8975 76.8389C21.5459 77.0114 21.1504 77.0977 20.7109 77.0977ZM20.5693 72.5713C20.2438 72.5713 19.9801 72.6852 19.7783 72.9131C19.5798 73.141 19.4528 73.4583 19.3975 73.8652H21.6582V73.7773C21.6322 73.3802 21.5264 73.0807 21.3408 72.8789C21.1553 72.6738 20.8981 72.5713 20.5693 72.5713Z" fill="#575757"/>
<path d="M26.9121 77C26.86 76.8991 26.8145 76.7347 26.7754 76.5068C26.3978 76.9007 25.9355 77.0977 25.3887 77.0977C24.8581 77.0977 24.4251 76.9463 24.0898 76.6436C23.7546 76.3408 23.5869 75.9665 23.5869 75.5205C23.5869 74.9574 23.7952 74.526 24.2119 74.2266C24.6318 73.9238 25.2308 73.7725 26.0088 73.7725H26.7363V73.4258C26.7363 73.1523 26.6598 72.9342 26.5068 72.7715C26.3538 72.6055 26.1211 72.5225 25.8086 72.5225C25.5384 72.5225 25.3171 72.5908 25.1445 72.7275C24.972 72.861 24.8857 73.0319 24.8857 73.2402H23.6992C23.6992 72.9505 23.7952 72.6803 23.9873 72.4297C24.1794 72.1758 24.4398 71.9772 24.7686 71.834C25.1006 71.6908 25.4701 71.6191 25.877 71.6191C26.4954 71.6191 26.9886 71.7754 27.3564 72.0879C27.7243 72.3971 27.9131 72.8333 27.9229 73.3965V75.7793C27.9229 76.2546 27.9896 76.6338 28.123 76.917V77H26.9121ZM25.6084 76.1455C25.8428 76.1455 26.0625 76.0885 26.2676 75.9746C26.4759 75.8607 26.6322 75.7077 26.7363 75.5156V74.5195H26.0967C25.6572 74.5195 25.3268 74.596 25.1055 74.749C24.8841 74.902 24.7734 75.1185 24.7734 75.3984C24.7734 75.6263 24.8483 75.8086 24.998 75.9453C25.151 76.0788 25.3545 76.1455 25.6084 76.1455Z" fill="#575757"/>
<path d="M30.6523 70.4326V71.7168H31.585V72.5957H30.6523V75.5449C30.6523 75.7467 30.6914 75.8932 30.7695 75.9844C30.8509 76.0723 30.9941 76.1162 31.1992 76.1162C31.3359 76.1162 31.4743 76.0999 31.6143 76.0674V76.9854C31.3441 77.0602 31.0837 77.0977 30.833 77.0977C29.9215 77.0977 29.4658 76.5947 29.4658 75.5889V72.5957H28.5967V71.7168H29.4658V70.4326H30.6523Z" fill="#575757"/>
<path d="M34.8223 77.0977C34.0703 77.0977 33.46 76.8617 32.9912 76.3896C32.5257 75.9144 32.293 75.2829 32.293 74.4951V74.3486C32.293 73.8213 32.3939 73.3509 32.5957 72.9375C32.8008 72.5208 33.0872 72.1969 33.4551 71.9658C33.8229 71.7347 34.2331 71.6191 34.6855 71.6191C35.4049 71.6191 35.96 71.8486 36.3506 72.3076C36.7445 72.7666 36.9414 73.416 36.9414 74.2559V74.7344H33.4893C33.5251 75.1706 33.6699 75.5156 33.9238 75.7695C34.181 76.0234 34.5033 76.1504 34.8906 76.1504C35.4342 76.1504 35.877 75.9307 36.2188 75.4912L36.8584 76.1016C36.6468 76.4173 36.3636 76.6631 36.0088 76.8389C35.6572 77.0114 35.2617 77.0977 34.8223 77.0977ZM34.6807 72.5713C34.3551 72.5713 34.0915 72.6852 33.8896 72.9131C33.6911 73.141 33.5641 73.4583 33.5088 73.8652H35.7695V73.7773C35.7435 73.3802 35.6377 73.0807 35.4521 72.8789C35.2666 72.6738 35.0094 72.5713 34.6807 72.5713Z" fill="#575757"/>
<path d="M37.6445 74.3193C37.6445 73.5055 37.8333 72.8529 38.2109 72.3613C38.5885 71.8665 39.0947 71.6191 39.7295 71.6191C40.2894 71.6191 40.7419 71.8145 41.0869 72.2051V69.5H42.2734V77H41.1992L41.1406 76.4531C40.7858 76.8828 40.3122 77.0977 39.7197 77.0977C39.1012 77.0977 38.5999 76.8486 38.2158 76.3506C37.835 75.8525 37.6445 75.1755 37.6445 74.3193ZM38.8311 74.4219C38.8311 74.959 38.9336 75.3789 39.1387 75.6816C39.347 75.9811 39.6416 76.1309 40.0225 76.1309C40.5075 76.1309 40.8623 75.9144 41.0869 75.4814V73.2256C40.8688 72.8024 40.5173 72.5908 40.0322 72.5908C39.6481 72.5908 39.3519 72.7438 39.1436 73.0498C38.9352 73.3525 38.8311 73.8099 38.8311 74.4219Z" fill="#575757"/>
<rect x="0.0136719" width="52" height="52" rx="15" fill="#E3006D"/>
<path d="M35.9933 30.7202L35.395 23.1123C35.3715 22.8132 35.319 22.5179 35.2385 22.2307C35.4673 21.4981 35.5841 20.7023 35.5841 19.8516V18.8184H33.26V15H31.4371V18.8184H29.6141V18.5938C29.6141 16.6121 27.9785 15 25.9683 15C23.9579 15 22.3224 16.6121 22.3224 18.5938V18.8184H20.4994V15H18.6765V18.8184H16.4432V19.8516C16.4432 20.7023 16.56 21.4981 16.7888 22.2307C16.7083 22.5179 16.6558 22.8132 16.6323 23.1123L16.034 30.7202C15.8869 32.5915 16.5442 34.4549 17.8375 35.8323C19.131 37.2098 20.965 38 22.8691 38H29.1582C31.0623 38 32.8963 37.2098 34.1896 35.8323C35.4831 34.4549 36.1406 32.5915 35.9933 30.7202ZM24.1453 18.5938C24.1453 17.603 24.963 16.7969 25.9683 16.7969C26.9734 16.7969 27.7912 17.603 27.7912 18.5938V18.8184H24.1453V18.5938ZM33.7207 20.6152C33.2817 24.6268 29.3679 25.508 26.9253 25.6625V24.2988H25.1024V25.6626C22.6597 25.5082 18.7456 24.627 18.3066 20.6152H33.7207ZM22.8691 36.2031C22.3542 36.2031 21.8535 36.1284 21.3783 35.9843L21.593 33.4092V33.3727C21.5932 32.8775 22.0021 32.4746 22.5045 32.4746H29.5684C30.0709 32.4746 30.4798 32.8777 30.4798 33.373V33.4099L30.6933 35.9711C30.2052 36.124 29.6891 36.2031 29.1582 36.2031H22.8691ZM32.8518 34.6119C32.7213 34.7509 32.5844 34.8809 32.4418 35.0027L32.3024 33.3325C32.2805 31.865 31.0623 30.6777 29.5684 30.6777H22.5045C21.0111 30.6777 19.7931 31.8645 19.7705 33.3315L19.628 35.0387C19.4701 34.9067 19.3188 34.7646 19.1755 34.6119C18.2121 33.5857 17.7417 32.253 17.8514 30.859L18.3251 24.8361C18.6349 25.1578 18.9807 25.4536 19.3635 25.7212C20.8277 26.7448 22.7982 27.3407 25.1024 27.4639V28.8809H26.9253V27.4639C29.2291 27.3405 31.1996 26.7446 32.6636 25.7212C33.0466 25.4536 33.3925 25.1578 33.7022 24.8361L34.1759 30.859C34.2854 32.253 33.8153 33.5857 32.8518 34.6119Z" fill="white"/>
</svg>
