<svg width="307" height="199" viewBox="0 0 307 199" fill="none" xmlns="http://www.w3.org/2000/svg">
<path d="M92.4668 119.939V129H96.8218V128.038H93.6498V119.939H92.4668Z" fill="black"/>
<path d="M104.838 125.425C104.838 123.176 103.265 121.759 101.237 121.759C99.2221 121.759 97.6361 123.176 97.6361 125.425C97.6361 127.687 99.1701 129.117 101.185 129.117C103.213 129.117 104.838 127.687 104.838 125.425ZM98.8451 125.425C98.8451 123.631 99.9761 122.786 101.224 122.786C102.446 122.786 103.629 123.631 103.629 125.425C103.629 127.232 102.42 128.077 101.185 128.077C99.9501 128.077 98.8451 127.232 98.8451 125.425Z" fill="black"/>
<path d="M105.952 125.425C105.952 127.687 107.395 129.117 109.423 129.117C111.191 129.117 112.348 128.129 112.712 126.712H111.438C111.178 127.609 110.476 128.116 109.423 128.116C108.123 128.116 107.161 127.193 107.161 125.425C107.161 123.683 108.123 122.76 109.423 122.76C110.476 122.76 111.191 123.306 111.438 124.164H112.712C112.348 122.669 111.191 121.759 109.423 121.759C107.395 121.759 105.952 123.189 105.952 125.425Z" fill="black"/>
<path d="M113.848 125.412C113.848 127.622 115.317 129.117 117.215 129.117C118.528 129.117 119.451 128.441 119.88 127.674V129H121.076V121.876H119.88V123.176C119.464 122.435 118.554 121.759 117.228 121.759C115.317 121.759 113.848 123.189 113.848 125.412ZM119.88 125.425C119.88 127.102 118.762 128.077 117.462 128.077C116.162 128.077 115.057 127.089 115.057 125.412C115.057 123.735 116.162 122.786 117.462 122.786C118.762 122.786 119.88 123.774 119.88 125.425Z" fill="black"/>
<path d="M123.075 129H124.258V119.38H123.075V129Z" fill="black"/>
<path d="M133.848 119.835C131.3 119.835 129.298 121.746 129.298 124.463C129.298 127.18 131.3 129.078 133.848 129.078C136.305 129.078 138.086 127.271 138.294 125.022V124.112H133.419V125.074H137.033C136.851 126.868 135.629 128.012 133.848 128.012C131.937 128.012 130.507 126.634 130.507 124.463C130.507 122.279 131.937 120.901 133.848 120.901C135.122 120.901 136.11 121.512 136.604 122.565H138.021C137.345 120.823 135.759 119.835 133.848 119.835Z" fill="black"/>
<path d="M146.176 121.876H144.993V125.789C144.993 127.323 144.174 128.077 142.952 128.077C141.756 128.077 140.963 127.336 140.963 125.893V121.876H139.793V126.049C139.793 128.09 141.08 129.104 142.718 129.104C143.667 129.104 144.538 128.688 144.993 127.947V129H146.176V121.876Z" fill="black"/>
<path d="M148.174 129H149.357V121.876H148.174V129ZM148.785 120.719C149.214 120.719 149.565 120.368 149.565 119.913C149.565 119.458 149.214 119.107 148.785 119.107C148.33 119.107 147.979 119.458 147.979 119.913C147.979 120.368 148.33 120.719 148.785 120.719Z" fill="black"/>
<path d="M150.931 125.412C150.931 127.622 152.4 129.117 154.311 129.117C155.611 129.117 156.534 128.454 156.963 127.661V129H158.159V119.38H156.963V123.15C156.469 122.331 155.442 121.759 154.324 121.759C152.4 121.759 150.931 123.189 150.931 125.412ZM156.963 125.425C156.963 127.102 155.845 128.077 154.545 128.077C153.245 128.077 152.14 127.089 152.14 125.412C152.14 123.735 153.245 122.786 154.545 122.786C155.845 122.786 156.963 123.774 156.963 125.425Z" fill="black"/>
<path d="M163.187 122.76C164.409 122.76 165.449 123.527 165.436 124.918H160.938C161.068 123.527 162.03 122.76 163.187 122.76ZM166.515 126.803H165.241C164.981 127.57 164.305 128.116 163.239 128.116C162.03 128.116 161.016 127.323 160.925 125.88H166.619C166.645 125.633 166.658 125.425 166.658 125.165C166.658 123.215 165.306 121.759 163.239 121.759C161.159 121.759 159.716 123.176 159.716 125.425C159.716 127.687 161.211 129.117 163.239 129.117C165.007 129.117 166.151 128.103 166.515 126.803Z" fill="black"/>
<path d="M171.686 119.939V129H176.041V128.038H172.869V119.939H171.686Z" fill="black"/>
<path d="M180.326 122.76C181.548 122.76 182.588 123.527 182.575 124.918H178.077C178.207 123.527 179.169 122.76 180.326 122.76ZM183.654 126.803H182.38C182.12 127.57 181.444 128.116 180.378 128.116C179.169 128.116 178.155 127.323 178.064 125.88H183.758C183.784 125.633 183.797 125.425 183.797 125.165C183.797 123.215 182.445 121.759 180.378 121.759C178.298 121.759 176.855 123.176 176.855 125.425C176.855 127.687 178.35 129.117 180.378 129.117C182.146 129.117 183.29 128.103 183.654 126.803Z" fill="black"/>
<path d="M184.513 121.876L187.308 129H188.686L191.481 121.876H190.22L188.01 127.908L185.787 121.876H184.513Z" fill="black"/>
<path d="M195.675 122.76C196.897 122.76 197.937 123.527 197.924 124.918H193.426C193.556 123.527 194.518 122.76 195.675 122.76ZM199.003 126.803H197.729C197.469 127.57 196.793 128.116 195.727 128.116C194.518 128.116 193.504 127.323 193.413 125.88H199.107C199.133 125.633 199.146 125.425 199.146 125.165C199.146 123.215 197.794 121.759 195.727 121.759C193.647 121.759 192.204 123.176 192.204 125.425C192.204 127.687 193.699 129.117 195.727 129.117C197.495 129.117 198.639 128.103 199.003 126.803Z" fill="black"/>
<path d="M200.707 129H201.89V119.38H200.707V129Z" fill="black"/>
<path d="M207.177 124.203C207.177 126.933 207.853 129 210.453 129C213.04 129 213.716 126.933 213.716 124.203C213.716 121.512 213.04 119.458 210.453 119.458C207.853 119.458 207.177 121.512 207.177 124.203ZM212.546 124.203C212.546 126.231 212.299 127.921 210.453 127.921C208.594 127.921 208.347 126.231 208.347 124.203C208.347 122.253 208.594 120.537 210.453 120.537C212.299 120.537 212.546 122.253 212.546 124.203Z" fill="black"/>
<ellipse cx="153.5" cy="38.1818" rx="38.5" ry="38.1818" fill="#54CD63"/>
<ellipse cx="153.5" cy="38.1821" rx="35.6215" ry="35.3271" fill="white"/>
<path d="M104.768 105.257C104.768 100.431 97.7762 102.293 97.7762 99.31C97.7762 98.037 98.7452 97.429 99.9992 97.467C101.367 97.505 102.146 98.322 102.222 99.215H104.616C104.426 96.954 102.64 95.624 100.113 95.624C97.4152 95.624 95.5722 97.068 95.5722 99.386C95.5722 104.25 102.583 102.179 102.583 105.371C102.583 106.492 101.728 107.309 100.208 107.309C98.7072 107.309 97.9472 106.435 97.8522 105.352H95.5342C95.5342 107.689 97.5672 109.133 100.208 109.133C103.153 109.133 104.768 107.233 104.768 105.257Z" fill="#121212"/>
<path d="M107.666 106.093C107.666 108.221 108.825 109 110.687 109H112.397V107.195H111.067C110.155 107.195 109.851 106.872 109.851 106.093V100.298H112.397V98.531H109.851V95.928H107.666V98.531H106.431V100.298H107.666V106.093Z" fill="#121212"/>
<path d="M113.671 103.718C113.671 106.948 115.856 109.171 118.573 109.171C120.321 109.171 121.575 108.335 122.24 107.442V109H124.425V98.531H122.24V100.051C121.594 99.196 120.378 98.36 118.611 98.36C115.856 98.36 113.671 100.488 113.671 103.718ZM122.24 103.756C122.24 106.017 120.701 107.29 119.067 107.29C117.452 107.29 115.894 105.979 115.894 103.718C115.894 101.457 117.452 100.241 119.067 100.241C120.701 100.241 122.24 101.514 122.24 103.756Z" fill="#121212"/>
<path d="M134.699 109H136.846V102.825C136.846 99.899 135.003 98.36 132.552 98.36C131.298 98.36 130.139 98.873 129.436 99.728V98.531H127.27V109H129.436V103.148C129.436 101.229 130.481 100.241 132.077 100.241C133.654 100.241 134.699 101.229 134.699 103.148V109Z" fill="#121212"/>
<path d="M144.545 109H146.711V99.956L150.758 109H152.259L156.287 99.956V109H158.453V95.795H156.135L151.518 106.15L146.882 95.795H144.545V109Z" fill="#121212"/>
<path d="M160.578 103.718C160.578 106.948 162.763 109.171 165.48 109.171C167.228 109.171 168.482 108.335 169.147 107.442V109H171.332V98.531H169.147V100.051C168.501 99.196 167.285 98.36 165.518 98.36C162.763 98.36 160.578 100.488 160.578 103.718ZM169.147 103.756C169.147 106.017 167.608 107.29 165.974 107.29C164.359 107.29 162.801 105.979 162.801 103.718C162.801 101.457 164.359 100.241 165.974 100.241C167.608 100.241 169.147 101.514 169.147 103.756Z" fill="#121212"/>
<path d="M176.343 103.49C176.343 101.267 177.331 100.602 178.927 100.602H179.478V98.36C177.996 98.36 176.951 99.006 176.343 100.051V98.531H174.177V109H176.343V103.49Z" fill="#121212"/>
<path d="M181.811 106.093C181.811 108.221 182.97 109 184.832 109H186.542V107.195H185.212C184.3 107.195 183.996 106.872 183.996 106.093V100.298H186.542V98.531H183.996V95.928H181.811V98.531H180.576V100.298H181.811V106.093Z" fill="#121212"/>
<path d="M198.513 103.756C198.513 100.469 196.157 98.36 193.174 98.36C190.191 98.36 187.835 100.469 187.835 103.756C187.835 107.043 190.096 109.171 193.079 109.171C196.081 109.171 198.513 107.043 198.513 103.756ZM190.039 103.756C190.039 101.381 191.502 100.241 193.136 100.241C194.751 100.241 196.29 101.381 196.29 103.756C196.29 106.131 194.694 107.29 193.079 107.29C191.445 107.29 190.039 106.131 190.039 103.756Z" fill="#121212"/>
<path d="M208.083 109H210.23V102.825C210.23 99.899 208.387 98.36 205.936 98.36C204.682 98.36 203.523 98.873 202.82 99.728V98.531H200.654V109H202.82V103.148C202.82 101.229 203.865 100.241 205.461 100.241C207.038 100.241 208.083 101.229 208.083 103.148V109Z" fill="#121212"/>
<rect y="173" width="307" height="3" fill="#EEEEEE"/>
<rect y="173" width="102" height="3" fill="#8D05F8"/>
<path d="M291.874 196H285.818V195.156L289.018 191.601C289.492 191.064 289.817 190.628 289.995 190.293C290.177 189.955 290.268 189.606 290.268 189.246C290.268 188.764 290.122 188.368 289.83 188.059C289.538 187.75 289.149 187.596 288.662 187.596C288.078 187.596 287.623 187.763 287.297 188.097C286.976 188.427 286.815 188.889 286.815 189.481H285.641C285.641 188.63 285.914 187.943 286.459 187.418C287.01 186.893 287.744 186.631 288.662 186.631C289.521 186.631 290.2 186.857 290.7 187.31C291.199 187.759 291.449 188.357 291.449 189.106C291.449 190.016 290.869 191.1 289.709 192.356L287.234 195.042H291.874V196ZM293.658 191.366L294.127 186.758H298.863V187.843H295.124L294.845 190.363C295.298 190.097 295.812 189.963 296.387 189.963C297.229 189.963 297.898 190.243 298.393 190.801C298.888 191.356 299.136 192.107 299.136 193.055C299.136 194.007 298.878 194.758 298.361 195.308C297.849 195.854 297.132 196.127 296.209 196.127C295.393 196.127 294.726 195.901 294.21 195.448C293.694 194.995 293.4 194.369 293.328 193.569H294.438C294.51 194.098 294.699 194.498 295.003 194.769C295.308 195.035 295.71 195.168 296.209 195.168C296.755 195.168 297.183 194.982 297.492 194.61C297.805 194.237 297.961 193.723 297.961 193.067C297.961 192.45 297.792 191.954 297.454 191.582C297.119 191.205 296.673 191.017 296.114 191.017C295.602 191.017 295.2 191.129 294.908 191.354L294.597 191.607L293.658 191.366ZM306.213 192.058C306.213 193.433 305.979 194.455 305.509 195.124C305.039 195.793 304.305 196.127 303.306 196.127C302.32 196.127 301.59 195.801 301.116 195.149C300.642 194.493 300.397 193.516 300.38 192.217V190.649C300.38 189.291 300.615 188.281 301.084 187.621C301.554 186.961 302.291 186.631 303.293 186.631C304.288 186.631 305.02 186.95 305.49 187.589C305.959 188.224 306.201 189.206 306.213 190.535V192.058ZM305.039 190.452C305.039 189.458 304.899 188.734 304.62 188.281C304.341 187.824 303.899 187.596 303.293 187.596C302.693 187.596 302.255 187.822 301.979 188.275C301.704 188.728 301.563 189.424 301.554 190.363V192.242C301.554 193.241 301.698 193.979 301.986 194.458C302.278 194.931 302.718 195.168 303.306 195.168C303.886 195.168 304.315 194.944 304.595 194.496C304.878 194.047 305.026 193.34 305.039 192.375V190.452Z" fill="black"/>
<path d="M6.93506 187.418L3.10742 196H1.87598L5.69092 187.723H0.688965V186.758H6.93506V187.418ZM8.80762 191.366L9.27734 186.758H14.0127V187.843H10.2739L9.99463 190.363C10.4474 190.097 10.9616 189.963 11.5371 189.963C12.3792 189.963 13.0479 190.243 13.543 190.801C14.0381 191.356 14.2856 192.107 14.2856 193.055C14.2856 194.007 14.0275 194.758 13.5112 195.308C12.9992 195.854 12.2819 196.127 11.3594 196.127C10.5426 196.127 9.87614 195.901 9.35986 195.448C8.84359 194.995 8.54948 194.369 8.47754 193.569H9.58838C9.66032 194.098 9.84863 194.498 10.1533 194.769C10.458 195.035 10.86 195.168 11.3594 195.168C11.9053 195.168 12.3327 194.982 12.6416 194.61C12.9548 194.237 13.1113 193.723 13.1113 193.067C13.1113 192.45 12.9421 191.954 12.6035 191.582C12.2692 191.205 11.8228 191.017 11.2642 191.017C10.7521 191.017 10.3501 191.129 10.0581 191.354L9.74707 191.607L8.80762 191.366Z" fill="black"/>
<path d="M254.139 163H252.728V157.561L251.043 158.083V156.936L253.987 155.881H254.139V163ZM261.238 160.061C261.238 161.044 261.035 161.796 260.628 162.316C260.221 162.837 259.625 163.098 258.841 163.098C258.066 163.098 257.474 162.842 257.063 162.331C256.653 161.82 256.443 161.088 256.434 160.134V158.825C256.434 157.832 256.639 157.079 257.049 156.564C257.462 156.05 258.056 155.793 258.831 155.793C259.606 155.793 260.198 156.049 260.608 156.56C261.019 157.067 261.229 157.798 261.238 158.752V160.061ZM259.827 158.625C259.827 158.036 259.746 157.608 259.583 157.341C259.424 157.071 259.173 156.936 258.831 156.936C258.499 156.936 258.253 157.064 258.094 157.321C257.938 157.575 257.854 157.974 257.845 158.518V160.246C257.845 160.826 257.923 161.257 258.079 161.54C258.239 161.82 258.493 161.96 258.841 161.96C259.186 161.96 259.435 161.825 259.588 161.555C259.741 161.285 259.821 160.871 259.827 160.314V158.625ZM266.98 160.061C266.98 161.044 266.777 161.796 266.37 162.316C265.963 162.837 265.368 163.098 264.583 163.098C263.808 163.098 263.216 162.842 262.806 162.331C262.396 161.82 262.186 161.088 262.176 160.134V158.825C262.176 157.832 262.381 157.079 262.791 156.564C263.204 156.05 263.799 155.793 264.573 155.793C265.348 155.793 265.94 156.049 266.351 156.56C266.761 157.067 266.971 157.798 266.98 158.752V160.061ZM265.569 158.625C265.569 158.036 265.488 157.608 265.325 157.341C265.166 157.071 264.915 156.936 264.573 156.936C264.241 156.936 263.995 157.064 263.836 157.321C263.68 157.575 263.597 157.974 263.587 158.518V160.246C263.587 160.826 263.665 161.257 263.821 161.54C263.981 161.82 264.235 161.96 264.583 161.96C264.928 161.96 265.177 161.825 265.33 161.555C265.483 161.285 265.563 160.871 265.569 160.314V158.625ZM272.044 160.495V163H270.579V155.891H273.353C273.886 155.891 274.355 155.988 274.759 156.184C275.166 156.379 275.478 156.657 275.696 157.019C275.914 157.377 276.023 157.785 276.023 158.244C276.023 158.941 275.784 159.491 275.306 159.895C274.83 160.295 274.171 160.495 273.328 160.495H272.044ZM272.044 159.309H273.353C273.74 159.309 274.035 159.217 274.236 159.035C274.441 158.853 274.544 158.592 274.544 158.254C274.544 157.906 274.441 157.624 274.236 157.409C274.031 157.194 273.748 157.084 273.387 157.077H272.044V159.309ZM276.653 160.31C276.653 159.785 276.754 159.318 276.956 158.908C277.158 158.498 277.448 158.181 277.825 157.956C278.206 157.731 278.647 157.619 279.148 157.619C279.861 157.619 280.442 157.837 280.892 158.273C281.344 158.71 281.596 159.302 281.648 160.051L281.658 160.412C281.658 161.223 281.432 161.874 280.979 162.365C280.527 162.854 279.92 163.098 279.158 163.098C278.396 163.098 277.788 162.854 277.332 162.365C276.88 161.877 276.653 161.213 276.653 160.373V160.31ZM278.064 160.412C278.064 160.913 278.159 161.298 278.348 161.564C278.536 161.828 278.807 161.96 279.158 161.96C279.5 161.96 279.767 161.83 279.959 161.569C280.151 161.306 280.247 160.886 280.247 160.31C280.247 159.818 280.151 159.437 279.959 159.167C279.767 158.897 279.497 158.762 279.148 158.762C278.803 158.762 278.536 158.897 278.348 159.167C278.159 159.434 278.064 159.849 278.064 160.412ZM284.017 163H282.601V157.717H284.017V163ZM282.518 156.35C282.518 156.138 282.588 155.964 282.728 155.827C282.871 155.69 283.064 155.622 283.309 155.622C283.549 155.622 283.742 155.69 283.885 155.827C284.028 155.964 284.1 156.138 284.1 156.35C284.1 156.564 284.026 156.74 283.88 156.877C283.737 157.014 283.546 157.082 283.309 157.082C283.071 157.082 282.879 157.014 282.732 156.877C282.589 156.74 282.518 156.564 282.518 156.35ZM286.482 157.717L286.526 158.327C286.904 157.855 287.41 157.619 288.045 157.619C288.605 157.619 289.021 157.784 289.295 158.112C289.568 158.441 289.708 158.933 289.715 159.587V163H288.304V159.621C288.304 159.322 288.239 159.105 288.108 158.972C287.978 158.835 287.762 158.767 287.459 158.767C287.062 158.767 286.764 158.936 286.565 159.274V163H285.154V157.717H286.482ZM292.479 156.418V157.717H293.382V158.752H292.479V161.389C292.479 161.584 292.516 161.724 292.591 161.809C292.666 161.893 292.809 161.936 293.021 161.936C293.177 161.936 293.315 161.924 293.436 161.901V162.971C293.159 163.055 292.874 163.098 292.581 163.098C291.591 163.098 291.087 162.598 291.067 161.599V158.752H290.296V157.717H291.067V156.418H292.479ZM297.029 161.54C297.029 161.368 296.943 161.232 296.771 161.135C296.601 161.034 296.328 160.944 295.95 160.866C294.694 160.603 294.065 160.069 294.065 159.265C294.065 158.796 294.259 158.405 294.646 158.093C295.037 157.777 295.547 157.619 296.175 157.619C296.845 157.619 297.381 157.777 297.781 158.093C298.185 158.409 298.387 158.819 298.387 159.323H296.976C296.976 159.121 296.91 158.955 296.78 158.825C296.65 158.692 296.447 158.625 296.17 158.625C295.932 158.625 295.748 158.679 295.618 158.786C295.488 158.894 295.423 159.03 295.423 159.196C295.423 159.353 295.496 159.479 295.643 159.577C295.792 159.672 296.043 159.755 296.395 159.826C296.746 159.895 297.042 159.973 297.283 160.061C298.029 160.334 298.401 160.808 298.401 161.481C298.401 161.963 298.195 162.354 297.781 162.653C297.368 162.95 296.834 163.098 296.18 163.098C295.737 163.098 295.343 163.02 294.998 162.863C294.656 162.704 294.388 162.487 294.192 162.214C293.997 161.937 293.899 161.639 293.899 161.32H295.237C295.25 161.571 295.343 161.763 295.516 161.896C295.688 162.03 295.919 162.097 296.209 162.097C296.479 162.097 296.683 162.046 296.819 161.945C296.959 161.841 297.029 161.706 297.029 161.54Z" fill="black"/>
<path d="M302 157L305 160L302 163" stroke="black" stroke-linejoin="round"/>
</svg>
