<svg xmlns="http://www.w3.org/2000/svg" xmlns:xlink="http://www.w3.org/1999/xlink" width="317" height="45" viewBox="0 0 317 45">
  <defs>
    <linearGradient id="linear-gradient" y1="0.5" x2="1" y2="0.5" gradientUnits="objectBoundingBox">
      <stop offset="0" stop-color="#fff"/>
      <stop offset="0.001" stop-color="#287ffc"/>
      <stop offset="1" stop-color="#6efc06"/>
    </linearGradient>
  </defs>
  <g id="Group_6" data-name="Group 6" transform="translate(-244 -182)">
    <rect id="Rectangle_4" data-name="Rectangle 4" width="317" height="45" rx="6" transform="translate(244 182)" fill="url(#linear-gradient)"/>
    <path id="Path_4" data-name="Path 4" d="M5.882,7.62A1.113,1.113,0,0,0,5.45,6.68a5.1,5.1,0,0,0-1.542-.667A7.464,7.464,0,0,1,2.13,5.265,2.372,2.372,0,0,1,.867,3.2a2.255,2.255,0,0,1,.908-1.841A3.7,3.7,0,0,1,4.143.631a3.994,3.994,0,0,1,1.72.355A2.816,2.816,0,0,1,7.05,2a2.582,2.582,0,0,1,.432,1.454h-1.6a1.433,1.433,0,0,0-.457-1.13A1.852,1.852,0,0,0,4.13,1.913,1.971,1.971,0,0,0,2.9,2.25a1.123,1.123,0,0,0-.432.939,1.021,1.021,0,0,0,.47.851,5.535,5.535,0,0,0,1.549.66,6.962,6.962,0,0,1,1.733.73,2.721,2.721,0,0,1,.959.939,2.429,2.429,0,0,1,.3,1.238A2.205,2.205,0,0,1,6.6,9.448a3.84,3.84,0,0,1-2.4.679,4.571,4.571,0,0,1-1.847-.368A3.147,3.147,0,0,1,1.045,8.73,2.567,2.567,0,0,1,.582,7.207H2.188a1.5,1.5,0,0,0,.521,1.219A2.279,2.279,0,0,0,4.2,8.857a1.98,1.98,0,0,0,1.257-.336A1.1,1.1,0,0,0,5.882,7.62Zm8.188.229H10.49L9.741,10H8.072L11.563.758H13L16.5,10H14.826ZM10.941,6.553H13.62L12.28,2.719Zm9.376,1.435L22.665.758H24.43L21.1,10H19.548L16.235.758h1.758ZM30.879,5.874h-3.8V8.718H31.52V10H25.477V.758h6V2.053H27.083V4.6h3.8Z" transform="translate(386.418 199.369)" fill="#fff"/>
  </g>
</svg>
