<svg width="14" height="12" viewBox="0 0 14 12" fill="none" xmlns="http://www.w3.org/2000/svg">
<path d="M14 4.5V1.5C14 0.675 13.37 0 12.6 0H1.4C0.63 0 0.00699999 0.675 0.00699999 1.5V4.5C0.777 4.5 1.4 5.175 1.4 6C1.4 6.825 0.777 7.5 0 7.5V10.5C0 11.325 0.63 12 1.4 12H12.6C13.37 12 14 11.325 14 10.5V7.5C13.23 7.5 12.6 6.825 12.6 6C12.6 5.175 13.23 4.5 14 4.5ZM12.6 3.405C11.767 3.9225 11.2 4.8975 11.2 6C11.2 7.1025 11.767 8.0775 12.6 8.595V10.5H1.4V8.595C2.233 8.0775 2.8 7.1025 2.8 6C2.8 4.89 2.24 3.9225 1.407 3.405L1.4 1.5H12.6V3.405ZM4.949 9L7 7.59L9.051 9L8.428 6.48L10.311 4.83L7.882 4.6725L7 2.25L6.111 4.665L3.682 4.8225L5.565 6.4725L4.949 9Z" fill="#0BBE22"/>
</svg>
