<svg width="53" height="80" viewBox="0 0 53 80" fill="none" xmlns="http://www.w3.org/2000/svg">
<path d="M12.7148 64.1689C12.7148 63.8564 12.6042 63.6156 12.3828 63.4463C12.1647 63.277 11.7692 63.1061 11.1963 62.9336C10.6234 62.7611 10.1676 62.569 9.8291 62.3574C9.18132 61.9505 8.85742 61.4199 8.85742 60.7656C8.85742 60.1927 9.09017 59.7207 9.55566 59.3496C10.0244 58.9785 10.6315 58.793 11.377 58.793C11.8717 58.793 12.3128 58.8841 12.7002 59.0664C13.0876 59.2487 13.3919 59.5091 13.6133 59.8477C13.8346 60.1829 13.9453 60.5557 13.9453 60.9658H12.7148C12.7148 60.5947 12.5977 60.305 12.3633 60.0967C12.1322 59.8851 11.8001 59.7793 11.3672 59.7793C10.9635 59.7793 10.6494 59.8656 10.4248 60.0381C10.2035 60.2106 10.0928 60.4515 10.0928 60.7607C10.0928 61.0212 10.2132 61.2393 10.4541 61.415C10.695 61.5876 11.0921 61.7568 11.6455 61.9229C12.1989 62.0856 12.6432 62.2728 12.9785 62.4844C13.3138 62.6927 13.5596 62.9336 13.7158 63.207C13.8721 63.4772 13.9502 63.7946 13.9502 64.1592C13.9502 64.7516 13.7223 65.2236 13.2666 65.5752C12.8141 65.9235 12.1989 66.0977 11.4209 66.0977C10.9066 66.0977 10.4329 66.0033 10 65.8145C9.57031 65.6224 9.23503 65.3587 8.99414 65.0234C8.75651 64.6882 8.6377 64.2975 8.6377 63.8516H9.87305C9.87305 64.2552 10.0065 64.5677 10.2734 64.7891C10.5404 65.0104 10.9229 65.1211 11.4209 65.1211C11.8506 65.1211 12.1729 65.0348 12.3877 64.8623C12.6058 64.6865 12.7148 64.4554 12.7148 64.1689Z" fill="#575757"/>
<path d="M17.2461 66.0977C16.4941 66.0977 15.8838 65.8617 15.415 65.3896C14.9495 64.9144 14.7168 64.2829 14.7168 63.4951V63.3486C14.7168 62.8213 14.8177 62.3509 15.0195 61.9375C15.2246 61.5208 15.5111 61.1969 15.8789 60.9658C16.2467 60.7347 16.6569 60.6191 17.1094 60.6191C17.8288 60.6191 18.3838 60.8486 18.7744 61.3076C19.1683 61.7666 19.3652 62.416 19.3652 63.2559V63.7344H15.9131C15.9489 64.1706 16.0938 64.5156 16.3477 64.7695C16.6048 65.0234 16.9271 65.1504 17.3145 65.1504C17.8581 65.1504 18.3008 64.9307 18.6426 64.4912L19.2822 65.1016C19.0706 65.4173 18.7874 65.6631 18.4326 65.8389C18.0811 66.0114 17.6855 66.0977 17.2461 66.0977ZM17.1045 61.5713C16.779 61.5713 16.5153 61.6852 16.3135 61.9131C16.1149 62.141 15.988 62.4583 15.9326 62.8652H18.1934V62.7773C18.1673 62.3802 18.0615 62.0807 17.876 61.8789C17.6904 61.6738 17.4333 61.5713 17.1045 61.5713Z" fill="#575757"/>
<path d="M22.4609 65.1504C22.7572 65.1504 23.0029 65.0641 23.1982 64.8916C23.3936 64.7191 23.4977 64.5059 23.5107 64.252H24.6289C24.6159 64.5807 24.5133 64.8883 24.3213 65.1748C24.1292 65.458 23.8688 65.6826 23.54 65.8486C23.2113 66.0146 22.8564 66.0977 22.4756 66.0977C21.7367 66.0977 21.1507 65.8584 20.7178 65.3799C20.2848 64.9014 20.0684 64.2406 20.0684 63.3975V63.2754C20.0684 62.4714 20.2832 61.8285 20.7129 61.3467C21.1426 60.8617 21.7285 60.6191 22.4707 60.6191C23.099 60.6191 23.61 60.8031 24.0039 61.1709C24.401 61.5355 24.6094 62.0156 24.6289 62.6113H23.5107C23.4977 62.3086 23.3936 62.0596 23.1982 61.8643C23.0062 61.6689 22.7604 61.5713 22.4609 61.5713C22.0768 61.5713 21.7806 61.7113 21.5723 61.9912C21.3639 62.2679 21.2581 62.6895 21.2549 63.2559V63.4463C21.2549 64.0192 21.3574 64.4473 21.5625 64.7305C21.7708 65.0104 22.0703 65.1504 22.4609 65.1504Z" fill="#575757"/>
<path d="M28.7256 65.4824C28.3773 65.8926 27.8825 66.0977 27.2412 66.0977C26.6683 66.0977 26.2337 65.93 25.9375 65.5947C25.6445 65.2594 25.498 64.7744 25.498 64.1396V60.7168H26.6846V64.125C26.6846 64.7956 26.9629 65.1309 27.5195 65.1309C28.0957 65.1309 28.4847 64.9242 28.6865 64.5107V60.7168H29.873V66H28.7549L28.7256 65.4824Z" fill="#575757"/>
<path d="M33.8477 61.8008C33.6914 61.7747 33.5303 61.7617 33.3643 61.7617C32.8206 61.7617 32.4544 61.9701 32.2656 62.3867V66H31.0791V60.7168H32.2119L32.2412 61.3076C32.5277 60.8486 32.9248 60.6191 33.4326 60.6191C33.6019 60.6191 33.7419 60.6419 33.8525 60.6875L33.8477 61.8008Z" fill="#575757"/>
<path d="M35.8594 66H34.6729V60.7168H35.8594V66ZM34.5996 59.3447C34.5996 59.1624 34.6566 59.0111 34.7705 58.8906C34.8877 58.7702 35.0537 58.71 35.2686 58.71C35.4834 58.71 35.6494 58.7702 35.7666 58.8906C35.8838 59.0111 35.9424 59.1624 35.9424 59.3447C35.9424 59.5238 35.8838 59.6735 35.7666 59.7939C35.6494 59.9111 35.4834 59.9697 35.2686 59.9697C35.0537 59.9697 34.8877 59.9111 34.7705 59.7939C34.6566 59.6735 34.5996 59.5238 34.5996 59.3447Z" fill="#575757"/>
<path d="M38.6426 59.4326V60.7168H39.5752V61.5957H38.6426V64.5449C38.6426 64.7467 38.6816 64.8932 38.7598 64.9844C38.8411 65.0723 38.9844 65.1162 39.1895 65.1162C39.3262 65.1162 39.4645 65.0999 39.6045 65.0674V65.9854C39.3343 66.0602 39.0739 66.0977 38.8232 66.0977C37.9118 66.0977 37.4561 65.5947 37.4561 64.5889V61.5957H36.5869V60.7168H37.4561V59.4326H38.6426Z" fill="#575757"/>
<path d="M42.334 64.3008L43.4082 60.7168H44.6729L42.5732 66.8008C42.251 67.6895 41.7041 68.1338 40.9326 68.1338C40.7601 68.1338 40.5697 68.1045 40.3613 68.0459V67.1279L40.5859 67.1426C40.8854 67.1426 41.11 67.0872 41.2598 66.9766C41.4128 66.8691 41.5332 66.6868 41.6211 66.4297L41.792 65.9756L39.9365 60.7168H41.2158L42.334 64.3008Z" fill="#575757"/>
<path d="M12.002 75.5645C12.002 75.3529 11.9141 75.1917 11.7383 75.0811C11.5658 74.9704 11.2777 74.8727 10.874 74.7881C10.4704 74.7035 10.1335 74.596 9.86328 74.4658C9.27083 74.1794 8.97461 73.7643 8.97461 73.2207C8.97461 72.765 9.16667 72.3841 9.55078 72.0781C9.9349 71.7721 10.4232 71.6191 11.0156 71.6191C11.6471 71.6191 12.1566 71.7754 12.5439 72.0879C12.9346 72.4004 13.1299 72.8057 13.1299 73.3037H11.9434C11.9434 73.0758 11.8587 72.887 11.6895 72.7373C11.5202 72.5843 11.2956 72.5078 11.0156 72.5078C10.7552 72.5078 10.542 72.568 10.376 72.6885C10.2132 72.8089 10.1318 72.9701 10.1318 73.1719C10.1318 73.3542 10.2083 73.4958 10.3613 73.5967C10.5143 73.6976 10.8236 73.8001 11.2891 73.9043C11.7546 74.0052 12.1191 74.1273 12.3828 74.2705C12.6497 74.4105 12.8467 74.5798 12.9736 74.7783C13.1038 74.9769 13.1689 75.2178 13.1689 75.501C13.1689 75.9762 12.972 76.362 12.5781 76.6582C12.1842 76.9512 11.6683 77.0977 11.0303 77.0977C10.5973 77.0977 10.2116 77.0195 9.87305 76.8633C9.53451 76.707 9.27083 76.4922 9.08203 76.2188C8.89323 75.9453 8.79883 75.6507 8.79883 75.335H9.95117C9.96745 75.6149 10.0732 75.8314 10.2686 75.9844C10.4639 76.1341 10.7227 76.209 11.0449 76.209C11.3574 76.209 11.5951 76.1504 11.7578 76.0332C11.9206 75.9128 12.002 75.7565 12.002 75.5645Z" fill="#575757"/>
<path d="M16.5332 77.0977C15.7812 77.0977 15.1709 76.8617 14.7021 76.3896C14.2367 75.9144 14.0039 75.2829 14.0039 74.4951V74.3486C14.0039 73.8213 14.1048 73.3509 14.3066 72.9375C14.5117 72.5208 14.7982 72.1969 15.166 71.9658C15.5339 71.7347 15.944 71.6191 16.3965 71.6191C17.1159 71.6191 17.6709 71.8486 18.0615 72.3076C18.4554 72.7666 18.6523 73.416 18.6523 74.2559V74.7344H15.2002C15.236 75.1706 15.3809 75.5156 15.6348 75.7695C15.8919 76.0234 16.2142 76.1504 16.6016 76.1504C17.1452 76.1504 17.5879 75.9307 17.9297 75.4912L18.5693 76.1016C18.3577 76.4173 18.0745 76.6631 17.7197 76.8389C17.3682 77.0114 16.9727 77.0977 16.5332 77.0977ZM16.3916 72.5713C16.0661 72.5713 15.8024 72.6852 15.6006 72.9131C15.402 73.141 15.2751 73.4583 15.2197 73.8652H17.4805V73.7773C17.4544 73.3802 17.3486 73.0807 17.1631 72.8789C16.9775 72.6738 16.7204 72.5713 16.3916 72.5713Z" fill="#575757"/>
<path d="M21.0645 70.4326V71.7168H21.9971V72.5957H21.0645V75.5449C21.0645 75.7467 21.1035 75.8932 21.1816 75.9844C21.263 76.0723 21.4062 76.1162 21.6113 76.1162C21.748 76.1162 21.8864 76.0999 22.0264 76.0674V76.9854C21.7562 77.0602 21.4958 77.0977 21.2451 77.0977C20.3337 77.0977 19.8779 76.5947 19.8779 75.5889V72.5957H19.0088V71.7168H19.8779V70.4326H21.0645Z" fill="#575757"/>
<path d="M24.3945 70.4326V71.7168H25.3271V72.5957H24.3945V75.5449C24.3945 75.7467 24.4336 75.8932 24.5117 75.9844C24.5931 76.0723 24.7363 76.1162 24.9414 76.1162C25.0781 76.1162 25.2165 76.0999 25.3564 76.0674V76.9854C25.0863 77.0602 24.8258 77.0977 24.5752 77.0977C23.6637 77.0977 23.208 76.5947 23.208 75.5889V72.5957H22.3389V71.7168H23.208V70.4326H24.3945Z" fill="#575757"/>
<path d="M27.5 77H26.3135V71.7168H27.5V77ZM26.2402 70.3447C26.2402 70.1624 26.2972 70.0111 26.4111 69.8906C26.5283 69.7702 26.6943 69.71 26.9092 69.71C27.124 69.71 27.29 69.7702 27.4072 69.8906C27.5244 70.0111 27.583 70.1624 27.583 70.3447C27.583 70.5238 27.5244 70.6735 27.4072 70.7939C27.29 70.9111 27.124 70.9697 26.9092 70.9697C26.6943 70.9697 26.5283 70.9111 26.4111 70.7939C26.2972 70.6735 26.2402 70.5238 26.2402 70.3447Z" fill="#575757"/>
<path d="M29.8975 71.7168L29.9316 72.3271C30.3223 71.8551 30.835 71.6191 31.4697 71.6191C32.57 71.6191 33.1299 72.249 33.1494 73.5088V77H31.9629V73.5771C31.9629 73.2419 31.8896 72.9945 31.7432 72.835C31.5999 72.6722 31.3639 72.5908 31.0352 72.5908C30.5566 72.5908 30.2002 72.8073 29.9658 73.2402V77H28.7793V71.7168H29.8975Z" fill="#575757"/>
<path d="M34.1553 74.3193C34.1553 73.499 34.3473 72.8447 34.7314 72.3564C35.1188 71.8649 35.6315 71.6191 36.2695 71.6191C36.8717 71.6191 37.3454 71.8291 37.6904 72.249L37.7441 71.7168H38.8135V76.8389C38.8135 77.5322 38.597 78.0791 38.1641 78.4795C37.7344 78.8799 37.1533 79.0801 36.4209 79.0801C36.0335 79.0801 35.6543 78.9987 35.2832 78.8359C34.9154 78.6764 34.6354 78.4665 34.4434 78.2061L35.0049 77.4932C35.3695 77.9261 35.8187 78.1426 36.3525 78.1426C36.7464 78.1426 37.0573 78.0352 37.2852 77.8203C37.513 77.6087 37.627 77.2962 37.627 76.8828V76.5264C37.2852 76.9072 36.8294 77.0977 36.2598 77.0977C35.6413 77.0977 35.1351 76.8519 34.7412 76.3604C34.3506 75.8688 34.1553 75.1885 34.1553 74.3193ZM35.3369 74.4219C35.3369 74.9525 35.4443 75.3708 35.6592 75.6768C35.8773 75.9795 36.1784 76.1309 36.5625 76.1309C37.041 76.1309 37.3958 75.9258 37.627 75.5156V73.1914C37.4023 72.791 37.0508 72.5908 36.5723 72.5908C36.1816 72.5908 35.8773 72.7454 35.6592 73.0547C35.4443 73.3639 35.3369 73.8197 35.3369 74.4219Z" fill="#575757"/>
<path d="M42.998 75.5645C42.998 75.3529 42.9102 75.1917 42.7344 75.0811C42.5618 74.9704 42.2738 74.8727 41.8701 74.7881C41.4665 74.7035 41.1296 74.596 40.8594 74.4658C40.2669 74.1794 39.9707 73.7643 39.9707 73.2207C39.9707 72.765 40.1628 72.3841 40.5469 72.0781C40.931 71.7721 41.4193 71.6191 42.0117 71.6191C42.6432 71.6191 43.1527 71.7754 43.54 72.0879C43.9307 72.4004 44.126 72.8057 44.126 73.3037H42.9395C42.9395 73.0758 42.8548 72.887 42.6855 72.7373C42.5163 72.5843 42.2917 72.5078 42.0117 72.5078C41.7513 72.5078 41.5381 72.568 41.3721 72.6885C41.2093 72.8089 41.1279 72.9701 41.1279 73.1719C41.1279 73.3542 41.2044 73.4958 41.3574 73.5967C41.5104 73.6976 41.8197 73.8001 42.2852 73.9043C42.7507 74.0052 43.1152 74.1273 43.3789 74.2705C43.6458 74.4105 43.8428 74.5798 43.9697 74.7783C44.0999 74.9769 44.165 75.2178 44.165 75.501C44.165 75.9762 43.9681 76.362 43.5742 76.6582C43.1803 76.9512 42.6644 77.0977 42.0264 77.0977C41.5934 77.0977 41.2077 77.0195 40.8691 76.8633C40.5306 76.707 40.2669 76.4922 40.0781 76.2188C39.8893 75.9453 39.7949 75.6507 39.7949 75.335H40.9473C40.9635 75.6149 41.0693 75.8314 41.2646 75.9844C41.46 76.1341 41.7188 76.209 42.041 76.209C42.3535 76.209 42.5911 76.1504 42.7539 76.0332C42.9167 75.9128 42.998 75.7565 42.998 75.5645Z" fill="#575757"/>
<rect x="0.0136719" width="52" height="52" rx="15" fill="#00BA13"/>
<path d="M32.0137 22.3333H31.0137V20.2381C31.0137 17.3467 28.7737 15 26.0137 15C23.2537 15 21.0137 17.3467 21.0137 20.2381V22.3333H20.0137C18.9137 22.3333 18.0137 23.2762 18.0137 24.4286V34.9048C18.0137 36.0571 18.9137 37 20.0137 37H32.0137C33.1137 37 34.0137 36.0571 34.0137 34.9048V24.4286C34.0137 23.2762 33.1137 22.3333 32.0137 22.3333ZM23.0137 20.2381C23.0137 18.499 24.3537 17.0952 26.0137 17.0952C27.6737 17.0952 29.0137 18.499 29.0137 20.2381V22.3333H23.0137V20.2381ZM32.0137 34.9048H20.0137V24.4286H32.0137V34.9048ZM26.0137 31.7619C27.1137 31.7619 28.0137 30.819 28.0137 29.6667C28.0137 28.5143 27.1137 27.5714 26.0137 27.5714C24.9137 27.5714 24.0137 28.5143 24.0137 29.6667C24.0137 30.819 24.9137 31.7619 26.0137 31.7619Z" fill="white"/>
</svg>
