<svg width="317" height="45" viewBox="0 0 317 45" fill="none" xmlns="http://www.w3.org/2000/svg">
<rect width="317" height="45" rx="6" fill="url(#paint0_linear)"/>
<path d="M141.125 24.6196C141.125 24.2134 140.981 23.9002 140.693 23.6802C140.41 23.4601 139.896 23.238 139.151 23.0137C138.406 22.7894 137.814 22.5397 137.374 22.2646C136.531 21.7357 136.11 21.0459 136.11 20.1953C136.11 19.4505 136.413 18.8369 137.018 18.3545C137.627 17.8721 138.417 17.6309 139.386 17.6309C140.029 17.6309 140.602 17.7493 141.106 17.9863C141.61 18.2233 142.005 18.5618 142.293 19.002C142.581 19.4378 142.725 19.9224 142.725 20.4556H141.125C141.125 19.9731 140.973 19.5965 140.668 19.3257C140.368 19.0506 139.936 18.9131 139.373 18.9131C138.848 18.9131 138.44 19.0252 138.148 19.2495C137.86 19.4738 137.716 19.7869 137.716 20.189C137.716 20.5275 137.873 20.811 138.186 21.0396C138.499 21.2638 139.015 21.4839 139.735 21.6997C140.454 21.9113 141.032 22.1546 141.468 22.4297C141.904 22.7005 142.223 23.0137 142.426 23.3691C142.629 23.7204 142.731 24.133 142.731 24.6069C142.731 25.3771 142.435 25.9907 141.842 26.4478C141.254 26.9006 140.454 27.127 139.443 27.127C138.774 27.127 138.159 27.0042 137.596 26.7588C137.037 26.5091 136.601 26.1663 136.288 25.7305C135.979 25.2946 135.825 24.7868 135.825 24.207H137.431C137.431 24.7318 137.604 25.138 137.951 25.4258C138.298 25.7135 138.795 25.8574 139.443 25.8574C140.001 25.8574 140.42 25.7453 140.7 25.521C140.983 25.2925 141.125 24.992 141.125 24.6196ZM150.9 17.7578V23.9341C150.9 24.9159 150.585 25.6945 149.955 26.27C149.328 26.8413 148.493 27.127 147.447 27.127C146.389 27.127 145.549 26.8455 144.927 26.2827C144.305 25.7157 143.994 24.9307 143.994 23.9277V17.7578H145.594V23.9404C145.594 24.5583 145.75 25.0301 146.063 25.356C146.377 25.6818 146.838 25.8447 147.447 25.8447C148.683 25.8447 149.301 25.193 149.301 23.8896V17.7578H150.9ZM152.621 27V17.7578H155.788C156.833 17.7578 157.629 17.9673 158.175 18.3862C158.721 18.8052 158.994 19.4294 158.994 20.2588C158.994 20.682 158.879 21.0628 158.651 21.4014C158.422 21.7399 158.088 22.0023 157.648 22.1885C158.147 22.3239 158.532 22.5799 158.803 22.9565C159.078 23.3289 159.216 23.7775 159.216 24.3022C159.216 25.1698 158.937 25.8363 158.378 26.3018C157.824 26.7673 157.028 27 155.991 27H152.621ZM154.227 22.8296V25.7178H156.01C156.514 25.7178 156.907 25.5929 157.191 25.3433C157.474 25.0936 157.616 24.7466 157.616 24.3022C157.616 23.3416 157.125 22.8507 156.144 22.8296H154.227ZM154.227 21.6489H155.801C156.3 21.6489 156.689 21.5368 156.969 21.3125C157.252 21.084 157.394 20.7624 157.394 20.3477C157.394 19.8906 157.263 19.5605 157 19.3574C156.742 19.1543 156.338 19.0527 155.788 19.0527H154.227V21.6489ZM162.904 17.7578L165.57 24.8418L168.229 17.7578H170.305V27H168.706V23.9531L168.864 19.8779L166.135 27H164.986L162.263 19.8843L162.421 23.9531V27H160.822V17.7578H162.904ZM173.904 27H172.305V17.7578H173.904V27ZM182.366 19.0527H179.484V27H177.891V19.0527H175.034V17.7578H182.366V19.0527Z" fill="white"/>
<defs>
<linearGradient id="paint0_linear" x1="0" y1="0" x2="320.5" y2="48" gradientUnits="userSpaceOnUse">
<stop stop-color="#277DFF"/>
<stop offset="1" stop-color="#70FF00"/>
</linearGradient>
</defs>
</svg>
