<svg xmlns="http://www.w3.org/2000/svg" xmlns:xlink="http://www.w3.org/1999/xlink" width="317" height="45" viewBox="0 0 317 45">
  <defs>
    <linearGradient id="linear-gradient" y1="0.5" x2="1" y2="0.5" gradientUnits="objectBoundingBox">
      <stop offset="0" stop-color="#fff"/>
      <stop offset="0.001" stop-color="#287ffc"/>
      <stop offset="1" stop-color="#6efc06"/>
    </linearGradient>
  </defs>
  <g id="Group_5" data-name="Group 5" transform="translate(-244 43)">
    <rect id="Rectangle_3" data-name="Rectangle 3" width="317" height="45" rx="6" transform="translate(244 -43)" fill="url(#linear-gradient)"/>
    <path id="Path_3" data-name="Path 3" d="M6.125,7.62a1.113,1.113,0,0,0-.432-.939,5.1,5.1,0,0,0-1.542-.667,7.464,7.464,0,0,1-1.777-.749A2.372,2.372,0,0,1,1.11,3.2a2.255,2.255,0,0,1,.908-1.841A3.7,3.7,0,0,1,4.386.631a3.994,3.994,0,0,1,1.72.355A2.816,2.816,0,0,1,7.293,2a2.582,2.582,0,0,1,.432,1.454h-1.6a1.433,1.433,0,0,0-.457-1.13,1.852,1.852,0,0,0-1.295-.413,1.971,1.971,0,0,0-1.225.336,1.124,1.124,0,0,0-.432.939,1.021,1.021,0,0,0,.47.851,5.535,5.535,0,0,0,1.549.66,6.962,6.962,0,0,1,1.733.73,2.721,2.721,0,0,1,.958.939,2.429,2.429,0,0,1,.3,1.238,2.205,2.205,0,0,1-.889,1.841,3.84,3.84,0,0,1-2.4.679A4.571,4.571,0,0,1,2.6,9.759,3.147,3.147,0,0,1,1.288,8.73,2.567,2.567,0,0,1,.825,7.207H2.431a1.5,1.5,0,0,0,.521,1.219,2.279,2.279,0,0,0,1.492.432A1.98,1.98,0,0,0,5.7,8.521,1.1,1.1,0,0,0,6.125,7.62ZM15.9.758V6.934a3.007,3.007,0,0,1-.946,2.336,3.577,3.577,0,0,1-2.507.857,3.615,3.615,0,0,1-2.52-.844,3.026,3.026,0,0,1-.933-2.355V.758h1.6V6.94a1.964,1.964,0,0,0,.47,1.416,1.832,1.832,0,0,0,1.384.489q1.853,0,1.854-1.955V.758ZM17.621,10V.758h3.167a3.867,3.867,0,0,1,2.387.628,2.213,2.213,0,0,1,.819,1.873A2,2,0,0,1,23.651,4.4a2.206,2.206,0,0,1-1,.787,2.019,2.019,0,0,1,1.155.768A2.2,2.2,0,0,1,24.216,7.3a2.456,2.456,0,0,1-.838,2,3.616,3.616,0,0,1-2.387.7Zm1.606-4.17V8.718H21.01a1.726,1.726,0,0,0,1.181-.375A1.315,1.315,0,0,0,22.616,7.3,1.319,1.319,0,0,0,21.144,5.83Zm0-1.181H20.8a1.819,1.819,0,0,0,1.168-.336,1.169,1.169,0,0,0,.425-.965A1.175,1.175,0,0,0,22,2.357a1.957,1.957,0,0,0-1.212-.3H19.227ZM27.9.758,30.57,7.842,33.229.758h2.076V10h-1.6V6.953l.159-4.075L31.135,10H29.986L27.263,2.884l.159,4.069V10h-1.6V.758ZM38.9,10H37.3V.758h1.6Zm8.461-7.947H44.484V10H42.891V2.053H40.034V.758h7.332Z" transform="translate(378.175 -25.631)" fill="#fff"/>
  </g>
</svg>
