<svg width="14" height="15" viewBox="0 0 14 15" fill="none" xmlns="http://www.w3.org/2000/svg">
<path d="M6.63158 0L2.57895 6.75H10.6842L6.63158 0ZM6.63158 2.88L8.05368 5.25H5.20211L6.63158 2.88ZM10.6842 8.25C8.84947 8.25 7.36842 9.7575 7.36842 11.625C7.36842 13.4925 8.84947 15 10.6842 15C12.5189 15 14 13.4925 14 11.625C14 9.7575 12.5189 8.25 10.6842 8.25ZM10.6842 13.5C9.66737 13.5 8.8421 12.66 8.8421 11.625C8.8421 10.59 9.66737 9.75 10.6842 9.75C11.7011 9.75 12.5263 10.59 12.5263 11.625C12.5263 12.66 11.7011 13.5 10.6842 13.5ZM0 14.625H5.89474V8.625H0V14.625ZM1.47368 10.125H4.42105V13.125H1.47368V10.125Z" fill="#0BBE22"/>
</svg>
