<svg width="317" height="61" viewBox="0 0 317 61" fill="none" xmlns="http://www.w3.org/2000/svg">
<rect x="0.25" y="0.25" width="316.5" height="60.5" rx="7.75" fill="#1F2A3E" stroke="#1F2A3E" stroke-width="0.5"/>
<path d="M84.4486 30H86.0766L83.3156 22.311H81.5226L78.7616 30H80.3786L80.8846 28.537H83.9426L84.4486 30ZM83.5246 27.305H81.3026L82.4136 24.093L83.5246 27.305ZM86.7126 26.953C86.7126 28.867 87.9666 30.099 89.7266 30.099C91.2446 30.099 92.2676 29.241 92.5976 27.943H90.9366C90.7496 28.493 90.3536 28.779 89.7156 28.779C88.8576 28.779 88.2856 28.141 88.2856 26.953C88.2856 25.765 88.8576 25.116 89.7156 25.116C90.3536 25.116 90.7606 25.446 90.9366 25.963H92.5976C92.2676 24.599 91.2446 23.807 89.7266 23.807C87.9666 23.807 86.7126 25.039 86.7126 26.953ZM93.3298 26.953C93.3298 28.867 94.5838 30.099 96.3438 30.099C97.8618 30.099 98.8848 29.241 99.2148 27.943H97.5538C97.3668 28.493 96.9708 28.779 96.3328 28.779C95.4748 28.779 94.9028 28.141 94.9028 26.953C94.9028 25.765 95.4748 25.116 96.3328 25.116C96.9708 25.116 97.3778 25.446 97.5538 25.963H99.2148C98.8848 24.599 97.8618 23.807 96.3438 23.807C94.5838 23.807 93.3298 25.039 93.3298 26.953ZM106.228 26.953C106.228 25.028 104.853 23.807 103.093 23.807C101.333 23.807 99.958 25.028 99.958 26.953C99.958 28.867 101.289 30.099 103.049 30.099C104.82 30.099 106.228 28.867 106.228 26.953ZM101.52 26.953C101.52 25.732 102.257 25.149 103.071 25.149C103.885 25.149 104.644 25.732 104.644 26.953C104.644 28.163 103.863 28.757 103.049 28.757C102.224 28.757 101.52 28.163 101.52 26.953ZM113.111 23.906H111.56V27.261C111.56 28.24 111.032 28.768 110.196 28.768C109.382 28.768 108.843 28.24 108.843 27.261V23.906H107.303V27.481C107.303 29.153 108.326 30.077 109.745 30.077C110.504 30.077 111.175 29.747 111.56 29.23V30H113.111V23.906ZM118.898 30H120.438V26.425C120.438 24.742 119.426 23.818 118.007 23.818C117.226 23.818 116.566 24.148 116.17 24.665V23.906H114.63V30H116.17V26.634C116.17 25.655 116.709 25.127 117.545 25.127C118.359 25.127 118.898 25.655 118.898 26.634V30ZM122.145 28.108C122.145 29.505 122.926 30 124.092 30H125.06V28.702H124.345C123.861 28.702 123.696 28.526 123.696 28.119V25.171H125.06V23.906H123.696V22.399H122.145V23.906H121.419V25.171H122.145V28.108ZM128.788 30H130.328V26.634C130.328 25.655 130.867 25.127 131.703 25.127C132.517 25.127 133.056 25.655 133.056 26.634V30H134.596V26.425C134.596 24.742 133.595 23.818 132.22 23.818C131.406 23.818 130.724 24.148 130.328 24.665V21.86H128.788V30ZM135.665 26.931C135.665 28.834 136.897 30.099 138.437 30.099C139.405 30.099 140.098 29.637 140.461 29.109V30H142.012V23.906H140.461V24.775C140.098 24.269 139.427 23.807 138.448 23.807C136.897 23.807 135.665 25.028 135.665 26.931ZM140.461 26.953C140.461 28.108 139.691 28.746 138.844 28.746C138.019 28.746 137.238 28.086 137.238 26.931C137.238 25.776 138.019 25.16 138.844 25.16C139.691 25.16 140.461 25.798 140.461 26.953ZM148.246 28.262C148.202 26.029 144.825 26.722 144.825 25.611C144.825 25.259 145.122 25.028 145.694 25.028C146.299 25.028 146.673 25.347 146.717 25.82H148.191C148.103 24.61 147.212 23.807 145.738 23.807C144.231 23.807 143.329 24.621 143.329 25.633C143.329 27.866 146.772 27.173 146.772 28.262C146.772 28.614 146.442 28.889 145.837 28.889C145.221 28.889 144.792 28.537 144.737 28.075H143.186C143.252 29.208 144.319 30.099 145.848 30.099C147.333 30.099 148.246 29.307 148.246 28.262ZM153.671 24.797V21.86H152.131V30H153.671V29.131C154.045 29.659 154.727 30.099 155.684 30.099C157.246 30.099 158.467 28.834 158.467 26.931C158.467 25.028 157.246 23.807 155.684 23.807C154.76 23.807 154.045 24.236 153.671 24.797ZM156.894 26.931C156.894 28.086 156.113 28.746 155.277 28.746C154.452 28.746 153.671 28.108 153.671 26.953C153.671 25.798 154.452 25.16 155.277 25.16C156.113 25.16 156.894 25.776 156.894 26.931ZM162.204 25.072C162.996 25.072 163.634 25.578 163.656 26.381H160.763C160.884 25.545 161.467 25.072 162.204 25.072ZM165.097 28.086H163.436C163.238 28.493 162.875 28.823 162.215 28.823C161.445 28.823 160.829 28.317 160.752 27.415H165.207C165.24 27.217 165.251 27.019 165.251 26.821C165.251 25.006 164.008 23.807 162.248 23.807C160.444 23.807 159.19 25.028 159.19 26.953C159.19 28.867 160.477 30.099 162.248 30.099C163.755 30.099 164.767 29.208 165.097 28.086ZM168.993 25.072C169.785 25.072 170.423 25.578 170.445 26.381H167.552C167.673 25.545 168.256 25.072 168.993 25.072ZM171.886 28.086H170.225C170.027 28.493 169.664 28.823 169.004 28.823C168.234 28.823 167.618 28.317 167.541 27.415H171.996C172.029 27.217 172.04 27.019 172.04 26.821C172.04 25.006 170.797 23.807 169.037 23.807C167.233 23.807 165.979 25.028 165.979 26.953C165.979 28.867 167.266 30.099 169.037 30.099C170.544 30.099 171.556 29.208 171.886 28.086ZM177.432 30H178.972V26.425C178.972 24.742 177.96 23.818 176.541 23.818C175.76 23.818 175.1 24.148 174.704 24.665V23.906H173.164V30H174.704V26.634C174.704 25.655 175.243 25.127 176.079 25.127C176.893 25.127 177.432 25.655 177.432 26.634V30ZM182.662 26.953C182.662 28.867 183.916 30.099 185.676 30.099C187.194 30.099 188.217 29.241 188.547 27.943H186.886C186.699 28.493 186.303 28.779 185.665 28.779C184.807 28.779 184.235 28.141 184.235 26.953C184.235 25.765 184.807 25.116 185.665 25.116C186.303 25.116 186.71 25.446 186.886 25.963H188.547C188.217 24.599 187.194 23.807 185.676 23.807C183.916 23.807 182.662 25.039 182.662 26.953ZM191.215 26.964C191.215 25.787 191.765 25.435 192.678 25.435H193.085V23.818C192.238 23.818 191.6 24.225 191.215 24.852V23.906H189.675V30H191.215V26.964ZM196.74 25.072C197.532 25.072 198.17 25.578 198.192 26.381H195.299C195.42 25.545 196.003 25.072 196.74 25.072ZM199.633 28.086H197.972C197.774 28.493 197.411 28.823 196.751 28.823C195.981 28.823 195.365 28.317 195.288 27.415H199.743C199.776 27.217 199.787 27.019 199.787 26.821C199.787 25.006 198.544 23.807 196.784 23.807C194.98 23.807 193.726 25.028 193.726 26.953C193.726 28.867 195.013 30.099 196.784 30.099C198.291 30.099 199.303 29.208 199.633 28.086ZM200.515 26.931C200.515 28.834 201.747 30.099 203.287 30.099C204.255 30.099 204.948 29.637 205.311 29.109V30H206.862V23.906H205.311V24.775C204.948 24.269 204.277 23.807 203.298 23.807C201.747 23.807 200.515 25.028 200.515 26.931ZM205.311 26.953C205.311 28.108 204.541 28.746 203.694 28.746C202.869 28.746 202.088 28.086 202.088 26.931C202.088 25.776 202.869 25.16 203.694 25.16C204.541 25.16 205.311 25.798 205.311 26.953ZM208.608 28.108C208.608 29.505 209.389 30 210.555 30H211.523V28.702H210.808C210.324 28.702 210.159 28.526 210.159 28.119V25.171H211.523V23.906H210.159V22.399H208.608V23.906H207.882V25.171H208.608V28.108ZM215.249 25.072C216.041 25.072 216.679 25.578 216.701 26.381H213.808C213.929 25.545 214.512 25.072 215.249 25.072ZM218.142 28.086H216.481C216.283 28.493 215.92 28.823 215.26 28.823C214.49 28.823 213.874 28.317 213.797 27.415H218.252C218.285 27.217 218.296 27.019 218.296 26.821C218.296 25.006 217.053 23.807 215.293 23.807C213.489 23.807 212.235 25.028 212.235 26.953C212.235 28.867 213.522 30.099 215.293 30.099C216.8 30.099 217.812 29.208 218.142 28.086ZM219.024 26.931C219.024 28.834 220.256 30.099 221.807 30.099C222.764 30.099 223.446 29.659 223.809 29.098V30H225.371V21.86H223.809V24.753C223.391 24.181 222.621 23.807 221.818 23.807C220.256 23.807 219.024 25.028 219.024 26.931ZM223.82 26.953C223.82 28.108 223.05 28.746 222.203 28.746C221.378 28.746 220.597 28.086 220.597 26.931C220.597 25.776 221.378 25.16 222.203 25.16C223.05 25.16 223.82 25.798 223.82 26.953ZM227.392 27.503H228.69L228.866 22.19H227.205L227.392 27.503ZM229.009 29.175C229.009 28.669 228.613 28.273 228.074 28.273C227.513 28.273 227.117 28.669 227.117 29.175C227.117 29.681 227.513 30.077 228.074 30.077C228.613 30.077 229.009 29.681 229.009 29.175Z" fill="#54CD63"/>
<path d="M86.3156 37.44L84.6676 43H83.6356L82.4676 38.792L81.2276 43L80.2036 43.008L78.6276 37.44H79.5956L80.7476 41.968L81.9956 37.44H83.0196L84.1796 41.944L85.3396 37.44H86.3156ZM91.1078 40.688C91.1078 40.8533 91.0971 41.0027 91.0758 41.136H87.7078C87.7344 41.488 87.8651 41.7707 88.0998 41.984C88.3344 42.1973 88.6224 42.304 88.9638 42.304C89.4544 42.304 89.8011 42.0987 90.0038 41.688H90.9878C90.8544 42.0933 90.6118 42.4267 90.2598 42.688C89.9131 42.944 89.4811 43.072 88.9638 43.072C88.5424 43.072 88.1638 42.9787 87.8278 42.792C87.4971 42.6 87.2358 42.3333 87.0438 41.992C86.8571 41.6453 86.7638 41.2453 86.7638 40.792C86.7638 40.3387 86.8544 39.9413 87.0358 39.6C87.2224 39.2533 87.4811 38.9867 87.8118 38.8C88.1478 38.6133 88.5318 38.52 88.9638 38.52C89.3798 38.52 89.7504 38.6107 90.0758 38.792C90.4011 38.9733 90.6544 39.2293 90.8358 39.56C91.0171 39.8853 91.1078 40.2613 91.1078 40.688ZM90.1558 40.4C90.1504 40.064 90.0304 39.7947 89.7958 39.592C89.5611 39.3893 89.2704 39.288 88.9238 39.288C88.6091 39.288 88.3398 39.3893 88.1158 39.592C87.8918 39.7893 87.7584 40.0587 87.7158 40.4H90.1558ZM100.003 38.592L98.6354 43H97.6754L96.7874 39.744L95.8994 43H94.9394L93.5634 38.592H94.4914L95.4114 42.136L96.3474 38.592H97.2994L98.1954 42.12L99.1074 38.592H100.003ZM101.149 38.008C100.984 38.008 100.845 37.952 100.733 37.84C100.621 37.728 100.565 37.5893 100.565 37.424C100.565 37.2587 100.621 37.12 100.733 37.008C100.845 36.896 100.984 36.84 101.149 36.84C101.309 36.84 101.445 36.896 101.557 37.008C101.669 37.12 101.725 37.2587 101.725 37.424C101.725 37.5893 101.669 37.728 101.557 37.84C101.445 37.952 101.309 38.008 101.149 38.008ZM101.597 38.592V43H100.685V38.592H101.597ZM103.706 37.08V43H102.794V37.08H103.706ZM105.816 37.08V43H104.904V37.08H105.816ZM111.315 38.52C111.662 38.52 111.971 38.592 112.243 38.736C112.521 38.88 112.737 39.0933 112.891 39.376C113.046 39.6587 113.123 40 113.123 40.4V43H112.219V40.536C112.219 40.1413 112.121 39.84 111.923 39.632C111.726 39.4187 111.457 39.312 111.115 39.312C110.774 39.312 110.502 39.4187 110.299 39.632C110.102 39.84 110.003 40.1413 110.003 40.536V43H109.091V38.592H110.003V39.096C110.153 38.9147 110.342 38.7733 110.571 38.672C110.806 38.5707 111.054 38.52 111.315 38.52ZM116.199 43.072C115.783 43.072 115.407 42.9787 115.071 42.792C114.735 42.6 114.471 42.3333 114.279 41.992C114.087 41.6453 113.991 41.2453 113.991 40.792C113.991 40.344 114.089 39.9467 114.287 39.6C114.484 39.2533 114.753 38.9867 115.095 38.8C115.436 38.6133 115.817 38.52 116.239 38.52C116.66 38.52 117.041 38.6133 117.383 38.8C117.724 38.9867 117.993 39.2533 118.191 39.6C118.388 39.9467 118.487 40.344 118.487 40.792C118.487 41.24 118.385 41.6373 118.183 41.984C117.98 42.3307 117.703 42.6 117.351 42.792C117.004 42.9787 116.62 43.072 116.199 43.072ZM116.199 42.28C116.433 42.28 116.652 42.224 116.855 42.112C117.063 42 117.231 41.832 117.359 41.608C117.487 41.384 117.551 41.112 117.551 40.792C117.551 40.472 117.489 40.2027 117.367 39.984C117.244 39.76 117.081 39.592 116.879 39.48C116.676 39.368 116.457 39.312 116.223 39.312C115.988 39.312 115.769 39.368 115.567 39.48C115.369 39.592 115.212 39.76 115.095 39.984C114.977 40.2027 114.919 40.472 114.919 40.792C114.919 41.2667 115.039 41.6347 115.279 41.896C115.524 42.152 115.831 42.28 116.199 42.28ZM120.452 39.336V41.776C120.452 41.9413 120.489 42.0613 120.564 42.136C120.644 42.2053 120.777 42.24 120.964 42.24H121.524V43H120.804C120.393 43 120.079 42.904 119.86 42.712C119.641 42.52 119.532 42.208 119.532 41.776V39.336H119.012V38.592H119.532V37.496H120.452V38.592H121.524V39.336H120.452ZM122.829 38.008C122.663 38.008 122.525 37.952 122.413 37.84C122.301 37.728 122.245 37.5893 122.245 37.424C122.245 37.2587 122.301 37.12 122.413 37.008C122.525 36.896 122.663 36.84 122.829 36.84C122.989 36.84 123.125 36.896 123.237 37.008C123.349 37.12 123.405 37.2587 123.405 37.424C123.405 37.5893 123.349 37.728 123.237 37.84C123.125 37.952 122.989 38.008 122.829 38.008ZM123.277 38.592V43H122.365V38.592H123.277ZM126.322 39.336H125.506V43H124.586V39.336H124.066V38.592H124.586V38.28C124.586 37.7733 124.719 37.4053 124.986 37.176C125.258 36.9413 125.682 36.824 126.258 36.824V37.584C125.981 37.584 125.786 37.6373 125.674 37.744C125.562 37.8453 125.506 38.024 125.506 38.28V38.592H126.322V39.336ZM131.098 38.592L128.394 45.072H127.45L128.346 42.928L126.61 38.592H127.626L128.866 41.952L130.154 38.592H131.098ZM139.785 38.592L138.417 43H137.457L136.569 39.744L135.681 43H134.721L133.345 38.592H134.273L135.193 42.136L136.129 38.592H137.081L137.977 42.12L138.889 38.592H139.785ZM142.746 38.52C143.082 38.52 143.381 38.592 143.642 38.736C143.909 38.88 144.117 39.0933 144.266 39.376C144.421 39.6587 144.498 40 144.498 40.4V43H143.594V40.536C143.594 40.1413 143.496 39.84 143.298 39.632C143.101 39.4187 142.832 39.312 142.49 39.312C142.149 39.312 141.877 39.4187 141.674 39.632C141.477 39.84 141.378 40.1413 141.378 40.536V43H140.466V37.08H141.378V39.104C141.533 38.9173 141.728 38.7733 141.962 38.672C142.202 38.5707 142.464 38.52 142.746 38.52ZM149.702 40.688C149.702 40.8533 149.691 41.0027 149.67 41.136H146.302C146.328 41.488 146.459 41.7707 146.694 41.984C146.928 42.1973 147.216 42.304 147.558 42.304C148.048 42.304 148.395 42.0987 148.598 41.688H149.582C149.448 42.0933 149.206 42.4267 148.854 42.688C148.507 42.944 148.075 43.072 147.558 43.072C147.136 43.072 146.758 42.9787 146.422 42.792C146.091 42.6 145.83 42.3333 145.638 41.992C145.451 41.6453 145.358 41.2453 145.358 40.792C145.358 40.3387 145.448 39.9413 145.63 39.6C145.816 39.2533 146.075 38.9867 146.406 38.8C146.742 38.6133 147.126 38.52 147.558 38.52C147.974 38.52 148.344 38.6107 148.67 38.792C148.995 38.9733 149.248 39.2293 149.43 39.56C149.611 39.8853 149.702 40.2613 149.702 40.688ZM148.75 40.4C148.744 40.064 148.624 39.7947 148.39 39.592C148.155 39.3893 147.864 39.288 147.518 39.288C147.203 39.288 146.934 39.3893 146.71 39.592C146.486 39.7893 146.352 40.0587 146.31 40.4H148.75ZM152.823 38.52C153.17 38.52 153.479 38.592 153.751 38.736C154.028 38.88 154.244 39.0933 154.399 39.376C154.554 39.6587 154.631 40 154.631 40.4V43H153.727V40.536C153.727 40.1413 153.628 39.84 153.431 39.632C153.234 39.4187 152.964 39.312 152.623 39.312C152.282 39.312 152.01 39.4187 151.807 39.632C151.61 39.84 151.511 40.1413 151.511 40.536V43H150.599V38.592H151.511V39.096C151.66 38.9147 151.85 38.7733 152.079 38.672C152.314 38.5707 152.562 38.52 152.823 38.52ZM161.84 38.592L159.136 45.072H158.192L159.088 42.928L157.352 38.592H158.368L159.608 41.952L160.896 38.592H161.84ZM164.441 43.072C164.025 43.072 163.649 42.9787 163.313 42.792C162.977 42.6 162.713 42.3333 162.521 41.992C162.329 41.6453 162.233 41.2453 162.233 40.792C162.233 40.344 162.331 39.9467 162.529 39.6C162.726 39.2533 162.995 38.9867 163.337 38.8C163.678 38.6133 164.059 38.52 164.481 38.52C164.902 38.52 165.283 38.6133 165.625 38.8C165.966 38.9867 166.235 39.2533 166.433 39.6C166.63 39.9467 166.729 40.344 166.729 40.792C166.729 41.24 166.627 41.6373 166.425 41.984C166.222 42.3307 165.945 42.6 165.593 42.792C165.246 42.9787 164.862 43.072 164.441 43.072ZM164.441 42.28C164.675 42.28 164.894 42.224 165.097 42.112C165.305 42 165.473 41.832 165.601 41.608C165.729 41.384 165.793 41.112 165.793 40.792C165.793 40.472 165.731 40.2027 165.609 39.984C165.486 39.76 165.323 39.592 165.121 39.48C164.918 39.368 164.699 39.312 164.465 39.312C164.23 39.312 164.011 39.368 163.809 39.48C163.611 39.592 163.454 39.76 163.337 39.984C163.219 40.2027 163.161 40.472 163.161 40.792C163.161 41.2667 163.281 41.6347 163.521 41.896C163.766 42.152 164.073 42.28 164.441 42.28ZM171.622 38.592V43H170.71V42.48C170.566 42.6613 170.377 42.8053 170.142 42.912C169.913 43.0133 169.668 43.064 169.406 43.064C169.06 43.064 168.748 42.992 168.47 42.848C168.198 42.704 167.982 42.4907 167.822 42.208C167.668 41.9253 167.59 41.584 167.59 41.184V38.592H168.494V41.048C168.494 41.4427 168.593 41.7467 168.79 41.96C168.988 42.168 169.257 42.272 169.598 42.272C169.94 42.272 170.209 42.168 170.406 41.96C170.609 41.7467 170.71 41.4427 170.71 41.048V38.592H171.622ZM173.738 39.232C173.871 39.008 174.047 38.8347 174.266 38.712C174.49 38.584 174.754 38.52 175.058 38.52V39.464H174.826C174.468 39.464 174.196 39.5547 174.01 39.736C173.828 39.9173 173.738 40.232 173.738 40.68V43H172.826V38.592H173.738V39.232ZM177.67 40.776C177.67 40.3333 177.761 39.9413 177.942 39.6C178.129 39.2587 178.379 38.9947 178.694 38.808C179.014 38.616 179.366 38.52 179.75 38.52C180.097 38.52 180.398 38.5893 180.654 38.728C180.915 38.8613 181.123 39.0293 181.278 39.232V38.592H182.198V43H181.278V42.344C181.123 42.552 180.913 42.7253 180.646 42.864C180.379 43.0027 180.075 43.072 179.734 43.072C179.355 43.072 179.009 42.976 178.694 42.784C178.379 42.5867 178.129 42.3147 177.942 41.968C177.761 41.616 177.67 41.2187 177.67 40.776ZM181.278 40.792C181.278 40.488 181.214 40.224 181.086 40C180.963 39.776 180.801 39.6053 180.598 39.488C180.395 39.3707 180.177 39.312 179.942 39.312C179.707 39.312 179.489 39.3707 179.286 39.488C179.083 39.6 178.918 39.768 178.79 39.992C178.667 40.2107 178.606 40.472 178.606 40.776C178.606 41.08 178.667 41.3467 178.79 41.576C178.918 41.8053 179.083 41.9813 179.286 42.104C179.494 42.2213 179.713 42.28 179.942 42.28C180.177 42.28 180.395 42.2213 180.598 42.104C180.801 41.9867 180.963 41.816 181.086 41.592C181.214 41.3627 181.278 41.096 181.278 40.792ZM183.092 40.792C183.092 40.3387 183.183 39.9413 183.364 39.6C183.551 39.2533 183.807 38.9867 184.132 38.8C184.457 38.6133 184.831 38.52 185.252 38.52C185.785 38.52 186.225 38.648 186.572 38.904C186.924 39.1547 187.161 39.5147 187.284 39.984H186.3C186.22 39.7653 186.092 39.5947 185.916 39.472C185.74 39.3493 185.519 39.288 185.252 39.288C184.879 39.288 184.58 39.4213 184.356 39.688C184.137 39.9493 184.028 40.3173 184.028 40.792C184.028 41.2667 184.137 41.6373 184.356 41.904C184.58 42.1707 184.879 42.304 185.252 42.304C185.78 42.304 186.129 42.072 186.3 41.608H187.284C187.156 42.056 186.916 42.4133 186.564 42.68C186.212 42.9413 185.775 43.072 185.252 43.072C184.831 43.072 184.457 42.9787 184.132 42.792C183.807 42.6 183.551 42.3333 183.364 41.992C183.183 41.6453 183.092 41.2453 183.092 40.792ZM187.889 40.792C187.889 40.3387 187.979 39.9413 188.161 39.6C188.347 39.2533 188.603 38.9867 188.929 38.8C189.254 38.6133 189.627 38.52 190.049 38.52C190.582 38.52 191.022 38.648 191.369 38.904C191.721 39.1547 191.958 39.5147 192.081 39.984H191.097C191.017 39.7653 190.889 39.5947 190.713 39.472C190.537 39.3493 190.315 39.288 190.049 39.288C189.675 39.288 189.377 39.4213 189.153 39.688C188.934 39.9493 188.825 40.3173 188.825 40.792C188.825 41.2667 188.934 41.6373 189.153 41.904C189.377 42.1707 189.675 42.304 190.049 42.304C190.577 42.304 190.926 42.072 191.097 41.608H192.081C191.953 42.056 191.713 42.4133 191.361 42.68C191.009 42.9413 190.571 43.072 190.049 43.072C189.627 43.072 189.254 42.9787 188.929 42.792C188.603 42.6 188.347 42.3333 188.161 41.992C187.979 41.6453 187.889 41.2453 187.889 40.792ZM194.902 43.072C194.486 43.072 194.11 42.9787 193.774 42.792C193.438 42.6 193.174 42.3333 192.982 41.992C192.79 41.6453 192.694 41.2453 192.694 40.792C192.694 40.344 192.792 39.9467 192.99 39.6C193.187 39.2533 193.456 38.9867 193.798 38.8C194.139 38.6133 194.52 38.52 194.942 38.52C195.363 38.52 195.744 38.6133 196.086 38.8C196.427 38.9867 196.696 39.2533 196.894 39.6C197.091 39.9467 197.19 40.344 197.19 40.792C197.19 41.24 197.088 41.6373 196.886 41.984C196.683 42.3307 196.406 42.6 196.054 42.792C195.707 42.9787 195.323 43.072 194.902 43.072ZM194.902 42.28C195.136 42.28 195.355 42.224 195.558 42.112C195.766 42 195.934 41.832 196.062 41.608C196.19 41.384 196.254 41.112 196.254 40.792C196.254 40.472 196.192 40.2027 196.07 39.984C195.947 39.76 195.784 39.592 195.582 39.48C195.379 39.368 195.16 39.312 194.926 39.312C194.691 39.312 194.472 39.368 194.27 39.48C194.072 39.592 193.915 39.76 193.798 39.984C193.68 40.2027 193.622 40.472 193.622 40.792C193.622 41.2667 193.742 41.6347 193.982 41.896C194.227 42.152 194.534 42.28 194.902 42.28ZM202.083 38.592V43H201.171V42.48C201.027 42.6613 200.838 42.8053 200.603 42.912C200.374 43.0133 200.129 43.064 199.867 43.064C199.521 43.064 199.209 42.992 198.931 42.848C198.659 42.704 198.443 42.4907 198.283 42.208C198.129 41.9253 198.051 41.584 198.051 41.184V38.592H198.955V41.048C198.955 41.4427 199.054 41.7467 199.251 41.96C199.449 42.168 199.718 42.272 200.059 42.272C200.401 42.272 200.67 42.168 200.867 41.96C201.07 41.7467 201.171 41.4427 201.171 41.048V38.592H202.083ZM205.511 38.52C205.857 38.52 206.167 38.592 206.439 38.736C206.716 38.88 206.932 39.0933 207.087 39.376C207.241 39.6587 207.319 40 207.319 40.4V43H206.415V40.536C206.415 40.1413 206.316 39.84 206.119 39.632C205.921 39.4187 205.652 39.312 205.311 39.312C204.969 39.312 204.697 39.4187 204.495 39.632C204.297 39.84 204.199 40.1413 204.199 40.536V43H203.287V38.592H204.199V39.096C204.348 38.9147 204.537 38.7733 204.767 38.672C205.001 38.5707 205.249 38.52 205.511 38.52ZM209.546 39.336V41.776C209.546 41.9413 209.583 42.0613 209.658 42.136C209.738 42.2053 209.871 42.24 210.058 42.24H210.618V43H209.898C209.487 43 209.173 42.904 208.954 42.712C208.735 42.52 208.626 42.208 208.626 41.776V39.336H208.106V38.592H208.626V37.496H209.546V38.592H210.618V39.336H209.546ZM214.001 38.008C213.835 38.008 213.697 37.952 213.585 37.84C213.473 37.728 213.417 37.5893 213.417 37.424C213.417 37.2587 213.473 37.12 213.585 37.008C213.697 36.896 213.835 36.84 214.001 36.84C214.161 36.84 214.297 36.896 214.409 37.008C214.521 37.12 214.577 37.2587 214.577 37.424C214.577 37.5893 214.521 37.728 214.409 37.84C214.297 37.952 214.161 38.008 214.001 38.008ZM214.449 38.592V43H213.537V38.592H214.449ZM217.246 43.072C216.899 43.072 216.587 43.0107 216.31 42.888C216.038 42.76 215.822 42.5893 215.662 42.376C215.502 42.1573 215.417 41.9147 215.406 41.648H216.35C216.366 41.8347 216.454 41.992 216.614 42.12C216.779 42.2427 216.985 42.304 217.23 42.304C217.486 42.304 217.683 42.256 217.822 42.16C217.966 42.0587 218.038 41.9307 218.038 41.776C218.038 41.6107 217.958 41.488 217.798 41.408C217.643 41.328 217.395 41.24 217.054 41.144C216.723 41.0533 216.454 40.9653 216.246 40.88C216.038 40.7947 215.857 40.664 215.702 40.488C215.553 40.312 215.478 40.08 215.478 39.792C215.478 39.5573 215.547 39.344 215.686 39.152C215.825 38.9547 216.022 38.8 216.278 38.688C216.539 38.576 216.838 38.52 217.174 38.52C217.675 38.52 218.078 38.648 218.382 38.904C218.691 39.1547 218.857 39.4987 218.878 39.936H217.966C217.95 39.7387 217.87 39.5813 217.726 39.464C217.582 39.3467 217.387 39.288 217.142 39.288C216.902 39.288 216.718 39.3333 216.59 39.424C216.462 39.5147 216.398 39.6347 216.398 39.784C216.398 39.9013 216.441 40 216.526 40.08C216.611 40.16 216.715 40.224 216.838 40.272C216.961 40.3147 217.142 40.3707 217.382 40.44C217.702 40.5253 217.963 40.6133 218.166 40.704C218.374 40.7893 218.553 40.9173 218.702 41.088C218.851 41.2587 218.929 41.4853 218.934 41.768C218.934 42.0187 218.865 42.2427 218.726 42.44C218.587 42.6373 218.39 42.792 218.134 42.904C217.883 43.016 217.587 43.072 217.246 43.072ZM222.909 39.232C223.043 39.008 223.219 38.8347 223.437 38.712C223.661 38.584 223.925 38.52 224.229 38.52V39.464H223.997C223.64 39.464 223.368 39.5547 223.181 39.736C223 39.9173 222.909 40.232 222.909 40.68V43H221.997V38.592H222.909V39.232ZM229.108 40.688C229.108 40.8533 229.097 41.0027 229.076 41.136H225.708C225.734 41.488 225.865 41.7707 226.1 41.984C226.334 42.1973 226.622 42.304 226.964 42.304C227.454 42.304 227.801 42.0987 228.004 41.688H228.988C228.854 42.0933 228.612 42.4267 228.26 42.688C227.913 42.944 227.481 43.072 226.964 43.072C226.542 43.072 226.164 42.9787 225.828 42.792C225.497 42.6 225.236 42.3333 225.044 41.992C224.857 41.6453 224.764 41.2453 224.764 40.792C224.764 40.3387 224.854 39.9413 225.036 39.6C225.222 39.2533 225.481 38.9867 225.812 38.8C226.148 38.6133 226.532 38.52 226.964 38.52C227.38 38.52 227.75 38.6107 228.076 38.792C228.401 38.9733 228.654 39.2293 228.836 39.56C229.017 39.8853 229.108 40.2613 229.108 40.688ZM228.156 40.4C228.15 40.064 228.03 39.7947 227.796 39.592C227.561 39.3893 227.27 39.288 226.924 39.288C226.609 39.288 226.34 39.3893 226.116 39.592C225.892 39.7893 225.758 40.0587 225.716 40.4H228.156ZM229.701 40.776C229.701 40.3333 229.792 39.9413 229.973 39.6C230.16 39.2587 230.411 38.9947 230.725 38.808C231.045 38.616 231.397 38.52 231.781 38.52C232.128 38.52 232.429 38.5893 232.685 38.728C232.947 38.8613 233.155 39.0293 233.309 39.232V38.592H234.229V43H233.309V42.344C233.155 42.552 232.944 42.7253 232.677 42.864C232.411 43.0027 232.107 43.072 231.765 43.072C231.387 43.072 231.04 42.976 230.725 42.784C230.411 42.5867 230.16 42.3147 229.973 41.968C229.792 41.616 229.701 41.2187 229.701 40.776ZM233.309 40.792C233.309 40.488 233.245 40.224 233.117 40C232.995 39.776 232.832 39.6053 232.629 39.488C232.427 39.3707 232.208 39.312 231.973 39.312C231.739 39.312 231.52 39.3707 231.317 39.488C231.115 39.6 230.949 39.768 230.821 39.992C230.699 40.2107 230.637 40.472 230.637 40.776C230.637 41.08 230.699 41.3467 230.821 41.576C230.949 41.8053 231.115 41.9813 231.317 42.104C231.525 42.2213 231.744 42.28 231.973 42.28C232.208 42.28 232.427 42.2213 232.629 42.104C232.832 41.9867 232.995 41.816 233.117 41.592C233.245 41.3627 233.309 41.096 233.309 40.792ZM235.123 40.776C235.123 40.3333 235.214 39.9413 235.395 39.6C235.582 39.2587 235.832 38.9947 236.147 38.808C236.467 38.616 236.822 38.52 237.211 38.52C237.499 38.52 237.782 38.584 238.059 38.712C238.342 38.8347 238.566 39 238.731 39.208V37.08H239.651V43H238.731V42.336C238.582 42.5493 238.374 42.7253 238.107 42.864C237.846 43.0027 237.544 43.072 237.203 43.072C236.819 43.072 236.467 42.976 236.147 42.784C235.832 42.5867 235.582 42.3147 235.395 41.968C235.214 41.616 235.123 41.2187 235.123 40.776ZM238.731 40.792C238.731 40.488 238.667 40.224 238.539 40C238.416 39.776 238.254 39.6053 238.051 39.488C237.848 39.3707 237.63 39.312 237.395 39.312C237.16 39.312 236.942 39.3707 236.739 39.488C236.536 39.6 236.371 39.768 236.243 39.992C236.12 40.2107 236.059 40.472 236.059 40.776C236.059 41.08 236.12 41.3467 236.243 41.576C236.371 41.8053 236.536 41.9813 236.739 42.104C236.947 42.2213 237.166 42.28 237.395 42.28C237.63 42.28 237.848 42.2213 238.051 42.104C238.254 41.9867 238.416 41.816 238.539 41.592C238.667 41.3627 238.731 41.096 238.731 40.792ZM244.817 38.592L242.113 45.072H241.169L242.065 42.928L240.329 38.592H241.345L242.585 41.952L243.873 38.592H244.817Z" fill="white"/>
<path d="M58.7292 30.8796H47.1121C45.8778 30.8796 44.8613 29.8952 44.8613 28.6998V28.5592C44.8613 27.3638 45.8778 26.3794 47.1121 26.3794H58.7292C59.9635 26.3794 60.98 27.3638 60.98 28.5592V28.6295C60.98 29.8249 59.9635 30.8796 58.7292 30.8796Z" fill="#54CD63"/>
<path d="M59.6003 35.3799H47.9832C46.7489 35.3799 45.7324 34.3955 45.7324 33.2001V33.0594C45.7324 31.8641 46.7489 30.8796 47.9832 30.8796H59.6003C60.8346 30.8796 61.8511 31.8641 61.8511 33.0594V33.2001C61.8511 34.3955 60.8346 35.3799 59.6003 35.3799Z" fill="#54CD63"/>
<path d="M58.0036 39.6692H46.3865C45.1522 39.6692 44.1357 38.6848 44.1357 37.4894V37.3488C44.1357 36.1534 45.1522 35.1689 46.3865 35.1689H58.0036C59.2379 35.1689 60.2544 36.1534 60.2544 37.3488V37.4894C60.2544 38.6848 59.2379 39.6692 58.0036 39.6692Z" fill="#54CD63"/>
<path d="M55.4619 43.7476H47.1121C45.8778 43.7476 44.8613 42.7631 44.8613 41.5678V41.4271C44.8613 40.2317 45.8778 39.2473 47.1121 39.2473H55.4619C56.6962 39.2473 57.7127 40.2317 57.7127 41.4271V41.5678C57.7127 42.7631 56.6962 43.7476 55.4619 43.7476Z" fill="#54CD63"/>
<path d="M44.7163 32.9187H44.5711C43.3368 32.9187 42.3203 31.9343 42.3203 30.7389C42.3203 30.7389 42.6833 23.7073 42.6833 21.1759C42.6833 20.6134 42.6833 18.5039 42.6107 17.7304C42.4655 15.4803 43.3368 16.0428 44.5711 16.1131H44.7163C46.3137 16.535 46.8945 18.082 46.8219 19.1367L46.9671 30.7389C46.9671 31.9343 45.9506 32.9187 44.7163 32.9187Z" fill="#54CD63"/>
<path d="M50.0158 43.7475H40.7948C39.5604 43.7475 38.5439 42.7631 38.5439 41.5677V28.6295C38.5439 27.4341 39.5604 26.4497 40.7948 26.4497H50.0884C51.3227 26.4497 52.3392 27.4341 52.3392 28.6295V41.5677C52.3392 42.7631 51.3227 43.7475 50.0158 43.7475Z" fill="#54CD63"/>
<path d="M39.6328 26.6604C39.6328 26.6604 41.3754 25.2541 43.0453 21.457L42.6097 26.8714L39.6328 26.6604Z" fill="#54CD63"/>
<path d="M36.2936 44.0287H34.2606C33.0263 44.0287 32.0098 43.0443 32.0098 41.8489V29.3326C32.0098 28.1373 33.0263 27.1528 34.2606 27.1528H36.221C37.4553 27.1528 38.4718 28.1373 38.4718 29.3326V41.8489C38.5444 43.0443 37.5279 44.0287 36.2936 44.0287Z" fill="#54CD63" stroke="#1F2A3E" stroke-miterlimit="10"/>
</svg>
